<svg xmlns="http://www.w3.org/2000/svg" xmlns:xlink="http://www.w3.org/1999/xlink" width="256" height="256" viewBox="0 0 256 256"><defs><linearGradient id="a" x1="0.5" y1="-0.791" x2="0.5" y2="1.002" gradientUnits="objectBoundingBox"><stop offset="0" stop-color="#d99c3b"/><stop offset="0.323" stop-color="#fcd27c"/><stop offset="1" stop-color="#fde5b1"/></linearGradient><linearGradient id="b" x1="1" y1="0.5" x2="0" y2="1" gradientUnits="objectBoundingBox"><stop offset="0" stop-color="#fcd27c"/><stop offset="0.547" stop-color="#ffe7b3"/><stop offset="1" stop-color="#ffe7b3"/></linearGradient><linearGradient id="c" x1="0.5" y1="-0.019" x2="0.5" y2="1" gradientUnits="objectBoundingBox"><stop offset="0" stop-color="#ffe7b3"/><stop offset="0.232" stop-color="#fddf9f"/><stop offset="0.443" stop-color="#f8d48b"/><stop offset="0.64" stop-color="#f5cb7d"/><stop offset="0.931" stop-color="#edc072"/><stop offset="1" stop-color="#e6bb65"/></linearGradient><linearGradient id="d" x1="0" y1="0.5" x2="1" xlink:href="#b"/><clipPath id="f"><rect width="256" height="256"/></clipPath></defs><g id="e" clip-path="url(#f)"><rect width="256" height="256" fill="transparent"/><g transform="translate(-302.064 -182.151)"><g transform="translate(334.674 258.363)"><path d="M618.754,209.39Z" transform="translate(-427.973 -111.74)" fill="url(#a)"/><path d="M538.546,182.112c4.99-8.833,9.188-10.145,13.283-10.145,6.006,0,10.182,5.555,12.852,10.485l10.659,21.887-2.9,4.762a39.761,39.761,0,0,1-53.5,16.787l-2.77-1.445Z" transform="translate(-516.166 -126.794)" fill="url(#b)"/><path d="M645.848,163.16c-7.771-15.676-31.1-16.031-39.006-.237l-11.489,22-11.491-22c-7.9-15.794-31.232-15.439-39.006.237l-14.948,28.922c7.1-8.055,17.047-3.308,21.375,4.888L567.4,226.646l8.246,15.77a21.858,21.858,0,0,0,9.391,9.554,22.815,22.815,0,0,0,20.621,0,21.866,21.866,0,0,0,9.389-9.554l8.246-15.77,16.123-29.676c4.331-8.2,14.279-12.943,21.375-4.888Z" transform="translate(-499.961 -151.239)" fill="url(#c)"/><path d="M552.96,182.112c-4.991-8.833-9.188-10.145-13.283-10.145-6.006,0-10.182,5.555-12.851,10.485l-10.659,21.887,2.9,4.762a39.761,39.761,0,0,0,53.5,16.787l2.77-1.445Z" transform="translate(-384.558 -126.794)" fill="url(#d)"/></g></g></g></svg>