<svg viewBox="0 0 64 64" xmlns="http://www.w3.org/2000/svg"><circle cx="32" cy="32" r="28" fill="#21759b"/><path d="M11.5 32c0 8.1 4.7 15.1 11.5 18.5L13.3 23.9a20.3 20.3 0 0 0-1.8 8.1Zm34.4-1c0-2.5-.9-4.3-1.7-5.7-1-1.7-2-3.1-2-4.8 0-1.9 1.4-3.6 3.5-3.6h.3A20.4 20.4 0 0 0 15.2 20c1 .1 2.6.1 2.6.1 1.1.1 1.3 1.7.1 1.8l-2 .2 7.6 22.5L28 31.2 24.8 22l-1.8-.2c-1.2-.1-1-1.7.1-1.8 0 0 3.2.1 5.2.1s5.2-.1 5.2-.1c1.1-.1 1.3 1.7.1 1.8l-2 .2 7.5 22.3 2.1-7c.9-2.9 1.7-5 1.7-6.4Zm-13.5 2.8-6.2 18a20.9 20.9 0 0 0 5.8.8c2.4 0 4.8-.4 6.9-1.2l-.1-.3-6.4-17.3Zm17.7-11.4c.1.7.2 1.4.2 2.2 0 2.1-.4 4.5-1.6 7.5l-6.4 18.4A20.5 20.5 0 0 0 52.5 32a20.1 20.1 0 0 0-2.4-9.6Z" fill="#fff"/></svg>
