<svg xmlns="http://www.w3.org/2000/svg" xmlns:xlink="http://www.w3.org/1999/xlink" width="256" height="256" viewBox="0 0 256 256"><defs><linearGradient id="a" x1="0.5" y1="-1.054" x2="0.5" y2="1.002" gradientUnits="objectBoundingBox"><stop offset="0.323" stop-color="#c8861c"/><stop offset="1" stop-color="#f6db9b"/></linearGradient><linearGradient id="b" x1="21.397" y1="-1.054" x2="21.397" y2="1.002" xlink:href="#a"/><linearGradient id="c" x1="0.5" y1="-0.45" x2="0.5" y2="1" gradientUnits="objectBoundingBox"><stop offset="0" stop-color="#fcdd98"/><stop offset="0.232" stop-color="#fada94"/><stop offset="0.407" stop-color="#f6d48b"/><stop offset="0.564" stop-color="#efc87b"/><stop offset="0.709" stop-color="#e6b864"/><stop offset="0.847" stop-color="#d9a346"/><stop offset="0.978" stop-color="#ca8a22"/><stop offset="1" stop-color="#c8861c"/></linearGradient><clipPath id="e"><rect width="256" height="256"/></clipPath></defs><g id="d" clip-path="url(#e)"><g transform="translate(-505.937 -366.265)"><path d="M621.981,463.58c-6.162-10.905-11.344-12.525-16.4-12.525-7.418,0-12.573,6.856-15.869,12.945l-13.16,27.02,3.584,5.879a49.088,49.088,0,0,0,66.052,20.729l3.42-1.787Z" transform="translate(102.096 35.044)" fill="url(#a)"/><path d="M543.8,463.58c6.162-10.905,11.344-12.525,16.4-12.525,7.415,0,12.571,6.856,15.867,12.945l13.16,27.02-3.584,5.879a49.089,49.089,0,0,1-66.053,20.729l-3.42-1.787Z" transform="translate(0 35.044)" fill="url(#b)"/><path d="M673.05,445.045c-9.595-19.354-38.4-19.792-48.157-.3l-14.185,27.17-14.188-27.17c-9.759-19.5-38.56-19.058-48.157.3l-18.455,35.707c8.761-9.945,21.046-4.087,26.39,6.035L576.2,523.424,586.384,542.9a26.962,26.962,0,0,0,11.594,11.793,28.146,28.146,0,0,0,25.459,0A26.97,26.97,0,0,0,635.028,542.9l10.181-19.472,19.905-36.636c5.346-10.122,17.629-15.98,26.39-6.035Z" transform="translate(23.231 0)" fill="url(#c)"/></g></g></svg>