<svg xmlns="http://www.w3.org/2000/svg" xmlns:xlink="http://www.w3.org/1999/xlink" width="264.24" height="253.88" viewBox="0 0 264.24 253.88"><defs><linearGradient id="a" x1="0.5" y1="-1.054" x2="0.5" y2="1.002" gradientUnits="objectBoundingBox"><stop offset="0" stop-color="#c8861c"/><stop offset="0.323" stop-color="#e6a345"/><stop offset="1" stop-color="#f6db9b"/></linearGradient><linearGradient id="b" x1="21.397" y1="-1.054" x2="21.397" y2="1.002" gradientUnits="objectBoundingBox"><stop offset="0" stop-color="#c78a28"/><stop offset="0.323" stop-color="#e6a345"/><stop offset="1" stop-color="#f6db9b"/></linearGradient><linearGradient id="c" x1="0.156" y1="-0.44" x2="0.754" y2="1.009" gradientUnits="objectBoundingBox"><stop offset="0" stop-color="#fcdd98"/><stop offset="0.232" stop-color="#fada94"/><stop offset="0.407" stop-color="#f6d48b"/><stop offset="0.564" stop-color="#efc87b"/><stop offset="0.709" stop-color="#e6b864"/><stop offset="0.847" stop-color="#d9a346"/><stop offset="0.975" stop-color="#c98922"/><stop offset="1" stop-color="#e6a345"/></linearGradient><clipPath id="e"><rect width="264.24" height="253.88"/></clipPath></defs><g id="d" clip-path="url(#e)"><g transform="translate(0)"><path d="M627.515,186.018c-6.912-12.234-12.726-14.051-18.394-14.051-8.322,0-14.105,7.694-17.8,14.522L576.555,216.8l4.021,6.6a55.07,55.07,0,0,0,74.1,23.251l3.836-2Z" transform="translate(-394.275 -109.401)" fill="url(#a)"/><path d="M547.162,186.018c6.912-12.234,12.726-14.051,18.4-14.051,8.319,0,14.1,7.694,17.8,14.522L598.122,216.8l-4.02,6.6A55.07,55.07,0,0,1,520,246.649l-3.836-2Z" transform="translate(-516.166 -109.401)" fill="url(#b)"/><path d="M690.487,167.75c-10.764-21.712-43.073-22.2-54.024-.329L620.55,197.9l-15.916-30.477c-10.948-21.875-43.257-21.383-54.024.329l-20.7,40.058c9.828-11.156,23.61-4.582,29.6,6.77l22.33,41.1,11.422,21.841a30.272,30.272,0,0,0,13.006,13.233c4.38,2.285,11.355,3.411,14.28,3.411s9.9-1.126,14.28-3.411a30.28,30.28,0,0,0,13-13.233l11.422-21.841,22.33-41.1c6-11.352,19.777-17.926,29.6-6.77Z" transform="translate(-488.431 -151.239)" fill="url(#c)"/></g><g transform="translate(10 205.577)"><path d="M735.829,176.862h-19.6a2.2,2.2,0,1,1,0-4.4h19.6a2.2,2.2,0,1,1,0,4.4Z" transform="translate(-563.426 -164.511)" fill="#534741" stroke="#534741" stroke-miterlimit="10" stroke-width="0.276"/><path d="M624.526,211.915h0a2.713,2.713,0,0,1-2.713-2.713V175.169a2.713,2.713,0,0,1,2.713-2.711h0a2.712,2.712,0,0,1,2.711,2.711V209.2A2.712,2.712,0,0,1,624.526,211.915Z" transform="translate(-621.813 -164.513)" fill="#534741" stroke="#534741" stroke-miterlimit="10" stroke-width="0.276"/><path d="M640.827,207.1h0a2.712,2.712,0,0,1-2.711-2.713V182.771a2.711,2.711,0,0,1,2.711-2.711h0a2.711,2.711,0,0,1,2.711,2.711v21.618A2.712,2.712,0,0,1,640.827,207.1Z" transform="translate(-611.49 -159.699)" fill="#534741" stroke="#534741" stroke-miterlimit="10" stroke-width="0.276"/><path d="M657.43,204.24h0a2.712,2.712,0,0,1-2.711-2.713V187.293a2.712,2.712,0,0,1,2.711-2.713h0a2.712,2.712,0,0,1,2.711,2.713v14.235A2.712,2.712,0,0,1,657.43,204.24Z" transform="translate(-600.978 -156.837)" fill="#534741" stroke="#534741" stroke-miterlimit="10" stroke-width="0.276"/><path d="M685.711,211.915h0A2.712,2.712,0,0,1,683,209.2V175.169a2.712,2.712,0,0,1,2.711-2.711h0a2.712,2.712,0,0,1,2.711,2.711V209.2A2.712,2.712,0,0,1,685.711,211.915Z" transform="translate(-583.071 -164.513)" fill="#534741" stroke="#534741" stroke-miterlimit="10" stroke-width="0.276"/><path d="M761.764,211.915h0a2.712,2.712,0,0,1-2.711-2.713V175.169a2.712,2.712,0,0,1,2.711-2.711h0a2.712,2.712,0,0,1,2.711,2.711V209.2A2.712,2.712,0,0,1,761.764,211.915Z" transform="translate(-534.916 -164.513)" fill="#534741" stroke="#534741" stroke-miterlimit="10" stroke-width="0.276"/><path d="M696.569,192.532a2.711,2.711,0,1,1-2.711-2.711A2.712,2.712,0,0,1,696.569,192.532Z" transform="translate(-577.913 -153.519)" fill="#534741" stroke="#534741" stroke-miterlimit="10" stroke-width="0.276"/><path d="M713.136,177.675a2.711,2.711,0,1,1-2.711-2.711A2.711,2.711,0,0,1,713.136,177.675Z" transform="translate(-567.423 -162.926)" fill="#534741" stroke="#534741" stroke-miterlimit="10" stroke-width="0.276"/><path d="M755.368,192.217a2.711,2.711,0,1,1-2.711-2.711A2.711,2.711,0,0,1,755.368,192.217Z" transform="translate(-540.682 -153.718)" fill="#534741" stroke="#534741" stroke-miterlimit="10" stroke-width="0.276"/><path d="M773.346,174.953a2.711,2.711,0,1,1-2.711-2.713A2.711,2.711,0,0,1,773.346,174.953Z" transform="translate(-529.299 -164.651)" fill="#534741" stroke="#534741" stroke-miterlimit="10" stroke-width="0.276"/><path d="M732.852,215.8H731.6A13.923,13.923,0,0,1,717.7,201.891V170.3a2.711,2.711,0,1,1,5.422,0v31.587a8.494,8.494,0,0,0,8.484,8.483h1.248a2.712,2.712,0,1,1,0,5.424Z" transform="translate(-561.101 -167.593)" fill="#534741" stroke="#534741" stroke-miterlimit="10" stroke-width="0.276"/><path d="M683.111,185.372c0-.741-.044-1.454-.111-2.152v4.338C683.067,186.849,683.111,186.125,683.111,185.372Z" transform="translate(-583.071 -157.698)" fill="#534741" stroke="#534741" stroke-miterlimit="10" stroke-width="0.276"/><path d="M682.053,208.276c-8.63,0-14.268-5.979-14.268-15.794,0-9.714,5.638-15.692,14.129-15.692,7.87,0,13.354,5.161,14.153,13.539v-8.476c-2.5-6.569-8.434-9.859-15.153-9.859-9.732,0-18.553,6.611-18.553,20.488,0,13.978,8.858,20.625,18.654,20.625h0c6.65,0,12.621-3.327,15.051-9.82v-8.62C695.274,203.118,689.856,208.276,682.053,208.276Z" transform="translate(-596.138 -164.807)" fill="#534741" stroke="#534741" stroke-miterlimit="10" stroke-width="0.276"/><path d="M649.345,171.993h0Z" transform="translate(-604.381 -164.807)" fill="#534741" stroke="#534741" stroke-miterlimit="10" stroke-width="0.276"/><path d="M678.874,192.777c0-14.116-3.851-20.782-14.2-20.784-7.668,0-12.718,4.107-14.485,10.5-1.978-7.186-5.443-10.4-12.641-10.4a12.374,12.374,0,0,0-12.417,9.343v12.451c0-11.354,3.25-16.925,11.122-16.925,7.694,0,10.07,4.908,10.07,16.245v13.323h5.424V193.1c0-11.169,3.178-16.234,11.089-16.234,7.769,0,10.612,5.055,10.612,16.244v13.425h5.422Z" transform="translate(-619.71 -164.807)" fill="#534741" stroke="#534741" stroke-miterlimit="10" stroke-width="0.276"/><path d="M698.03,182.845c0-3.835,4.083-6.124,10.235-6.124,4.088,0,8.334,1.648,10.175,4.158l4.684-2.737h0c-2.334-3.515-9.222-6.092-14.925-6.1-8.734-.02-15.522,4.223-15.522,11,0,15.055,27.217,7.6,27.217,17.98,0,4.356-4.232,7.021-11.146,7.021-5,0-9.716-1.694-12.62-5.518l-4.784,2.553c2.888,4.891,10.305,7.8,17.4,7.8,9.835,0,16.609-4.8,16.609-11.963C725.358,185.5,698.03,193.175,698.03,182.845Z" transform="translate(-577.788 -164.779)" fill="#534741" stroke="#534741" stroke-miterlimit="10" stroke-width="0.276"/><path d="M750.933,182.38h0Z" transform="translate(-540.06 -158.23)" fill="#534741" stroke="#534741" stroke-miterlimit="10" stroke-width="0.276"/><path d="M767.457,204.381l-3.586-1.646-1.527-.1c-1.72,3.7-6.32,5.572-11.747,5.572-8.935,0-14.526-5.528-14.672-14.72h30.818a2.133,2.133,0,0,0,2.394-2.393c-.225-11.478-7.539-19.1-18.991-19.1-11.635,0-19.647,8.347-19.647,20.49,0,12.347,7.906,20.487,20.024,20.487l0,0C758.125,212.969,764.2,210.083,767.457,204.381ZM750.219,176.57c8.086,0,13.193,4.833,13.648,12.388H736.129C737.089,181.138,742.51,176.57,750.219,176.57Z" transform="translate(-552.996 -164.806)" fill="#534741" stroke="#534741" stroke-miterlimit="10" stroke-width="0.276"/><path d="M774.15,172.253c-6.881-.428-10.361,3.436-11.777,7.58v11.85c0-9.1,3.471-14.519,11.409-14.032l1.476-3.457Z" transform="translate(-532.814 -164.663)" fill="#534741" stroke="#534741" stroke-miterlimit="10" stroke-width="0.276"/></g></g></svg>