<?xml version="1.0" encoding="utf-8"?>
<!-- Generator: Adobe Illustrator 16.0.0, SVG Export Plug-In . SVG Version: 6.00 Build 0)  -->
<!DOCTYPE svg PUBLIC "-//W3C//DTD SVG 1.1//EN" "http://www.w3.org/Graphics/SVG/1.1/DTD/svg11.dtd">
<svg version="1.1" xmlns="http://www.w3.org/2000/svg" xmlns:xlink="http://www.w3.org/1999/xlink" x="0px" y="0px" width="20px"
	 height="20px" viewBox="0 0 20 20" enable-background="new 0 0 20 20" xml:space="preserve">
<g id="圖層_2" display="none">
	<rect x="0.041" y="0.359" display="inline" fill="#FFFFFF" width="20" height="20"/>
</g>
<g id="圖層_1">
	<circle fill="#2196F3" cx="10.041" cy="10" r="9.807"/>
</g>
<g id="圖層_3">
	<g>
		<g>
			<path fill="#FFFFFF" d="M5.33,10.978c0.605,1.24,1.236,2.602,2.201,3.606c0.855,0.889,1.734,0.033,2.356-0.616
				c2.035-2.128,3.839-4.51,5.656-6.825c0.688-0.877-0.542-2.125-1.238-1.237c-1.398,1.782-2.821,3.548-4.286,5.277
				c-0.392,0.462-0.791,0.918-1.199,1.365c-0.154,0.169-0.313,0.333-0.475,0.496c-0.549,0.555-0.005-0.143,0.272,0.146
				c-0.782-0.813-1.285-2.088-1.776-3.094C6.345,9.081,4.836,9.968,5.33,10.978L5.33,10.978z"/>
		</g>
	</g>
</g>
</svg>
