<svg xmlns="http://www.w3.org/2000/svg" xmlns:xlink="http://www.w3.org/1999/xlink" width="1200" height="600" viewBox="0 0 1200 600"><defs><radialGradient id="a" cx="0.692" cy="0.5" r="0.422" gradientUnits="objectBoundingBox"><stop offset="0" stop-color="#e0e2e6"/><stop offset="1" stop-color="#e0e2e6" stop-opacity="0"/></radialGradient><clipPath id="c"><rect width="1200" height="600"/></clipPath></defs><g id="b" clip-path="url(#c)"><rect width="1200" height="600" fill="#fff"/><g transform="translate(-220 -141)"><path d="M1575,883H0V0H1639V883Zm1-1h62V820h-62Zm-63,0h62V820h-62Zm-63,0h62V820h-62Zm-63,0h62V820h-62Zm-63,0h62V820h-62Zm-63,0h62V820h-62Zm-63,0h62V820h-62Zm-63,0h62V820h-62Zm-63,0h62V820h-62Zm-63,0h62V820h-62Zm-63,0h62V820H946Zm-63,0h62V820H883Zm-63,0h62V820H820Zm-63,0h62V820H757Zm-63,0h62V820H694Zm-63,0h62V820H631Zm-63,0h62V820H568Zm-63,0h62V820H505Zm-63,0h62V820H442Zm-63,0h62V820H379Zm-63,0h62V820H316Zm-63,0h62V820H253Zm-63,0h62V820H190Zm-63,0h62V820H127Zm-63,0h62V820H64ZM1,882H63V820H1Zm1575-63h62V757h-62Zm-63,0h62V757h-62Zm-63,0h62V757h-62Zm-63,0h62V757h-62Zm-63,0h62V757h-62Zm-63,0h62V757h-62Zm-63,0h62V757h-62Zm-63,0h62V757h-62Zm-63,0h62V757h-62Zm-63,0h62V757h-62Zm-63,0h62V757H946Zm-63,0h62V757H883Zm-63,0h62V757H820Zm-63,0h62V757H757Zm-63,0h62V757H694Zm-63,0h62V757H631Zm-63,0h62V757H568Zm-63,0h62V757H505Zm-63,0h62V757H442Zm-63,0h62V757H379Zm-63,0h62V757H316Zm-63,0h62V757H253Zm-63,0h62V757H190Zm-63,0h62V757H127Zm-63,0h62V757H64ZM1,819H63V757H1Zm1575-63h62V694h-62Zm-63,0h62V694h-62Zm-63,0h62V694h-62Zm-63,0h62V694h-62Zm-63,0h62V694h-62Zm-63,0h62V694h-62Zm-63,0h62V694h-62Zm-63,0h62V694h-62Zm-63,0h62V694h-62Zm-63,0h62V694h-62Zm-63,0h62V694H946Zm-63,0h62V694H883Zm-63,0h62V694H820Zm-63,0h62V694H757Zm-63,0h62V694H694Zm-63,0h62V694H631Zm-63,0h62V694H568Zm-63,0h62V694H505Zm-63,0h62V694H442Zm-63,0h62V694H379Zm-63,0h62V694H316Zm-63,0h62V694H253Zm-63,0h62V694H190Zm-63,0h62V694H127Zm-63,0h62V694H64ZM1,756H63V694H1Zm1575-63h62V631h-62Zm-63,0h62V631h-62Zm-63,0h62V631h-62Zm-63,0h62V631h-62Zm-63,0h62V631h-62Zm-63,0h62V631h-62Zm-63,0h62V631h-62Zm-63,0h62V631h-62Zm-63,0h62V631h-62Zm-63,0h62V631h-62Zm-63,0h62V631H946Zm-63,0h62V631H883Zm-63,0h62V631H820Zm-63,0h62V631H757Zm-63,0h62V631H694Zm-63,0h62V631H631Zm-63,0h62V631H568Zm-63,0h62V631H505Zm-63,0h62V631H442Zm-63,0h62V631H379Zm-63,0h62V631H316Zm-63,0h62V631H253Zm-63,0h62V631H190Zm-63,0h62V631H127Zm-63,0h62V631H64ZM1,693H63V631H1Zm1575-63h62V568h-62Zm-63,0h62V568h-62Zm-63,0h62V568h-62Zm-63,0h62V568h-62Zm-63,0h62V568h-62Zm-63,0h62V568h-62Zm-63,0h62V568h-62Zm-63,0h62V568h-62Zm-63,0h62V568h-62Zm-63,0h62V568h-62Zm-63,0h62V568H946Zm-63,0h62V568H883Zm-63,0h62V568H820Zm-63,0h62V568H757Zm-63,0h62V568H694Zm-63,0h62V568H631Zm-63,0h62V568H568Zm-63,0h62V568H505Zm-63,0h62V568H442Zm-63,0h62V568H379Zm-63,0h62V568H316Zm-63,0h62V568H253Zm-63,0h62V568H190Zm-63,0h62V568H127Zm-63,0h62V568H64ZM1,630H63V568H1Zm1575-63h62V505h-62Zm-63,0h62V505h-62Zm-63,0h62V505h-62Zm-63,0h62V505h-62Zm-63,0h62V505h-62Zm-63,0h62V505h-62Zm-63,0h62V505h-62Zm-63,0h62V505h-62Zm-63,0h62V505h-62Zm-63,0h62V505h-62Zm-63,0h62V505H946Zm-63,0h62V505H883Zm-63,0h62V505H820Zm-63,0h62V505H757Zm-63,0h62V505H694Zm-63,0h62V505H631Zm-63,0h62V505H568Zm-63,0h62V505H505Zm-63,0h62V505H442Zm-63,0h62V505H379Zm-63,0h62V505H316Zm-63,0h62V505H253Zm-63,0h62V505H190Zm-63,0h62V505H127Zm-63,0h62V505H64ZM1,567H63V505H1Zm1575-63h62V442h-62Zm-63,0h62V442h-62Zm-63,0h62V442h-62Zm-63,0h62V442h-62Zm-63,0h62V442h-62Zm-63,0h62V442h-62Zm-63,0h62V442h-62Zm-63,0h62V442h-62Zm-63,0h62V442h-62Zm-63,0h62V442h-62Zm-63,0h62V442H946Zm-63,0h62V442H883Zm-63,0h62V442H820Zm-63,0h62V442H757Zm-63,0h62V442H694Zm-63,0h62V442H631Zm-63,0h62V442H568Zm-63,0h62V442H505Zm-63,0h62V442H442Zm-63,0h62V442H379Zm-63,0h62V442H316Zm-63,0h62V442H253Zm-63,0h62V442H190Zm-63,0h62V442H127Zm-63,0h62V442H64ZM1,504H63V442H1Zm1575-63h62V379h-62Zm-63,0h62V379h-62Zm-63,0h62V379h-62Zm-63,0h62V379h-62Zm-63,0h62V379h-62Zm-63,0h62V379h-62Zm-63,0h62V379h-62Zm-63,0h62V379h-62Zm-63,0h62V379h-62Zm-63,0h62V379h-62Zm-63,0h62V379H946Zm-63,0h62V379H883Zm-63,0h62V379H820Zm-63,0h62V379H757Zm-63,0h62V379H694Zm-63,0h62V379H631Zm-63,0h62V379H568Zm-63,0h62V379H505Zm-63,0h62V379H442Zm-63,0h62V379H379Zm-63,0h62V379H316Zm-63,0h62V379H253Zm-63,0h62V379H190Zm-63,0h62V379H127Zm-63,0h62V379H64ZM1,441H63V379H1Zm1575-63h62V316h-62Zm-63,0h62V316h-62Zm-63,0h62V316h-62Zm-63,0h62V316h-62Zm-63,0h62V316h-62Zm-63,0h62V316h-62Zm-63,0h62V316h-62Zm-63,0h62V316h-62Zm-63,0h62V316h-62Zm-63,0h62V316h-62Zm-63,0h62V316H946Zm-63,0h62V316H883Zm-63,0h62V316H820Zm-63,0h62V316H757Zm-63,0h62V316H694Zm-63,0h62V316H631Zm-63,0h62V316H568Zm-63,0h62V316H505Zm-63,0h62V316H442Zm-63,0h62V316H379Zm-63,0h62V316H316Zm-63,0h62V316H253Zm-63,0h62V316H190Zm-63,0h62V316H127Zm-63,0h62V316H64ZM1,378H63V316H1Zm1575-63h62V253h-62Zm-63,0h62V253h-62Zm-63,0h62V253h-62Zm-63,0h62V253h-62Zm-63,0h62V253h-62Zm-63,0h62V253h-62Zm-63,0h62V253h-62Zm-63,0h62V253h-62Zm-63,0h62V253h-62Zm-63,0h62V253h-62Zm-63,0h62V253H946Zm-63,0h62V253H883Zm-63,0h62V253H820Zm-63,0h62V253H757Zm-63,0h62V253H694Zm-63,0h62V253H631Zm-63,0h62V253H568Zm-63,0h62V253H505Zm-63,0h62V253H442Zm-63,0h62V253H379Zm-63,0h62V253H316Zm-63,0h62V253H253Zm-63,0h62V253H190Zm-63,0h62V253H127Zm-63,0h62V253H64ZM1,315H63V253H1Zm1575-63h62V190h-62Zm-63,0h62V190h-62Zm-63,0h62V190h-62Zm-63,0h62V190h-62Zm-63,0h62V190h-62Zm-63,0h62V190h-62Zm-63,0h62V190h-62Zm-63,0h62V190h-62Zm-63,0h62V190h-62Zm-63,0h62V190h-62Zm-63,0h62V190H946Zm-63,0h62V190H883Zm-63,0h62V190H820Zm-63,0h62V190H757Zm-63,0h62V190H694Zm-63,0h62V190H631Zm-63,0h62V190H568Zm-63,0h62V190H505Zm-63,0h62V190H442Zm-63,0h62V190H379Zm-63,0h62V190H316Zm-63,0h62V190H253Zm-63,0h62V190H190Zm-63,0h62V190H127Zm-63,0h62V190H64ZM1,252H63V190H1Zm1575-63h62V127h-62Zm-63,0h62V127h-62Zm-63,0h62V127h-62Zm-63,0h62V127h-62Zm-63,0h62V127h-62Zm-63,0h62V127h-62Zm-63,0h62V127h-62Zm-63,0h62V127h-62Zm-63,0h62V127h-62Zm-63,0h62V127h-62Zm-63,0h62V127H946Zm-63,0h62V127H883Zm-63,0h62V127H820Zm-63,0h62V127H757Zm-63,0h62V127H694Zm-63,0h62V127H631Zm-63,0h62V127H568Zm-63,0h62V127H505Zm-63,0h62V127H442Zm-63,0h62V127H379Zm-63,0h62V127H316Zm-63,0h62V127H253Zm-63,0h62V127H190Zm-63,0h62V127H127Zm-63,0h62V127H64ZM1,189H63V127H1Zm1575-63h62V64h-62Zm-63,0h62V64h-62Zm-63,0h62V64h-62Zm-63,0h62V64h-62Zm-63,0h62V64h-62Zm-63,0h62V64h-62Zm-63,0h62V64h-62Zm-63,0h62V64h-62Zm-63,0h62V64h-62Zm-63,0h62V64h-62Zm-63,0h62V64H946Zm-63,0h62V64H883Zm-63,0h62V64H820Zm-63,0h62V64H757Zm-63,0h62V64H694Zm-63,0h62V64H631Zm-63,0h62V64H568Zm-63,0h62V64H505Zm-63,0h62V64H442Zm-63,0h62V64H379Zm-63,0h62V64H316Zm-63,0h62V64H253Zm-63,0h62V64H190Zm-63,0h62V64H127Zm-63,0h62V64H64ZM1,126H63V64H1ZM1576,63h62V1h-62Zm-63,0h62V1h-62Zm-63,0h62V1h-62Zm-63,0h62V1h-62Zm-63,0h62V1h-62Zm-63,0h62V1h-62Zm-63,0h62V1h-62Zm-63,0h62V1h-62Zm-63,0h62V1h-62Zm-63,0h62V1h-62Zm-63,0h62V1H946Zm-63,0h62V1H883Zm-63,0h62V1H820Zm-63,0h62V1H757Zm-63,0h62V1H694Zm-63,0h62V1H631Zm-63,0h62V1H568Zm-63,0h62V1H505Zm-63,0h62V1H442Zm-63,0h62V1H379Zm-63,0h62V1H316Zm-63,0h62V1H253Zm-63,0h62V1H190Zm-63,0h62V1H127ZM64,63h62V1H64ZM1,63H63V1H1Z" fill="url(#a)"/></g></g></svg>