<svg xmlns="http://www.w3.org/2000/svg" xmlns:xlink="http://www.w3.org/1999/xlink" width="1200" height="600" viewBox="0 0 1200 600"><defs><radialGradient id="a" cx="0.5" cy="0.5" r="0.422" gradientUnits="objectBoundingBox"><stop offset="0" stop-color="#323232"/><stop offset="1" stop-color="#1e1e1e"/></radialGradient><linearGradient id="b" x1="0.5" y1="-1.054" x2="0.5" y2="1.002" gradientUnits="objectBoundingBox"><stop offset="0" stop-color="#c8861c"/><stop offset="0.323" stop-color="#e6a345"/><stop offset="1" stop-color="#f6db9b"/></linearGradient><linearGradient id="c" x1="21.397" y1="-1.054" x2="21.397" y2="1.002" gradientUnits="objectBoundingBox"><stop offset="0" stop-color="#c78a28"/><stop offset="0.323" stop-color="#e6a345"/><stop offset="1" stop-color="#f6db9b"/></linearGradient><linearGradient id="d" x1="0.156" y1="-0.44" x2="0.754" y2="1.009" gradientUnits="objectBoundingBox"><stop offset="0" stop-color="#fcdd98"/><stop offset="0.232" stop-color="#fada94"/><stop offset="0.407" stop-color="#f6d48b"/><stop offset="0.564" stop-color="#efc87b"/><stop offset="0.709" stop-color="#e6b864"/><stop offset="0.847" stop-color="#d9a346"/><stop offset="0.975" stop-color="#c98922"/><stop offset="1" stop-color="#e6a345"/></linearGradient><clipPath id="f"><rect width="1200" height="600"/></clipPath></defs><g id="e" clip-path="url(#f)"><rect width="1200" height="600" fill="#1e1e1e"/><path d="M1575,883H0V0H1639V883Zm1-1h62V820h-62Zm-63,0h62V820h-62Zm-63,0h62V820h-62Zm-63,0h62V820h-62Zm-63,0h62V820h-62Zm-63,0h62V820h-62Zm-63,0h62V820h-62Zm-63,0h62V820h-62Zm-63,0h62V820h-62Zm-63,0h62V820h-62Zm-63,0h62V820H946Zm-63,0h62V820H883Zm-63,0h62V820H820Zm-63,0h62V820H757Zm-63,0h62V820H694Zm-63,0h62V820H631Zm-63,0h62V820H568Zm-63,0h62V820H505Zm-63,0h62V820H442Zm-63,0h62V820H379Zm-63,0h62V820H316Zm-63,0h62V820H253Zm-63,0h62V820H190Zm-63,0h62V820H127Zm-63,0h62V820H64ZM1,882H63V820H1Zm1575-63h62V757h-62Zm-63,0h62V757h-62Zm-63,0h62V757h-62Zm-63,0h62V757h-62Zm-63,0h62V757h-62Zm-63,0h62V757h-62Zm-63,0h62V757h-62Zm-63,0h62V757h-62Zm-63,0h62V757h-62Zm-63,0h62V757h-62Zm-63,0h62V757H946Zm-63,0h62V757H883Zm-63,0h62V757H820Zm-63,0h62V757H757Zm-63,0h62V757H694Zm-63,0h62V757H631Zm-63,0h62V757H568Zm-63,0h62V757H505Zm-63,0h62V757H442Zm-63,0h62V757H379Zm-63,0h62V757H316Zm-63,0h62V757H253Zm-63,0h62V757H190Zm-63,0h62V757H127Zm-63,0h62V757H64ZM1,819H63V757H1Zm1575-63h62V694h-62Zm-63,0h62V694h-62Zm-63,0h62V694h-62Zm-63,0h62V694h-62Zm-63,0h62V694h-62Zm-63,0h62V694h-62Zm-63,0h62V694h-62Zm-63,0h62V694h-62Zm-63,0h62V694h-62Zm-63,0h62V694h-62Zm-63,0h62V694H946Zm-63,0h62V694H883Zm-63,0h62V694H820Zm-63,0h62V694H757Zm-63,0h62V694H694Zm-63,0h62V694H631Zm-63,0h62V694H568Zm-63,0h62V694H505Zm-63,0h62V694H442Zm-63,0h62V694H379Zm-63,0h62V694H316Zm-63,0h62V694H253Zm-63,0h62V694H190Zm-63,0h62V694H127Zm-63,0h62V694H64ZM1,756H63V694H1Zm1575-63h62V631h-62Zm-63,0h62V631h-62Zm-63,0h62V631h-62Zm-63,0h62V631h-62Zm-63,0h62V631h-62Zm-63,0h62V631h-62Zm-63,0h62V631h-62Zm-63,0h62V631h-62Zm-63,0h62V631h-62Zm-63,0h62V631h-62Zm-63,0h62V631H946Zm-63,0h62V631H883Zm-63,0h62V631H820Zm-63,0h62V631H757Zm-63,0h62V631H694Zm-63,0h62V631H631Zm-63,0h62V631H568Zm-63,0h62V631H505Zm-63,0h62V631H442Zm-63,0h62V631H379Zm-63,0h62V631H316Zm-63,0h62V631H253Zm-63,0h62V631H190Zm-63,0h62V631H127Zm-63,0h62V631H64ZM1,693H63V631H1Zm1575-63h62V568h-62Zm-63,0h62V568h-62Zm-63,0h62V568h-62Zm-63,0h62V568h-62Zm-63,0h62V568h-62Zm-63,0h62V568h-62Zm-63,0h62V568h-62Zm-63,0h62V568h-62Zm-63,0h62V568h-62Zm-63,0h62V568h-62Zm-63,0h62V568H946Zm-63,0h62V568H883Zm-63,0h62V568H820Zm-63,0h62V568H757Zm-63,0h62V568H694Zm-63,0h62V568H631Zm-63,0h62V568H568Zm-63,0h62V568H505Zm-63,0h62V568H442Zm-63,0h62V568H379Zm-63,0h62V568H316Zm-63,0h62V568H253Zm-63,0h62V568H190Zm-63,0h62V568H127Zm-63,0h62V568H64ZM1,630H63V568H1Zm1575-63h62V505h-62Zm-63,0h62V505h-62Zm-63,0h62V505h-62Zm-63,0h62V505h-62Zm-63,0h62V505h-62Zm-63,0h62V505h-62Zm-63,0h62V505h-62Zm-63,0h62V505h-62Zm-63,0h62V505h-62Zm-63,0h62V505h-62Zm-63,0h62V505H946Zm-63,0h62V505H883Zm-63,0h62V505H820Zm-63,0h62V505H757Zm-63,0h62V505H694Zm-63,0h62V505H631Zm-63,0h62V505H568Zm-63,0h62V505H505Zm-63,0h62V505H442Zm-63,0h62V505H379Zm-63,0h62V505H316Zm-63,0h62V505H253Zm-63,0h62V505H190Zm-63,0h62V505H127Zm-63,0h62V505H64ZM1,567H63V505H1Zm1575-63h62V442h-62Zm-63,0h62V442h-62Zm-63,0h62V442h-62Zm-63,0h62V442h-62Zm-63,0h62V442h-62Zm-63,0h62V442h-62Zm-63,0h62V442h-62Zm-63,0h62V442h-62Zm-63,0h62V442h-62Zm-63,0h62V442h-62Zm-63,0h62V442H946Zm-63,0h62V442H883Zm-63,0h62V442H820Zm-63,0h62V442H757Zm-63,0h62V442H694Zm-63,0h62V442H631Zm-63,0h62V442H568Zm-63,0h62V442H505Zm-63,0h62V442H442Zm-63,0h62V442H379Zm-63,0h62V442H316Zm-63,0h62V442H253Zm-63,0h62V442H190Zm-63,0h62V442H127Zm-63,0h62V442H64ZM1,504H63V442H1Zm1575-63h62V379h-62Zm-63,0h62V379h-62Zm-63,0h62V379h-62Zm-63,0h62V379h-62Zm-63,0h62V379h-62Zm-63,0h62V379h-62Zm-63,0h62V379h-62Zm-63,0h62V379h-62Zm-63,0h62V379h-62Zm-63,0h62V379h-62Zm-63,0h62V379H946Zm-63,0h62V379H883Zm-63,0h62V379H820Zm-63,0h62V379H757Zm-63,0h62V379H694Zm-63,0h62V379H631Zm-63,0h62V379H568Zm-63,0h62V379H505Zm-63,0h62V379H442Zm-63,0h62V379H379Zm-63,0h62V379H316Zm-63,0h62V379H253Zm-63,0h62V379H190Zm-63,0h62V379H127Zm-63,0h62V379H64ZM1,441H63V379H1Zm1575-63h62V316h-62Zm-63,0h62V316h-62Zm-63,0h62V316h-62Zm-63,0h62V316h-62Zm-63,0h62V316h-62Zm-63,0h62V316h-62Zm-63,0h62V316h-62Zm-63,0h62V316h-62Zm-63,0h62V316h-62Zm-63,0h62V316h-62Zm-63,0h62V316H946Zm-63,0h62V316H883Zm-63,0h62V316H820Zm-63,0h62V316H757Zm-63,0h62V316H694Zm-63,0h62V316H631Zm-63,0h62V316H568Zm-63,0h62V316H505Zm-63,0h62V316H442Zm-63,0h62V316H379Zm-63,0h62V316H316Zm-63,0h62V316H253Zm-63,0h62V316H190Zm-63,0h62V316H127Zm-63,0h62V316H64ZM1,378H63V316H1Zm1575-63h62V253h-62Zm-63,0h62V253h-62Zm-63,0h62V253h-62Zm-63,0h62V253h-62Zm-63,0h62V253h-62Zm-63,0h62V253h-62Zm-63,0h62V253h-62Zm-63,0h62V253h-62Zm-63,0h62V253h-62Zm-63,0h62V253h-62Zm-63,0h62V253H946Zm-63,0h62V253H883Zm-63,0h62V253H820Zm-63,0h62V253H757Zm-63,0h62V253H694Zm-63,0h62V253H631Zm-63,0h62V253H568Zm-63,0h62V253H505Zm-63,0h62V253H442Zm-63,0h62V253H379Zm-63,0h62V253H316Zm-63,0h62V253H253Zm-63,0h62V253H190Zm-63,0h62V253H127Zm-63,0h62V253H64ZM1,315H63V253H1Zm1575-63h62V190h-62Zm-63,0h62V190h-62Zm-63,0h62V190h-62Zm-63,0h62V190h-62Zm-63,0h62V190h-62Zm-63,0h62V190h-62Zm-63,0h62V190h-62Zm-63,0h62V190h-62Zm-63,0h62V190h-62Zm-63,0h62V190h-62Zm-63,0h62V190H946Zm-63,0h62V190H883Zm-63,0h62V190H820Zm-63,0h62V190H757Zm-63,0h62V190H694Zm-63,0h62V190H631Zm-63,0h62V190H568Zm-63,0h62V190H505Zm-63,0h62V190H442Zm-63,0h62V190H379Zm-63,0h62V190H316Zm-63,0h62V190H253Zm-63,0h62V190H190Zm-63,0h62V190H127Zm-63,0h62V190H64ZM1,252H63V190H1Zm1575-63h62V127h-62Zm-63,0h62V127h-62Zm-63,0h62V127h-62Zm-63,0h62V127h-62Zm-63,0h62V127h-62Zm-63,0h62V127h-62Zm-63,0h62V127h-62Zm-63,0h62V127h-62Zm-63,0h62V127h-62Zm-63,0h62V127h-62Zm-63,0h62V127H946Zm-63,0h62V127H883Zm-63,0h62V127H820Zm-63,0h62V127H757Zm-63,0h62V127H694Zm-63,0h62V127H631Zm-63,0h62V127H568Zm-63,0h62V127H505Zm-63,0h62V127H442Zm-63,0h62V127H379Zm-63,0h62V127H316Zm-63,0h62V127H253Zm-63,0h62V127H190Zm-63,0h62V127H127Zm-63,0h62V127H64ZM1,189H63V127H1Zm1575-63h62V64h-62Zm-63,0h62V64h-62Zm-63,0h62V64h-62Zm-63,0h62V64h-62Zm-63,0h62V64h-62Zm-63,0h62V64h-62Zm-63,0h62V64h-62Zm-63,0h62V64h-62Zm-63,0h62V64h-62Zm-63,0h62V64h-62Zm-63,0h62V64H946Zm-63,0h62V64H883Zm-63,0h62V64H820Zm-63,0h62V64H757Zm-63,0h62V64H694Zm-63,0h62V64H631Zm-63,0h62V64H568Zm-63,0h62V64H505Zm-63,0h62V64H442Zm-63,0h62V64H379Zm-63,0h62V64H316Zm-63,0h62V64H253Zm-63,0h62V64H190Zm-63,0h62V64H127Zm-63,0h62V64H64ZM1,126H63V64H1ZM1576,63h62V1h-62Zm-63,0h62V1h-62Zm-63,0h62V1h-62Zm-63,0h62V1h-62Zm-63,0h62V1h-62Zm-63,0h62V1h-62Zm-63,0h62V1h-62Zm-63,0h62V1h-62Zm-63,0h62V1h-62Zm-63,0h62V1h-62Zm-63,0h62V1H946Zm-63,0h62V1H883Zm-63,0h62V1H820Zm-63,0h62V1H757Zm-63,0h62V1H694Zm-63,0h62V1H631Zm-63,0h62V1H568Zm-63,0h62V1H505Zm-63,0h62V1H442Zm-63,0h62V1H379Zm-63,0h62V1H316Zm-63,0h62V1H253Zm-63,0h62V1H190Zm-63,0h62V1H127ZM64,63h62V1H64ZM1,63H63V1H1Z" transform="translate(-220 -141)" fill="url(#a)"/><g transform="translate(465.707 271.281)"><g transform="translate(175.18 9.248)"><path d="M1099.148,459.275h-22.8a2.561,2.561,0,0,1,0-5.122h22.8a2.561,2.561,0,0,1,0,5.122Z" transform="translate(-1073.522 -453.891)" fill="#fff"/><path d="M1099.273,459.661h-22.8a2.823,2.823,0,1,1,0-5.646h22.8a2.823,2.823,0,0,1,0,5.646Zm-22.8-5.12a2.3,2.3,0,1,0,0,4.594h22.8a2.3,2.3,0,0,0,0-4.594Z" transform="translate(-1073.647 -454.015)" fill="#fff"/></g><g transform="translate(0 9.242)"><path d="M984.729,500.047h0a3.155,3.155,0,0,1-3.156-3.154V457.3a3.155,3.155,0,0,1,3.156-3.154h0a3.154,3.154,0,0,1,3.153,3.154v39.589A3.154,3.154,0,0,1,984.729,500.047Z" transform="translate(-981.311 -453.887)" fill="#fff"/><path d="M984.853,500.434a3.422,3.422,0,0,1-3.418-3.418V457.43a3.417,3.417,0,1,1,6.834,0v39.587A3.421,3.421,0,0,1,984.853,500.434Zm0-45.9a2.9,2.9,0,0,0-2.891,2.891v39.587a2.891,2.891,0,1,0,5.781,0V457.43A2.894,2.894,0,0,0,984.853,454.538Z" transform="translate(-981.435 -454.012)" fill="#fff"/></g><g transform="translate(30.97 23.684)"><path d="M1001.03,493.207h0a3.153,3.153,0,0,1-3.154-3.154V464.907a3.153,3.153,0,0,1,3.154-3.154h0a3.153,3.153,0,0,1,3.154,3.154v25.147A3.153,3.153,0,0,1,1001.03,493.207Z" transform="translate(-997.612 -461.489)" fill="#fff"/><path d="M1001.155,493.594a3.422,3.422,0,0,1-3.418-3.418V465.032a3.418,3.418,0,0,1,6.835,0v25.145A3.422,3.422,0,0,1,1001.155,493.594Zm0-31.452a2.894,2.894,0,0,0-2.892,2.889v25.145a2.891,2.891,0,1,0,5.783,0V465.032A2.893,2.893,0,0,0,1001.155,462.142Z" transform="translate(-997.737 -461.614)" fill="#fff"/></g><g transform="translate(62.511 32.271)"><path d="M1017.634,489.14h0a3.154,3.154,0,0,1-3.155-3.154v-16.56a3.154,3.154,0,0,1,3.155-3.154h0a3.153,3.153,0,0,1,3.154,3.154v16.56A3.153,3.153,0,0,1,1017.634,489.14Z" transform="translate(-1014.216 -466.009)" fill="#fff"/><path d="M1017.758,489.528a3.423,3.423,0,0,1-3.418-3.418V469.552a3.418,3.418,0,1,1,6.835,0V486.11A3.423,3.423,0,0,1,1017.758,489.528Zm0-22.867a2.9,2.9,0,0,0-2.892,2.891V486.11a2.89,2.89,0,1,0,5.781,0V469.552A2.893,2.893,0,0,0,1017.758,466.66Z" transform="translate(-1014.34 -466.134)" fill="#fff"/></g><g transform="translate(116.238 9.242)"><path d="M1045.914,500.047h0a3.153,3.153,0,0,1-3.154-3.154V457.3a3.153,3.153,0,0,1,3.154-3.154h0a3.153,3.153,0,0,1,3.154,3.154v39.589A3.153,3.153,0,0,1,1045.914,500.047Z" transform="translate(-1042.496 -453.887)" fill="#fff"/><path d="M1046.039,500.434a3.422,3.422,0,0,1-3.418-3.418V457.43a3.418,3.418,0,1,1,6.835,0v39.587A3.423,3.423,0,0,1,1046.039,500.434Zm0-45.9a2.894,2.894,0,0,0-2.89,2.891v39.587a2.89,2.89,0,1,0,5.781,0V457.43A2.9,2.9,0,0,0,1046.039,454.538Z" transform="translate(-1042.621 -454.012)" fill="#fff"/></g><g transform="translate(260.72 9.242)"><path d="M1121.967,500.047h0a3.153,3.153,0,0,1-3.153-3.154V457.3a3.153,3.153,0,0,1,3.153-3.154h0a3.153,3.153,0,0,1,3.154,3.154v39.589A3.153,3.153,0,0,1,1121.967,500.047Z" transform="translate(-1118.549 -453.887)" fill="#fff"/><path d="M1122.092,500.434a3.423,3.423,0,0,1-3.418-3.418V457.43a3.418,3.418,0,1,1,6.835,0v39.587A3.423,3.423,0,0,1,1122.092,500.434Zm0-45.9a2.9,2.9,0,0,0-2.891,2.891v39.587a2.89,2.89,0,1,0,5.781,0V457.43A2.894,2.894,0,0,0,1122.092,454.538Z" transform="translate(-1118.674 -454.012)" fill="#fff"/></g><g transform="translate(131.715 42.228)"><path d="M1057.215,474.668a3.155,3.155,0,1,1-3.154-3.154A3.153,3.153,0,0,1,1057.215,474.668Z" transform="translate(-1050.644 -471.25)" fill="#fff"/><path d="M1054.186,478.21a3.418,3.418,0,1,1,3.415-3.418A3.423,3.423,0,0,1,1054.186,478.21Zm0-6.309a2.891,2.891,0,1,0,2.89,2.892A2.9,2.9,0,0,0,1054.186,471.9Z" transform="translate(-1050.768 -471.375)" fill="#fff"/></g><g transform="translate(163.188 14.003)"><path d="M1073.781,459.81a3.154,3.154,0,1,1-3.154-3.154A3.155,3.155,0,0,1,1073.781,459.81Z" transform="translate(-1067.21 -456.394)" fill="#fff"/><path d="M1070.753,463.352a3.417,3.417,0,1,1,3.418-3.418A3.423,3.423,0,0,1,1070.753,463.352Zm0-6.307a2.89,2.89,0,1,0,2.892,2.89A2.893,2.893,0,0,0,1070.753,457.044Z" transform="translate(-1067.335 -456.518)" fill="#fff"/></g><g transform="translate(243.419 41.629)"><path d="M1116.014,474.352a3.155,3.155,0,1,1-3.153-3.154A3.156,3.156,0,0,1,1116.014,474.352Z" transform="translate(-1109.443 -470.936)" fill="#fff"/><path d="M1112.983,477.893a3.417,3.417,0,1,1,3.418-3.418A3.421,3.421,0,0,1,1112.983,477.893Zm0-6.307a2.891,2.891,0,1,0,2.892,2.89A2.894,2.894,0,0,0,1112.983,471.586Z" transform="translate(-1109.567 -471.06)" fill="#fff"/></g><g transform="translate(277.572 8.828)"><path d="M1133.992,457.087a3.154,3.154,0,1,1-3.154-3.154A3.153,3.153,0,0,1,1133.992,457.087Z" transform="translate(-1127.42 -453.669)" fill="#fff"/><path d="M1130.963,460.629a3.418,3.418,0,1,1,3.417-3.418A3.424,3.424,0,0,1,1130.963,460.629Zm0-6.309a2.891,2.891,0,1,0,2.89,2.891A2.894,2.894,0,0,0,1130.963,454.32Z" transform="translate(-1127.545 -453.794)" fill="#fff"/></g><g transform="translate(182.156 0)"><path d="M1095.087,505.358h-1.452a16.2,16.2,0,0,1-16.178-16.176V452.439a3.154,3.154,0,0,1,6.309,0v36.743a9.881,9.881,0,0,0,9.869,9.869h1.452a3.154,3.154,0,0,1,0,6.307Z" transform="translate(-1077.195 -449.023)" fill="#fff"/><path d="M1095.213,505.746h-1.453a16.459,16.459,0,0,1-16.441-16.44V452.563a3.417,3.417,0,0,1,6.834,0v36.743a9.617,9.617,0,0,0,9.607,9.605h1.453a3.418,3.418,0,0,1,0,6.835Zm-14.478-56.073a2.893,2.893,0,0,0-2.89,2.89v36.743a15.932,15.932,0,0,0,15.914,15.914h1.453a2.891,2.891,0,0,0,0-5.783h-1.453a10.142,10.142,0,0,1-10.133-10.131V452.563A2.893,2.893,0,0,0,1080.735,449.673Z" transform="translate(-1077.319 -449.147)" fill="#fff"/></g><g transform="translate(116.238 29.927)"><path d="M1042.889,467.415c0-.862-.053-1.691-.129-2.5v5.044C1042.836,469.132,1042.889,468.293,1042.889,467.415Z" transform="translate(-1042.496 -464.888)" fill="#fff"/><path d="M1043.147,469.993l-.526-.025v-5.044l.526-.025c.089.952.132,1.755.132,2.529S1043.236,469.025,1043.147,469.993Z" transform="translate(-1042.621 -464.9)" fill="#fff"/></g><g transform="translate(77.031 8.359)"><path d="M1045.027,495.889c-10.036,0-16.594-6.953-16.594-18.373,0-11.3,6.558-18.253,16.435-18.253,9.155,0,15.534,6,16.463,15.751v-9.86c-2.908-7.641-9.811-11.469-17.626-11.469-11.321,0-21.583,7.69-21.583,23.83,0,16.262,10.307,23.992,21.7,23.992v0c7.736,0,14.682-3.872,17.509-11.425V480.058C1060.407,489.89,1054.1,495.889,1045.027,495.889Z" transform="translate(-1021.859 -453.422)" fill="#fff"/><path d="M1043.944,501.9l-.262,0c-10.07-.11-21.7-6.5-21.7-24.252,0-7.589,2.291-13.866,6.624-18.156a21.373,21.373,0,0,1,15.221-5.941c8.416,0,15.1,4.352,17.871,11.64l.019.093v9.86l-.527.025c-.912-9.567-7.12-15.512-16.2-15.512-9.823,0-16.171,7.061-16.171,17.991,0,11.169,6.258,18.109,16.332,18.109,8.99,0,15.139-5.975,16.041-15.591l.527.023-.017,10.12C1058.983,497.564,1052.345,501.9,1043.944,501.9Zm-.116-47.826c-9.835,0-21.319,6.172-21.319,23.57,0,17.514,11.547,23.728,21.435,23.728l.264,0c8.028-.089,14.362-4.265,16.982-11.212V483.44c-1.889,8-7.81,12.839-16.04,12.839-10.4,0-16.858-7.141-16.858-18.635,0-11.248,6.554-18.519,16.7-18.519,8.319,0,14.3,4.823,16.2,12.8v-6.594C1058.489,458.279,1052,454.073,1043.828,454.073Z" transform="translate(-1021.983 -453.547)" fill="#fff"/></g><g transform="translate(52.565 8.359)"><path d="M1009.1,453.686h0Z" transform="translate(-1009.105 -453.422)" fill="#fff"/><path d="M1009.109,454.074l0-.527h0Z" transform="translate(-1009.104 -453.547)" fill="#fff"/></g><g transform="translate(6.307 8.359)"><path d="M1047.405,477.86c0-16.418-4.48-24.174-16.515-24.174-8.919,0-14.793,4.778-16.849,12.219-2.3-8.359-6.332-12.1-14.7-12.1a14.392,14.392,0,0,0-14.444,10.869v14.484c0-13.207,3.778-19.689,12.937-19.689,8.95,0,11.714,5.711,11.714,18.9v15.5h6.309V478.237c0-12.993,3.7-18.886,12.9-18.886,9.035,0,12.343,5.88,12.343,18.9v15.614h6.309Z" transform="translate(-984.63 -453.422)" fill="#fff"/><path d="M1047.794,494.251h-6.835v-15.88c0-13.234-3.5-18.631-12.081-18.631-8.857,0-12.637,5.566-12.637,18.62v15.891h-6.833V478.489c0-13.583-3.1-18.633-11.454-18.633-8.765,0-12.673,5.992-12.673,19.425h-.526V464.8c1.723-6.786,7.493-11.133,14.708-11.133,7.947,0,12.259,3.328,14.71,11.435,2.382-7.356,8.473-11.552,16.843-11.552,11.759,0,16.778,7.31,16.778,24.438Zm-6.309-.528h5.781V477.986c0-16.984-4.708-23.912-16.25-23.912-8.437,0-14.484,4.385-16.6,12.027l-.251.919-.253-.919c-2.359-8.57-6.412-11.908-14.453-11.908-6.967,0-12.537,4.187-14.189,10.669l0,6.888c1.358-8.53,5.42-12.421,12.677-12.421,8.733,0,11.98,5.192,11.98,19.159v15.234h5.781V478.36c0-13.42,3.936-19.148,13.163-19.148,8.955,0,12.607,5.551,12.607,19.159Z" transform="translate(-984.755 -453.547)" fill="#fff"/></g><g transform="translate(131.987 8.443)"><path d="M1058.88,466.3c0-4.463,4.751-7.126,11.908-7.126,4.755,0,9.695,1.919,11.833,4.837l5.449-3.184h0c-2.713-4.086-10.726-7.084-17.36-7.1-10.16-.023-18.055,4.913-18.055,12.8,0,17.512,31.659,8.834,31.659,20.914,0,5.065-4.922,8.165-12.967,8.165-5.814,0-11.3-1.97-14.678-6.419l-5.564,2.969c3.359,5.69,11.987,9.069,20.245,9.069,11.44,0,19.321-5.583,19.321-13.916C1090.67,469.392,1058.88,478.318,1058.88,466.3Z" transform="translate(-1050.738 -453.467)" fill="#fff"/><path d="M1071.523,501.619c-8.855,0-17.275-3.782-20.472-9.2l-.141-.235,6.005-3.2.135.179c3.093,4.073,8.232,6.315,14.469,6.315,7.836,0,12.706-3.028,12.706-7.9,0-5.262-6.22-6.415-13.423-7.749-8.547-1.584-18.238-3.382-18.238-13.165a11.032,11.032,0,0,1,3.339-7.943c3.266-3.256,8.693-5.122,14.906-5.122h.072c7.063.017,14.949,3.254,17.583,7.219l.153.232-.241.139-5.653,3.306-.139-.19c-2.042-2.787-6.823-4.732-11.624-4.732-7.181,0-11.642,2.629-11.642,6.864,0,5.188,6.166,6.3,13.31,7.6,8.663,1.567,18.48,3.344,18.48,13.416C1091.108,495.919,1083.237,501.619,1071.523,501.619Zm-19.877-9.233c3.213,5.139,11.328,8.707,19.877,8.707,11.4,0,19.056-5.487,19.056-13.654,0-9.635-9.588-11.368-18.046-12.9-7.067-1.278-13.743-2.483-13.743-8.112,0-4.559,4.664-7.39,12.168-7.39,4.852,0,9.7,1.947,11.906,4.757l5-2.924c-2.7-3.729-10.219-6.738-16.988-6.754h-.074c-6.072,0-11.365,1.809-14.531,4.968a10.5,10.5,0,0,0-3.184,7.57c0,9.349,9.05,11.026,17.806,12.647,7.124,1.32,13.853,2.568,13.853,8.268,0,5.2-5.071,8.429-13.232,8.429-6.315,0-11.543-2.251-14.751-6.347Z" transform="translate(-1050.911 -453.591)" fill="#fff"/></g><g transform="translate(245.551 28.093)"><path d="M1110.693,464.073h0Z" transform="translate(-1110.689 -463.81)" fill="#fff"/><path d="M1110.693,464.462h0v-.527Z" transform="translate(-1110.69 -463.935)" fill="#fff"/></g><g transform="translate(206.472 8.361)"><path d="M1133.25,491.359l-4.172-1.913-1.776-.114c-2,4.3-7.352,6.482-13.665,6.482-10.393,0-16.9-6.429-17.069-17.122h35.85a2.483,2.483,0,0,0,2.785-2.783c-.262-13.352-8.769-22.221-22.091-22.221-13.534,0-22.854,9.71-22.854,23.832,0,14.364,9.2,23.832,23.293,23.832l0,0C1122.394,501.348,1129.456,497.991,1133.25,491.359ZM1113.2,459.008c9.4,0,15.346,5.621,15.876,14.41h-32.265C1097.925,464.322,1104.231,459.008,1113.2,459.008Z" transform="translate(-1089.994 -453.423)" fill="#fff"/><path d="M1113.676,501.741c-14.309,0-23.557-9.457-23.557-24.1,0-14.186,9.506-24.1,23.118-24.1,13.31,0,22.083,8.824,22.353,22.482a2.967,2.967,0,0,1-.747,2.232,3.087,3.087,0,0,1-2.3.819h-35.578c.27,10.4,6.531,16.6,16.8,16.6,6.568,0,11.585-2.365,13.428-6.33l.075-.161,2.048.146,4.434,2.035-.142.249c-3.647,6.376-10.485,9.953-19.3,10.114l.006.008Zm-.439-47.667c-13.3,0-22.59,9.692-22.59,23.57,0,14.2,8.895,23.424,22.694,23.568l.33,0c8.805,0,15.656-3.408,19.33-9.607l-3.866-1.772-1.548-.1c-1.989,4.058-7.139,6.472-13.827,6.472-10.519,0-17.16-6.66-17.331-17.381l0-.268h36.114a2.582,2.582,0,0,0,1.928-.661,2.466,2.466,0,0,0,.595-1.852C1134.8,462.7,1126.236,454.074,1113.237,454.074Zm15.965,19.733h-32.567l.036-.294c1.125-9.168,7.35-14.641,16.65-14.641,9.411,0,15.6,5.617,16.138,14.656l-.258.015Zm-31.971-.526h31.686c-.636-8.572-6.588-13.883-15.6-13.883C1104.413,459.4,1098.419,464.58,1097.232,473.281Z" transform="translate(-1090.12 -453.548)" fill="#fff"/></g><g transform="translate(267.027 8.789)"><path d="M1135.832,453.951c-8-.5-12.052,4-13.7,8.817v13.783c0-10.585,4.037-16.889,13.271-16.321l1.717-4.022Z" transform="translate(-1121.869 -453.648)" fill="#fff"/><path d="M1122.522,476.676h-.528l.015-13.868c1.235-3.606,4.674-9.588,13.965-8.993l.141.008,1.425,2.494-1.841,4.312-.184-.011c-3.71-.226-6.664.674-8.794,2.675C1123.934,465.914,1122.522,470.417,1122.522,476.676Zm0-13.737v7.73a14.028,14.028,0,0,1,3.837-7.758c2.206-2.075,5.221-3.034,9-2.827l1.59-3.733-1.154-2.021C1126.992,453.818,1123.712,459.485,1122.522,462.939Z" transform="translate(-1121.994 -453.773)" fill="#fff"/></g></g><g transform="translate(755.859 279.702)"><path d="M1198.316,399.887c.27-10.42,6.546-16.63,16.833-16.63,6.581,0,11.61,2.37,13.455,6.343l.023.051a3.416,3.416,0,0,0,6.7-.939,3.328,3.328,0,0,0-.2-1.114l.05-.023-.145-.249-.008-.011a3.4,3.4,0,0,0-.63-.939c-3.777-5.774-10.333-9.033-18.7-9.185l.006-.008-.632,0c-14.338,0-23.6,9.478-23.6,24.145v0c0,14.667,9.264,24.144,23.6,24.144l.632,0-.006-.008c8.37-.152,14.926-3.411,18.7-9.185a3.393,3.393,0,0,0,.63-.938l.008-.012.145-.249-.05-.021a3.346,3.346,0,0,0,.2-1.114,3.416,3.416,0,0,0-6.7-.938l-.023.049c-1.845,3.973-6.874,6.343-13.455,6.343-10.287,0-16.563-6.21-16.833-16.63Z" transform="translate(-1191.461 -377.181)" fill="#f9e0ac"/><g transform="translate(92.951 33.936)"><path d="M1246.749,398.307a3.16,3.16,0,1,1-3.161-3.16A3.16,3.16,0,0,1,1246.749,398.307Z" transform="translate(-1240.164 -394.882)" fill="#f9e0ac"/><path d="M1243.715,401.857a3.425,3.425,0,1,1,3.425-3.425A3.431,3.431,0,0,1,1243.715,401.857Zm0-6.322a2.9,2.9,0,1,0,2.9,2.9A2.9,2.9,0,0,0,1243.715,395.535Z" transform="translate(-1240.29 -395.008)" fill="#f9e0ac"/></g><g transform="translate(124.49 5.654)"><path d="M1263.316,383.451a3.16,3.16,0,1,1-3.16-3.162A3.161,3.161,0,0,1,1263.316,383.451Z" transform="translate(-1256.734 -380.026)" fill="#f9e0ac"/><path d="M1260.281,387a3.424,3.424,0,1,1,3.424-3.423A3.428,3.428,0,0,1,1260.281,387Zm0-6.32a2.9,2.9,0,1,0,2.9,2.9A2.9,2.9,0,0,0,1260.281,380.678Z" transform="translate(-1256.858 -380.151)" fill="#f9e0ac"/></g><g transform="translate(93.225 0.082)"><path d="M1248.419,389.961c0-4.47,4.759-7.14,11.93-7.14,4.764,0,9.714,1.923,11.859,4.847l5.459-3.19h0c-2.72-4.095-10.748-7.1-17.4-7.114-10.181-.025-18.09,4.921-18.09,12.827,0,17.547,31.722,8.852,31.722,20.957,0,5.075-4.932,8.182-12.992,8.182-5.825,0-11.325-1.974-14.709-6.432l-5.576,2.975c3.368,5.7,12.012,9.088,20.287,9.088,11.464,0,19.36-5.595,19.36-13.944C1280.272,393.056,1248.419,402,1248.419,389.961Z" transform="translate(-1240.26 -377.099)" fill="#f9e0ac"/><path d="M1261.086,425.349c-8.873,0-17.307-3.79-20.513-9.219l-.139-.236,6.015-3.21.135.179c3.1,4.081,8.248,6.328,14.5,6.328,7.852,0,12.731-3.034,12.731-7.919,0-5.273-6.233-6.428-13.451-7.765-8.564-1.588-18.273-3.388-18.273-13.192a11.047,11.047,0,0,1,3.347-7.959c3.27-3.263,8.711-5.132,14.934-5.132h.072c7.078.017,14.982,3.261,17.618,7.234l.154.232-.242.139-5.663,3.312-.139-.19c-2.048-2.793-6.838-4.742-11.65-4.742-7.2,0-11.663,2.635-11.663,6.878,0,5.2,6.179,6.316,13.335,7.611,8.68,1.57,18.518,3.35,18.518,13.443C1280.711,419.638,1272.824,425.349,1261.086,425.349Zm-19.917-9.252c3.219,5.149,11.351,8.724,19.917,8.724,11.422,0,19.1-5.5,19.1-13.681,0-9.655-9.607-11.391-18.082-12.925-7.084-1.281-13.773-2.488-13.773-8.129,0-4.569,4.673-7.4,12.192-7.4,4.862,0,9.718,1.953,11.93,4.767l5.014-2.93c-2.7-3.737-10.24-6.752-17.022-6.767h-.074c-6.084,0-11.387,1.812-14.561,4.98a10.515,10.515,0,0,0-3.19,7.584c0,9.368,9.071,11.048,17.842,12.672,7.139,1.323,13.881,2.574,13.881,8.284,0,5.21-5.081,8.446-13.259,8.446-6.328,0-11.566-2.256-14.78-6.36Z" transform="translate(-1240.434 -377.224)" fill="#f9e0ac"/></g><g transform="translate(49.062 33.936)"><path d="M1223.693,398.307a3.16,3.16,0,1,1-3.16-3.16A3.16,3.16,0,0,1,1223.693,398.307Z" transform="translate(-1217.108 -394.882)" fill="#f9e0ac"/><path d="M1220.659,401.857a3.425,3.425,0,1,1,3.425-3.425A3.431,3.431,0,0,1,1220.659,401.857Zm0-6.322a2.9,2.9,0,1,0,2.9,2.9A2.9,2.9,0,0,0,1220.659,395.535Z" transform="translate(-1217.234 -395.008)" fill="#f9e0ac"/></g><g transform="translate(80.599 5.654)"><path d="M1240.26,383.451a3.16,3.16,0,1,1-3.16-3.162A3.161,3.161,0,0,1,1240.26,383.451Z" transform="translate(-1233.675 -380.026)" fill="#f9e0ac"/><path d="M1237.225,387a3.424,3.424,0,1,1,3.425-3.423A3.429,3.429,0,0,1,1237.225,387Zm0-6.32a2.9,2.9,0,1,0,2.9,2.9A2.9,2.9,0,0,0,1237.225,380.678Z" transform="translate(-1233.801 -380.151)" fill="#f9e0ac"/></g><g transform="translate(49.336 0.082)"><path d="M1225.363,389.961c0-4.47,4.759-7.14,11.93-7.14,4.765,0,9.714,1.923,11.859,4.847l5.459-3.19h0c-2.72-4.095-10.75-7.1-17.4-7.114-10.18-.025-18.092,4.921-18.092,12.827,0,17.547,31.724,8.852,31.724,20.957,0,5.075-4.932,8.182-12.994,8.182-5.825,0-11.323-1.974-14.707-6.432l-5.576,2.975c3.366,5.7,12.012,9.088,20.287,9.088,11.464,0,19.359-5.595,19.359-13.944C1257.216,393.056,1225.363,402,1225.363,389.961Z" transform="translate(-1217.205 -377.099)" fill="#f9e0ac"/><path d="M1238.03,425.349c-8.873,0-17.309-3.79-20.513-9.219l-.139-.236,6.015-3.21.136.179c3.1,4.081,8.248,6.328,14.5,6.328,7.852,0,12.731-3.034,12.731-7.919,0-5.273-6.232-6.428-13.45-7.765-8.564-1.588-18.273-3.388-18.273-13.192a11.045,11.045,0,0,1,3.347-7.959c3.27-3.263,8.711-5.132,14.934-5.132h.073c7.077.017,14.979,3.261,17.618,7.234l.154.232-.242.139-5.663,3.312-.141-.19c-2.046-2.793-6.836-4.742-11.648-4.742-7.2,0-11.666,2.635-11.666,6.878,0,5.2,6.179,6.316,13.337,7.611,8.681,1.57,18.519,3.35,18.519,13.443C1257.655,419.638,1249.768,425.349,1238.03,425.349Zm-19.917-9.252c3.219,5.149,11.351,8.724,19.917,8.724,11.422,0,19.1-5.5,19.1-13.681,0-9.655-9.606-11.391-18.082-12.925-7.082-1.281-13.771-2.488-13.771-8.129,0-4.569,4.673-7.4,12.193-7.4,4.862,0,9.718,1.953,11.93,4.767l5.014-2.93c-2.7-3.737-10.24-6.752-17.022-6.767h-.075c-6.083,0-11.387,1.812-14.56,4.98a10.515,10.515,0,0,0-3.191,7.584c0,9.368,9.071,11.048,17.843,12.672,7.138,1.323,13.881,2.574,13.881,8.284,0,5.21-5.081,8.446-13.258,8.446-6.328,0-11.566-2.256-14.78-6.36Z" transform="translate(-1217.378 -377.224)" fill="#f9e0ac"/></g></g><g transform="translate(310.639 265.658)"><path d="M600.954,178.694c-3.309-5.857-6.093-6.727-8.807-6.727-3.984,0-6.753,3.684-8.524,6.953l-7.068,14.514,1.925,3.158a26.366,26.366,0,0,0,35.477,11.132l1.837-.958Z" transform="translate(-489.283 -142.012)" fill="url(#b)"/><path d="M531.006,178.694c3.309-5.857,6.093-6.727,8.808-6.727,3.983,0,6.752,3.684,8.522,6.953l7.068,14.514-1.925,3.158A26.367,26.367,0,0,1,518,207.723l-1.837-.958Z" transform="translate(-516.166 -142.012)" fill="url(#c)"/><path d="M606.79,159.144c-5.153-10.4-20.622-10.631-25.866-.157l-7.619,14.592-7.621-14.592c-5.242-10.473-20.711-10.238-25.866.157l-9.912,19.179c4.706-5.341,11.3-2.194,14.174,3.242l10.691,19.679,5.469,10.457a14.494,14.494,0,0,0,6.227,6.336,15.129,15.129,0,0,0,13.674,0,14.5,14.5,0,0,0,6.226-6.336l5.469-10.457,10.691-19.679c2.872-5.435,9.469-8.583,14.174-3.242Z" transform="translate(-510.048 -151.239)" fill="url(#d)"/></g></g></svg>