<svg xmlns="http://www.w3.org/2000/svg" xmlns:xlink="http://www.w3.org/1999/xlink" viewBox="0 0 65 65" fill="#fff" fill-rule="evenodd" stroke="#000" stroke-linecap="round" stroke-linejoin="round"><use xlink:href="#A" x=".5" y=".5"/><symbol id="A" overflow="visible"><g stroke="none"><path d="M52.345 31.916c0 4.03-1.17 7.895-3.178 11.087l8.196 8.23c4.014-5.375 6.523-12.094 6.523-19.318s-2.5-13.942-6.523-19.318l-8.196 8.23c2.007 3.192 3.178 6.887 3.178 11.087z" fill="#b8d3f4"/><path d="M31.947 52.4c-11.207 0-20.406-9.24-20.406-20.493s9.2-20.493 20.406-20.493c4.182 0 7.86 1.176 11.04 3.36l8.196-8.23C45.83 2.52 39.14 0 31.947 0 14.383 0 0 14.278 0 32.084S14.383 64 31.947 64c7.36 0 14.05-2.52 19.403-6.55l-8.196-8.23c-3.178 2.016-7.025 3.192-11.207 3.192z" fill="#3385ff"/></g></symbol></svg>