<svg xmlns="http://www.w3.org/2000/svg" xmlns:xlink="http://www.w3.org/1999/xlink" width="1200" height="600" viewBox="0 0 1200 600"><defs><radialGradient id="a" cx="0.692" cy="0.5" r="0.422" gradientUnits="objectBoundingBox"><stop offset="0" stop-color="#e0e2e6"/><stop offset="1" stop-color="#e0e2e6" stop-opacity="0"/></radialGradient><linearGradient id="b" x1="0.5" y1="-0.791" x2="0.5" y2="1.002" gradientUnits="objectBoundingBox"><stop offset="0" stop-color="#d99c3b"/><stop offset="0.323" stop-color="#fcd27c"/><stop offset="1" stop-color="#fde5b1"/></linearGradient><linearGradient id="c" x1="1" y1="0.5" x2="0" y2="1" gradientUnits="objectBoundingBox"><stop offset="0" stop-color="#fcd27c"/><stop offset="0.547" stop-color="#ffe7b3"/><stop offset="1" stop-color="#ffe7b3"/></linearGradient><linearGradient id="d" x1="0.5" y1="-0.019" x2="0.5" y2="1" gradientUnits="objectBoundingBox"><stop offset="0" stop-color="#ffe7b3"/><stop offset="0.232" stop-color="#fddf9f"/><stop offset="0.443" stop-color="#f8d48b"/><stop offset="0.64" stop-color="#f5cb7d"/><stop offset="0.931" stop-color="#edc072"/><stop offset="1" stop-color="#e6bb65"/></linearGradient><linearGradient id="e" x1="0" y1="0.5" x2="1" xlink:href="#c"/><clipPath id="g"><rect width="1200" height="600"/></clipPath></defs><g id="f" clip-path="url(#g)"><rect width="1200" height="600" fill="#fff"/><g transform="translate(-220 -141)"><path d="M1575,883H0V0H1639V883Zm1-1h62V820h-62Zm-63,0h62V820h-62Zm-63,0h62V820h-62Zm-63,0h62V820h-62Zm-63,0h62V820h-62Zm-63,0h62V820h-62Zm-63,0h62V820h-62Zm-63,0h62V820h-62Zm-63,0h62V820h-62Zm-63,0h62V820h-62Zm-63,0h62V820H946Zm-63,0h62V820H883Zm-63,0h62V820H820Zm-63,0h62V820H757Zm-63,0h62V820H694Zm-63,0h62V820H631Zm-63,0h62V820H568Zm-63,0h62V820H505Zm-63,0h62V820H442Zm-63,0h62V820H379Zm-63,0h62V820H316Zm-63,0h62V820H253Zm-63,0h62V820H190Zm-63,0h62V820H127Zm-63,0h62V820H64ZM1,882H63V820H1Zm1575-63h62V757h-62Zm-63,0h62V757h-62Zm-63,0h62V757h-62Zm-63,0h62V757h-62Zm-63,0h62V757h-62Zm-63,0h62V757h-62Zm-63,0h62V757h-62Zm-63,0h62V757h-62Zm-63,0h62V757h-62Zm-63,0h62V757h-62Zm-63,0h62V757H946Zm-63,0h62V757H883Zm-63,0h62V757H820Zm-63,0h62V757H757Zm-63,0h62V757H694Zm-63,0h62V757H631Zm-63,0h62V757H568Zm-63,0h62V757H505Zm-63,0h62V757H442Zm-63,0h62V757H379Zm-63,0h62V757H316Zm-63,0h62V757H253Zm-63,0h62V757H190Zm-63,0h62V757H127Zm-63,0h62V757H64ZM1,819H63V757H1Zm1575-63h62V694h-62Zm-63,0h62V694h-62Zm-63,0h62V694h-62Zm-63,0h62V694h-62Zm-63,0h62V694h-62Zm-63,0h62V694h-62Zm-63,0h62V694h-62Zm-63,0h62V694h-62Zm-63,0h62V694h-62Zm-63,0h62V694h-62Zm-63,0h62V694H946Zm-63,0h62V694H883Zm-63,0h62V694H820Zm-63,0h62V694H757Zm-63,0h62V694H694Zm-63,0h62V694H631Zm-63,0h62V694H568Zm-63,0h62V694H505Zm-63,0h62V694H442Zm-63,0h62V694H379Zm-63,0h62V694H316Zm-63,0h62V694H253Zm-63,0h62V694H190Zm-63,0h62V694H127Zm-63,0h62V694H64ZM1,756H63V694H1Zm1575-63h62V631h-62Zm-63,0h62V631h-62Zm-63,0h62V631h-62Zm-63,0h62V631h-62Zm-63,0h62V631h-62Zm-63,0h62V631h-62Zm-63,0h62V631h-62Zm-63,0h62V631h-62Zm-63,0h62V631h-62Zm-63,0h62V631h-62Zm-63,0h62V631H946Zm-63,0h62V631H883Zm-63,0h62V631H820Zm-63,0h62V631H757Zm-63,0h62V631H694Zm-63,0h62V631H631Zm-63,0h62V631H568Zm-63,0h62V631H505Zm-63,0h62V631H442Zm-63,0h62V631H379Zm-63,0h62V631H316Zm-63,0h62V631H253Zm-63,0h62V631H190Zm-63,0h62V631H127Zm-63,0h62V631H64ZM1,693H63V631H1Zm1575-63h62V568h-62Zm-63,0h62V568h-62Zm-63,0h62V568h-62Zm-63,0h62V568h-62Zm-63,0h62V568h-62Zm-63,0h62V568h-62Zm-63,0h62V568h-62Zm-63,0h62V568h-62Zm-63,0h62V568h-62Zm-63,0h62V568h-62Zm-63,0h62V568H946Zm-63,0h62V568H883Zm-63,0h62V568H820Zm-63,0h62V568H757Zm-63,0h62V568H694Zm-63,0h62V568H631Zm-63,0h62V568H568Zm-63,0h62V568H505Zm-63,0h62V568H442Zm-63,0h62V568H379Zm-63,0h62V568H316Zm-63,0h62V568H253Zm-63,0h62V568H190Zm-63,0h62V568H127Zm-63,0h62V568H64ZM1,630H63V568H1Zm1575-63h62V505h-62Zm-63,0h62V505h-62Zm-63,0h62V505h-62Zm-63,0h62V505h-62Zm-63,0h62V505h-62Zm-63,0h62V505h-62Zm-63,0h62V505h-62Zm-63,0h62V505h-62Zm-63,0h62V505h-62Zm-63,0h62V505h-62Zm-63,0h62V505H946Zm-63,0h62V505H883Zm-63,0h62V505H820Zm-63,0h62V505H757Zm-63,0h62V505H694Zm-63,0h62V505H631Zm-63,0h62V505H568Zm-63,0h62V505H505Zm-63,0h62V505H442Zm-63,0h62V505H379Zm-63,0h62V505H316Zm-63,0h62V505H253Zm-63,0h62V505H190Zm-63,0h62V505H127Zm-63,0h62V505H64ZM1,567H63V505H1Zm1575-63h62V442h-62Zm-63,0h62V442h-62Zm-63,0h62V442h-62Zm-63,0h62V442h-62Zm-63,0h62V442h-62Zm-63,0h62V442h-62Zm-63,0h62V442h-62Zm-63,0h62V442h-62Zm-63,0h62V442h-62Zm-63,0h62V442h-62Zm-63,0h62V442H946Zm-63,0h62V442H883Zm-63,0h62V442H820Zm-63,0h62V442H757Zm-63,0h62V442H694Zm-63,0h62V442H631Zm-63,0h62V442H568Zm-63,0h62V442H505Zm-63,0h62V442H442Zm-63,0h62V442H379Zm-63,0h62V442H316Zm-63,0h62V442H253Zm-63,0h62V442H190Zm-63,0h62V442H127Zm-63,0h62V442H64ZM1,504H63V442H1Zm1575-63h62V379h-62Zm-63,0h62V379h-62Zm-63,0h62V379h-62Zm-63,0h62V379h-62Zm-63,0h62V379h-62Zm-63,0h62V379h-62Zm-63,0h62V379h-62Zm-63,0h62V379h-62Zm-63,0h62V379h-62Zm-63,0h62V379h-62Zm-63,0h62V379H946Zm-63,0h62V379H883Zm-63,0h62V379H820Zm-63,0h62V379H757Zm-63,0h62V379H694Zm-63,0h62V379H631Zm-63,0h62V379H568Zm-63,0h62V379H505Zm-63,0h62V379H442Zm-63,0h62V379H379Zm-63,0h62V379H316Zm-63,0h62V379H253Zm-63,0h62V379H190Zm-63,0h62V379H127Zm-63,0h62V379H64ZM1,441H63V379H1Zm1575-63h62V316h-62Zm-63,0h62V316h-62Zm-63,0h62V316h-62Zm-63,0h62V316h-62Zm-63,0h62V316h-62Zm-63,0h62V316h-62Zm-63,0h62V316h-62Zm-63,0h62V316h-62Zm-63,0h62V316h-62Zm-63,0h62V316h-62Zm-63,0h62V316H946Zm-63,0h62V316H883Zm-63,0h62V316H820Zm-63,0h62V316H757Zm-63,0h62V316H694Zm-63,0h62V316H631Zm-63,0h62V316H568Zm-63,0h62V316H505Zm-63,0h62V316H442Zm-63,0h62V316H379Zm-63,0h62V316H316Zm-63,0h62V316H253Zm-63,0h62V316H190Zm-63,0h62V316H127Zm-63,0h62V316H64ZM1,378H63V316H1Zm1575-63h62V253h-62Zm-63,0h62V253h-62Zm-63,0h62V253h-62Zm-63,0h62V253h-62Zm-63,0h62V253h-62Zm-63,0h62V253h-62Zm-63,0h62V253h-62Zm-63,0h62V253h-62Zm-63,0h62V253h-62Zm-63,0h62V253h-62Zm-63,0h62V253H946Zm-63,0h62V253H883Zm-63,0h62V253H820Zm-63,0h62V253H757Zm-63,0h62V253H694Zm-63,0h62V253H631Zm-63,0h62V253H568Zm-63,0h62V253H505Zm-63,0h62V253H442Zm-63,0h62V253H379Zm-63,0h62V253H316Zm-63,0h62V253H253Zm-63,0h62V253H190Zm-63,0h62V253H127Zm-63,0h62V253H64ZM1,315H63V253H1Zm1575-63h62V190h-62Zm-63,0h62V190h-62Zm-63,0h62V190h-62Zm-63,0h62V190h-62Zm-63,0h62V190h-62Zm-63,0h62V190h-62Zm-63,0h62V190h-62Zm-63,0h62V190h-62Zm-63,0h62V190h-62Zm-63,0h62V190h-62Zm-63,0h62V190H946Zm-63,0h62V190H883Zm-63,0h62V190H820Zm-63,0h62V190H757Zm-63,0h62V190H694Zm-63,0h62V190H631Zm-63,0h62V190H568Zm-63,0h62V190H505Zm-63,0h62V190H442Zm-63,0h62V190H379Zm-63,0h62V190H316Zm-63,0h62V190H253Zm-63,0h62V190H190Zm-63,0h62V190H127Zm-63,0h62V190H64ZM1,252H63V190H1Zm1575-63h62V127h-62Zm-63,0h62V127h-62Zm-63,0h62V127h-62Zm-63,0h62V127h-62Zm-63,0h62V127h-62Zm-63,0h62V127h-62Zm-63,0h62V127h-62Zm-63,0h62V127h-62Zm-63,0h62V127h-62Zm-63,0h62V127h-62Zm-63,0h62V127H946Zm-63,0h62V127H883Zm-63,0h62V127H820Zm-63,0h62V127H757Zm-63,0h62V127H694Zm-63,0h62V127H631Zm-63,0h62V127H568Zm-63,0h62V127H505Zm-63,0h62V127H442Zm-63,0h62V127H379Zm-63,0h62V127H316Zm-63,0h62V127H253Zm-63,0h62V127H190Zm-63,0h62V127H127Zm-63,0h62V127H64ZM1,189H63V127H1Zm1575-63h62V64h-62Zm-63,0h62V64h-62Zm-63,0h62V64h-62Zm-63,0h62V64h-62Zm-63,0h62V64h-62Zm-63,0h62V64h-62Zm-63,0h62V64h-62Zm-63,0h62V64h-62Zm-63,0h62V64h-62Zm-63,0h62V64h-62Zm-63,0h62V64H946Zm-63,0h62V64H883Zm-63,0h62V64H820Zm-63,0h62V64H757Zm-63,0h62V64H694Zm-63,0h62V64H631Zm-63,0h62V64H568Zm-63,0h62V64H505Zm-63,0h62V64H442Zm-63,0h62V64H379Zm-63,0h62V64H316Zm-63,0h62V64H253Zm-63,0h62V64H190Zm-63,0h62V64H127Zm-63,0h62V64H64ZM1,126H63V64H1ZM1576,63h62V1h-62Zm-63,0h62V1h-62Zm-63,0h62V1h-62Zm-63,0h62V1h-62Zm-63,0h62V1h-62Zm-63,0h62V1h-62Zm-63,0h62V1h-62Zm-63,0h62V1h-62Zm-63,0h62V1h-62Zm-63,0h62V1h-62Zm-63,0h62V1H946Zm-63,0h62V1H883Zm-63,0h62V1H820Zm-63,0h62V1H757Zm-63,0h62V1H694Zm-63,0h62V1H631Zm-63,0h62V1H568Zm-63,0h62V1H505Zm-63,0h62V1H442Zm-63,0h62V1H379Zm-63,0h62V1H316Zm-63,0h62V1H253Zm-63,0h62V1H190Zm-63,0h62V1H127ZM64,63h62V1H64ZM1,63H63V1H1Z" fill="url(#a)"/><g transform="translate(-14.535 -17.227)"><g transform="translate(421.157 262.94)"><g transform="translate(0 0)"><g transform="translate(93.481 4.935)"><path d="M1087.32,456.886h-12.167a1.367,1.367,0,0,1,0-2.733h12.167a1.367,1.367,0,0,1,0,2.733Z" transform="translate(-1073.645 -454.013)" fill="#24262d"/><path d="M1087.322,457.028h-12.167a1.506,1.506,0,1,1,0-3.013h12.167a1.506,1.506,0,0,1,0,3.013Zm-12.167-2.732a1.226,1.226,0,1,0,0,2.451h12.167a1.226,1.226,0,0,0,0-2.451Z" transform="translate(-1073.647 -454.015)" fill="#24262d"/></g><g transform="translate(0 4.932)"><path d="M983.257,478.642h0a1.684,1.684,0,0,1-1.684-1.683V455.834a1.684,1.684,0,0,1,1.684-1.683h0a1.683,1.683,0,0,1,1.683,1.683V476.96A1.683,1.683,0,0,1,983.257,478.642Z" transform="translate(-981.433 -454.01)" fill="#24262d"/><path d="M983.259,478.784a1.826,1.826,0,0,1-1.824-1.824V455.836a1.823,1.823,0,1,1,3.647,0v21.125A1.826,1.826,0,0,1,983.259,478.784Zm0-24.491a1.545,1.545,0,0,0-1.543,1.543v21.125a1.542,1.542,0,1,0,3.085,0V455.836A1.544,1.544,0,0,0,983.259,454.293Z" transform="translate(-981.435 -454.012)" fill="#24262d"/></g><g transform="translate(16.526 12.639)"><path d="M999.559,478.538h0a1.683,1.683,0,0,1-1.683-1.683V463.436a1.683,1.683,0,0,1,1.683-1.683h0a1.683,1.683,0,0,1,1.683,1.683v13.419A1.683,1.683,0,0,1,999.559,478.538Z" transform="translate(-997.735 -461.612)" fill="#24262d"/><path d="M999.561,478.68a1.826,1.826,0,0,1-1.824-1.824V463.438a1.824,1.824,0,0,1,3.648,0v13.418A1.826,1.826,0,0,1,999.561,478.68Zm0-16.784a1.544,1.544,0,0,0-1.543,1.542v13.418a1.543,1.543,0,1,0,3.086,0V463.438A1.544,1.544,0,0,0,999.561,461.9Z" transform="translate(-997.737 -461.614)" fill="#24262d"/></g><g transform="translate(33.358 17.221)"><path d="M1016.162,478.476h0a1.683,1.683,0,0,1-1.684-1.683v-8.837a1.683,1.683,0,0,1,1.684-1.683h0a1.683,1.683,0,0,1,1.683,1.683v8.837A1.683,1.683,0,0,1,1016.162,478.476Z" transform="translate(-1014.338 -466.132)" fill="#24262d"/><path d="M1016.164,478.618a1.827,1.827,0,0,1-1.824-1.824v-8.836a1.824,1.824,0,0,1,3.648,0v8.836A1.827,1.827,0,0,1,1016.164,478.618Zm0-12.2a1.545,1.545,0,0,0-1.543,1.543v8.836a1.542,1.542,0,1,0,3.085,0v-8.836A1.544,1.544,0,0,0,1016.164,466.415Z" transform="translate(-1014.34 -466.134)" fill="#24262d"/></g><g transform="translate(62.028 4.932)"><path d="M1044.443,478.642h0a1.683,1.683,0,0,1-1.683-1.683V455.834a1.683,1.683,0,0,1,1.683-1.683h0a1.683,1.683,0,0,1,1.683,1.683V476.96A1.683,1.683,0,0,1,1044.443,478.642Z" transform="translate(-1042.619 -454.01)" fill="#24262d"/><path d="M1044.445,478.784a1.826,1.826,0,0,1-1.824-1.824V455.836a1.824,1.824,0,1,1,3.647,0v21.125A1.826,1.826,0,0,1,1044.445,478.784Zm0-24.491a1.544,1.544,0,0,0-1.542,1.543v21.125a1.542,1.542,0,1,0,3.085,0V455.836A1.545,1.545,0,0,0,1044.445,454.293Z" transform="translate(-1042.621 -454.012)" fill="#24262d"/></g><g transform="translate(139.127 4.932)"><path d="M1120.5,478.642h0a1.682,1.682,0,0,1-1.683-1.683V455.834a1.682,1.682,0,0,1,1.683-1.683h0a1.683,1.683,0,0,1,1.683,1.683V476.96A1.683,1.683,0,0,1,1120.5,478.642Z" transform="translate(-1118.672 -454.01)" fill="#24262d"/><path d="M1120.5,478.784a1.826,1.826,0,0,1-1.824-1.824V455.836a1.824,1.824,0,1,1,3.647,0v21.125A1.826,1.826,0,0,1,1120.5,478.784Zm0-24.491a1.545,1.545,0,0,0-1.543,1.543v21.125a1.542,1.542,0,1,0,3.085,0V455.836A1.544,1.544,0,0,0,1120.5,454.293Z" transform="translate(-1118.674 -454.012)" fill="#24262d"/></g><g transform="translate(70.287 22.534)"><path d="M1054.273,473.2a1.683,1.683,0,1,1-1.683-1.683A1.683,1.683,0,0,1,1054.273,473.2Z" transform="translate(-1050.766 -471.373)" fill="#24262d"/><path d="M1052.592,475.023a1.824,1.824,0,1,1,1.823-1.824A1.826,1.826,0,0,1,1052.592,475.023Zm0-3.367a1.542,1.542,0,1,0,1.542,1.543A1.545,1.545,0,0,0,1052.592,471.656Z" transform="translate(-1050.768 -471.375)" fill="#24262d"/></g><g transform="translate(87.082 7.472)"><path d="M1070.84,458.339a1.683,1.683,0,1,1-1.683-1.683A1.683,1.683,0,0,1,1070.84,458.339Z" transform="translate(-1067.333 -456.516)" fill="#24262d"/><path d="M1069.159,460.165a1.823,1.823,0,1,1,1.824-1.824A1.826,1.826,0,0,1,1069.159,460.165Zm0-3.366a1.542,1.542,0,1,0,1.543,1.542A1.544,1.544,0,0,0,1069.159,456.8Z" transform="translate(-1067.335 -456.518)" fill="#24262d"/></g><g transform="translate(129.895 22.215)"><path d="M1113.072,472.881a1.683,1.683,0,1,1-1.683-1.683A1.684,1.684,0,0,1,1113.072,472.881Z" transform="translate(-1109.565 -471.058)" fill="#24262d"/><path d="M1111.39,474.707a1.823,1.823,0,1,1,1.824-1.824A1.825,1.825,0,0,1,1111.39,474.707Zm0-3.366a1.542,1.542,0,1,0,1.543,1.542A1.545,1.545,0,0,0,1111.39,471.341Z" transform="translate(-1109.567 -471.06)" fill="#24262d"/></g><g transform="translate(148.12 4.711)"><path d="M1131.05,455.616a1.683,1.683,0,1,1-1.683-1.683A1.683,1.683,0,0,1,1131.05,455.616Z" transform="translate(-1127.543 -453.792)" fill="#24262d"/><path d="M1129.369,457.442a1.824,1.824,0,1,1,1.824-1.824A1.827,1.827,0,0,1,1129.369,457.442Zm0-3.367a1.542,1.542,0,1,0,1.542,1.543A1.544,1.544,0,0,0,1129.369,454.075Z" transform="translate(-1127.546 -453.794)" fill="#24262d"/></g><g transform="translate(97.203 0)"><path d="M1086.865,479.207h-.775a8.643,8.643,0,0,1-8.633-8.632V450.968a1.683,1.683,0,0,1,3.367,0v19.607a5.273,5.273,0,0,0,5.266,5.266h.775a1.683,1.683,0,0,1,0,3.366Z" transform="translate(-1077.317 -449.145)" fill="#24262d"/><path d="M1086.868,479.35h-.776a8.783,8.783,0,0,1-8.773-8.773V450.97a1.823,1.823,0,0,1,3.647,0v19.607a5.132,5.132,0,0,0,5.126,5.126h.776a1.824,1.824,0,0,1,0,3.648Zm-7.726-29.922a1.544,1.544,0,0,0-1.542,1.542v19.607a8.5,8.5,0,0,0,8.492,8.492h.776a1.543,1.543,0,0,0,0-3.086h-.776a5.412,5.412,0,0,1-5.407-5.406V450.97A1.544,1.544,0,0,0,1079.142,449.428Z" transform="translate(-1077.319 -449.147)" fill="#24262d"/></g><g transform="translate(62.028 15.97)"><path d="M1042.829,466.248c0-.46-.028-.9-.069-1.335V467.6C1042.8,467.165,1042.829,466.717,1042.829,466.248Z" transform="translate(-1042.619 -464.9)" fill="#24262d"/><path d="M1042.9,467.618l-.281-.013v-2.692l.281-.013c.048.508.07.937.07,1.349S1042.95,467.1,1042.9,467.618Z" transform="translate(-1042.621 -464.9)" fill="#24262d"/></g><g transform="translate(41.106 4.461)"><path d="M1034.344,476.207c-5.356,0-8.855-3.71-8.855-9.8,0-6.029,3.5-9.74,8.77-9.74,4.885,0,8.289,3.2,8.785,8.405v-5.261c-1.552-4.077-5.235-6.12-9.406-6.12-6.041,0-11.518,4.1-11.518,12.717,0,8.678,5.5,12.8,11.58,12.8h0c4.128,0,7.834-2.066,9.343-6.1v-5.351C1042.552,473.005,1039.188,476.207,1034.344,476.207Z" transform="translate(-1021.981 -453.545)" fill="#24262d"/><path d="M1033.7,479.349l-.14,0c-5.374-.059-11.579-3.471-11.579-12.942,0-4.05,1.222-7.4,3.535-9.688a11.405,11.405,0,0,1,8.122-3.17c4.491,0,8.057,2.322,9.536,6.211l.01.05v5.261l-.281.013c-.487-5.105-3.8-8.277-8.646-8.277-5.242,0-8.629,3.768-8.629,9.6,0,5.96,3.339,9.663,8.715,9.663,4.8,0,8.079-3.188,8.56-8.32l.281.012-.009,5.4C1041.727,477.036,1038.185,479.349,1033.7,479.349Zm-.062-25.521c-5.248,0-11.376,3.294-11.376,12.578,0,9.346,6.162,12.662,11.438,12.662h.141a9.329,9.329,0,0,0,9.062-5.983V469.5a8.376,8.376,0,0,1-8.559,6.851c-5.549,0-9-3.811-9-9.944,0-6,3.5-9.882,8.91-9.882a8.432,8.432,0,0,1,8.646,6.829v-3.519C1041.463,456.072,1038,453.828,1033.64,453.828Z" transform="translate(-1021.983 -453.547)" fill="#24262d"/></g><g transform="translate(28.05 4.46)"><path d="M1009.1,453.686h0Z" transform="translate(-1009.105 -453.545)" fill="#24262d"/><path d="M1009.107,453.828l0-.281h0Z" transform="translate(-1009.105 -453.547)" fill="#24262d"/></g><g transform="translate(3.366 4.461)"><path d="M1018.252,466.586c0-8.761-2.39-12.9-8.813-12.9-4.76,0-7.894,2.55-8.991,6.521-1.228-4.461-3.379-6.458-7.846-6.458a7.68,7.68,0,0,0-7.708,5.8v7.729c0-7.048,2.016-10.507,6.9-10.507,4.776,0,6.251,3.047,6.251,10.084v8.27h3.367v-8.338c0-6.933,1.973-10.078,6.883-10.078,4.821,0,6.586,3.138,6.586,10.084v8.332h3.367Z" transform="translate(-984.753 -453.545)" fill="#24262d"/><path d="M1018.395,475.268h-3.647v-8.474c0-7.062-1.867-9.942-6.447-9.942-4.726,0-6.744,2.97-6.744,9.936v8.48h-3.646v-8.411c0-7.248-1.657-9.943-6.112-9.943-4.677,0-6.763,3.2-6.763,10.366h-.281v-7.729a7.809,7.809,0,0,1,7.849-5.941c4.241,0,6.542,1.776,7.85,6.1,1.271-3.925,4.521-6.165,8.988-6.165,6.275,0,8.953,3.9,8.953,13.041Zm-3.367-.282h3.085v-8.4c0-9.063-2.512-12.76-8.672-12.76-4.5,0-7.729,2.34-8.856,6.418l-.134.491-.135-.491c-1.259-4.573-3.422-6.354-7.713-6.354a7.531,7.531,0,0,0-7.572,5.693l0,3.676c.725-4.552,2.892-6.628,6.765-6.628,4.66,0,6.393,2.771,6.393,10.224v8.129h3.085v-8.2c0-7.161,2.1-10.218,7.024-10.218,4.779,0,6.727,2.962,6.727,10.224Z" transform="translate(-984.755 -453.547)" fill="#24262d"/></g><g transform="translate(70.432 4.505)"><path d="M1055.253,460.439c0-2.381,2.535-3.8,6.354-3.8,2.537,0,5.173,1.024,6.315,2.581l2.907-1.7h0c-1.448-2.181-5.724-3.78-9.264-3.789-5.422-.012-9.635,2.622-9.635,6.832,0,9.345,16.894,4.714,16.894,11.161,0,2.7-2.627,4.357-6.92,4.357a9.537,9.537,0,0,1-7.832-3.425l-2.969,1.585c1.792,3.036,6.4,4.84,10.8,4.84,6.1,0,10.31-2.979,10.31-7.426C1072.218,462.087,1055.253,466.85,1055.253,460.439Z" transform="translate(-1050.909 -453.589)" fill="#24262d"/><path d="M1061.91,479.22c-4.725,0-9.218-2.018-10.924-4.91l-.075-.126,3.2-1.709.072.1a9.354,9.354,0,0,0,7.721,3.37c4.182,0,6.78-1.616,6.78-4.217,0-2.808-3.319-3.423-7.163-4.135-4.561-.846-9.732-1.8-9.732-7.025a5.887,5.887,0,0,1,1.782-4.239c1.743-1.738,4.639-2.733,7.954-2.733h.038c3.769.009,7.977,1.737,9.383,3.852l.082.124-.129.074-3.017,1.764-.074-.1c-1.09-1.487-3.641-2.525-6.2-2.525-3.832,0-6.212,1.4-6.212,3.663,0,2.769,3.291,3.364,7.1,4.053,4.623.836,9.862,1.784,9.862,7.159C1072.361,476.179,1068.161,479.22,1061.91,479.22Zm-10.607-4.927c1.714,2.742,6.045,4.646,10.607,4.646,6.083,0,10.169-2.928,10.169-7.286,0-5.142-5.116-6.066-9.63-6.883-3.771-.682-7.333-1.325-7.333-4.329,0-2.433,2.489-3.944,6.493-3.944,2.589,0,5.175,1.039,6.353,2.538l2.67-1.56c-1.439-1.99-5.453-3.6-9.065-3.6h-.039c-3.24,0-6.064.965-7.754,2.651a5.6,5.6,0,0,0-1.7,4.04c0,4.989,4.829,5.884,9.5,6.749,3.8.7,7.392,1.371,7.392,4.412,0,2.775-2.706,4.5-7.061,4.5a9.664,9.664,0,0,1-7.872-3.387Z" transform="translate(-1050.911 -453.591)" fill="#24262d"/></g><g transform="translate(131.033 14.991)"><path d="M1110.692,464.073h0Z" transform="translate(-1110.69 -463.933)" fill="#24262d"/><path d="M1110.692,464.216h0v-.281Z" transform="translate(-1110.69 -463.935)" fill="#24262d"/></g><g transform="translate(110.179 4.462)"><path d="M1113.2,473.79l-2.226-1.021-.948-.061c-1.068,2.3-3.923,3.459-7.292,3.459-5.546,0-9.017-3.431-9.108-9.137h19.13a1.325,1.325,0,0,0,1.486-1.485c-.14-7.125-4.68-11.858-11.788-11.858-7.222,0-12.2,5.181-12.2,12.718,0,7.665,4.907,12.718,12.43,12.718l0,0C1107.407,479.12,1111.175,477.329,1113.2,473.79Zm-10.7-17.263c5.018,0,8.189,3,8.472,7.689h-17.218C1094.35,459.362,1097.714,456.527,1102.5,456.527Z" transform="translate(-1090.117 -453.546)" fill="#24262d"/><path d="M1102.69,479.265c-7.636,0-12.57-5.047-12.57-12.859,0-7.57,5.073-12.859,12.336-12.859,7.1,0,11.784,4.709,11.928,12a1.583,1.583,0,0,1-.4,1.191,1.647,1.647,0,0,1-1.229.437h-18.986c.144,5.549,3.485,8.856,8.964,8.856,3.5,0,6.182-1.262,7.165-3.378l.04-.086,1.093.078,2.366,1.086-.076.133c-1.946,3.4-5.595,5.311-10.3,5.4l0,0Zm-.234-25.436c-7.1,0-12.054,5.172-12.054,12.578,0,7.58,4.746,12.5,12.11,12.577h.176c4.7,0,8.354-1.819,10.315-5.127l-2.063-.946-.826-.054c-1.061,2.165-3.81,3.454-7.378,3.454-5.613,0-9.157-3.554-9.248-9.275l0-.143h19.272a1.377,1.377,0,0,0,1.029-.353,1.316,1.316,0,0,0,.317-.988C1113.964,458.429,1109.392,453.829,1102.456,453.829Zm8.52,10.53H1093.6l.019-.157c.6-4.892,3.922-7.813,8.885-7.813,5.022,0,8.322,3,8.612,7.821l-.138.008Zm-17.06-.281h16.908c-.34-4.574-3.516-7.409-8.323-7.409C1097.747,456.669,1094.549,459.435,1093.915,464.078Z" transform="translate(-1090.12 -453.548)" fill="#24262d"/></g><g transform="translate(142.493 4.69)"><path d="M1129.443,453.933a6.7,6.7,0,0,0-7.31,4.7v7.355c0-5.649,2.154-9.012,7.082-8.709l.916-2.146Z" transform="translate(-1121.992 -453.771)" fill="#24262d"/><path d="M1122.276,465.995h-.282l.008-7.4c.659-1.924,2.494-5.116,7.452-4.8l.075,0,.76,1.331-.982,2.3-.1-.006a6.035,6.035,0,0,0-4.693,1.427C1123.029,460.252,1122.276,462.655,1122.276,465.995Zm0-7.331v4.125a7.487,7.487,0,0,1,2.048-4.14,6.221,6.221,0,0,1,4.8-1.508l.849-1.992-.615-1.079A6.525,6.525,0,0,0,1122.276,458.664Z" transform="translate(-1121.994 -453.773)" fill="#24262d"/></g></g><g transform="translate(154.834 4.493)"><path d="M1195.119,389.3c.144-5.561,3.493-8.874,8.983-8.874,3.511,0,6.2,1.265,7.18,3.385l.012.027a1.823,1.823,0,0,0,3.577-.5,1.776,1.776,0,0,0-.109-.594l.027-.012-.077-.133,0-.006a1.809,1.809,0,0,0-.336-.5c-2.016-3.081-5.514-4.82-9.98-4.9l0,0-.337,0c-7.651,0-12.595,5.058-12.595,12.885h0c0,7.827,4.944,12.884,12.595,12.884l.337,0,0,0c4.467-.081,7.965-1.82,9.98-4.9a1.809,1.809,0,0,0,.336-.5l0-.006.077-.133-.027-.011a1.786,1.786,0,0,0,.109-.594,1.823,1.823,0,0,0-3.577-.5l-.012.026c-.984,2.12-3.668,3.385-7.18,3.385-5.49,0-8.839-3.314-8.983-8.874Z" transform="translate(-1191.461 -377.181)" fill="#e6bb65"/><g transform="translate(49.601 18.109)"><path d="M1243.8,396.833a1.686,1.686,0,1,1-1.687-1.686A1.686,1.686,0,0,1,1243.8,396.833Z" transform="translate(-1240.288 -395.006)" fill="#e6bb65"/><path d="M1242.117,398.663a1.827,1.827,0,1,1,1.828-1.827A1.831,1.831,0,0,1,1242.117,398.663Zm0-3.374a1.546,1.546,0,1,0,1.546,1.546A1.547,1.547,0,0,0,1242.117,395.289Z" transform="translate(-1240.29 -395.008)" fill="#e6bb65"/></g><g transform="translate(66.431 3.017)"><path d="M1260.369,381.976a1.686,1.686,0,1,1-1.686-1.687A1.687,1.687,0,0,1,1260.369,381.976Z" transform="translate(-1256.856 -380.149)" fill="#e6bb65"/><path d="M1258.684,383.8a1.827,1.827,0,1,1,1.827-1.826A1.829,1.829,0,0,1,1258.684,383.8Zm0-3.372a1.546,1.546,0,1,0,1.546,1.546A1.548,1.548,0,0,0,1258.684,380.432Z" transform="translate(-1256.858 -380.151)" fill="#e6bb65"/></g><g transform="translate(49.748 0.044)"><path d="M1244.785,384.086c0-2.385,2.54-3.81,6.366-3.81,2.542,0,5.183,1.026,6.328,2.586l2.913-1.7h0c-1.451-2.185-5.735-3.788-9.283-3.8-5.433-.013-9.653,2.626-9.653,6.845,0,9.364,16.927,4.724,16.927,11.183,0,2.708-2.632,4.366-6.933,4.366a9.558,9.558,0,0,1-7.849-3.432l-2.975,1.588c1.8,3.043,6.41,4.849,10.826,4.849,6.117,0,10.331-2.985,10.331-7.441C1261.782,385.737,1244.785,390.51,1244.785,384.086Z" transform="translate(-1240.431 -377.222)" fill="#e6bb65"/><path d="M1251.455,402.9c-4.735,0-9.236-2.022-10.947-4.92l-.074-.126,3.21-1.713.072.1a9.372,9.372,0,0,0,7.736,3.377c4.19,0,6.794-1.619,6.794-4.226,0-2.814-3.326-3.43-7.178-4.143-4.57-.847-9.751-1.808-9.751-7.04a5.9,5.9,0,0,1,1.786-4.247c1.745-1.741,4.648-2.739,7.969-2.739h.038c3.777.009,7.995,1.74,9.4,3.86l.083.124-.129.074-3.022,1.768-.074-.1c-1.093-1.49-3.649-2.53-6.217-2.53-3.84,0-6.224,1.406-6.224,3.67,0,2.774,3.3,3.371,7.116,4.061,4.632.838,9.882,1.788,9.882,7.174C1261.927,399.857,1257.718,402.9,1251.455,402.9Zm-10.629-4.937c1.718,2.748,6.057,4.656,10.629,4.656,6.095,0,10.19-2.934,10.19-7.3,0-5.152-5.127-6.079-9.649-6.9-3.78-.684-7.349-1.328-7.349-4.338,0-2.438,2.494-3.952,6.506-3.952,2.594,0,5.186,1.042,6.366,2.544l2.676-1.563c-1.442-1.994-5.464-3.6-9.084-3.611h-.039c-3.247,0-6.077.967-7.77,2.657a5.611,5.611,0,0,0-1.7,4.047c0,5,4.84,5.9,9.521,6.762,3.81.706,7.408,1.373,7.408,4.421,0,2.78-2.711,4.507-7.075,4.507a9.681,9.681,0,0,1-7.887-3.394Z" transform="translate(-1240.434 -377.224)" fill="#e6bb65"/></g><g transform="translate(26.181 18.109)"><path d="M1220.745,396.833a1.686,1.686,0,1,1-1.686-1.686A1.686,1.686,0,0,1,1220.745,396.833Z" transform="translate(-1217.232 -395.006)" fill="#e6bb65"/><path d="M1219.061,398.663a1.827,1.827,0,1,1,1.827-1.827A1.831,1.831,0,0,1,1219.061,398.663Zm0-3.374a1.546,1.546,0,1,0,1.545,1.546A1.548,1.548,0,0,0,1219.061,395.289Z" transform="translate(-1217.234 -395.008)" fill="#e6bb65"/></g><g transform="translate(43.01 3.017)"><path d="M1237.313,381.976a1.686,1.686,0,1,1-1.686-1.687A1.687,1.687,0,0,1,1237.313,381.976Z" transform="translate(-1233.799 -380.149)" fill="#e6bb65"/><path d="M1235.628,383.8a1.827,1.827,0,1,1,1.828-1.826A1.83,1.83,0,0,1,1235.628,383.8Zm0-3.372a1.546,1.546,0,1,0,1.546,1.546A1.547,1.547,0,0,0,1235.628,380.432Z" transform="translate(-1233.801 -380.151)" fill="#e6bb65"/></g><g transform="translate(26.327 0.044)"><path d="M1221.729,384.086c0-2.385,2.54-3.81,6.366-3.81,2.542,0,5.184,1.026,6.328,2.586l2.913-1.7h0c-1.452-2.185-5.736-3.788-9.284-3.8-5.433-.013-9.654,2.626-9.654,6.845,0,9.364,16.929,4.724,16.929,11.183,0,2.708-2.632,4.366-6.934,4.366a9.557,9.557,0,0,1-7.848-3.432l-2.975,1.588c1.8,3.043,6.41,4.849,10.826,4.849,6.117,0,10.331-2.985,10.331-7.441C1238.726,385.737,1221.729,390.51,1221.729,384.086Z" transform="translate(-1217.375 -377.222)" fill="#e6bb65"/><path d="M1228.4,402.9c-4.735,0-9.237-2.022-10.946-4.92l-.074-.126,3.21-1.713.072.1a9.372,9.372,0,0,0,7.736,3.377c4.19,0,6.794-1.619,6.794-4.226,0-2.814-3.326-3.43-7.177-4.143-4.57-.847-9.751-1.808-9.751-7.04a5.894,5.894,0,0,1,1.786-4.247c1.745-1.741,4.648-2.739,7.969-2.739h.039c3.777.009,7.994,1.74,9.4,3.86l.082.124-.129.074-3.022,1.768-.075-.1c-1.092-1.49-3.648-2.53-6.216-2.53-3.84,0-6.225,1.406-6.225,3.67,0,2.774,3.3,3.371,7.117,4.061,4.632.838,9.882,1.788,9.882,7.174C1238.871,399.857,1234.662,402.9,1228.4,402.9Zm-10.628-4.937c1.717,2.748,6.057,4.656,10.628,4.656,6.095,0,10.19-2.934,10.19-7.3,0-5.152-5.126-6.079-9.649-6.9-3.779-.684-7.349-1.328-7.349-4.338,0-2.438,2.494-3.952,6.506-3.952,2.594,0,5.186,1.042,6.366,2.544l2.676-1.563c-1.442-1.994-5.464-3.6-9.083-3.611h-.04c-3.246,0-6.076.967-7.77,2.657a5.611,5.611,0,0,0-1.7,4.047c0,5,4.841,5.9,9.521,6.762,3.809.706,7.407,1.373,7.407,4.421,0,2.78-2.711,4.507-7.075,4.507a9.681,9.681,0,0,1-7.887-3.394Z" transform="translate(-1217.378 -377.224)" fill="#e6bb65"/></g></g></g><g transform="translate(334.674 258.363)"><path d="M618.754,209.39Z" transform="translate(-546.152 -172.229)" fill="url(#b)"/><path d="M524.683,175.828c1.9-3.361,3.5-3.861,5.055-3.861,2.286,0,3.875,2.114,4.891,3.99l4.056,8.329-1.1,1.812a15.131,15.131,0,0,1-20.36,6.388l-1.054-.55Z" transform="translate(-516.166 -154.776)" fill="url(#c)"/><path d="M574.028,155.776c-2.957-5.965-11.835-6.1-14.844-.09l-4.372,8.374-4.373-8.374c-3.008-6.01-11.885-5.875-14.844.09l-5.688,11.006c2.7-3.065,6.487-1.259,8.134,1.86l6.136,11.293,3.138,6a8.318,8.318,0,0,0,3.574,3.636,8.682,8.682,0,0,0,7.847,0,8.321,8.321,0,0,0,3.573-3.636l3.138-6,6.135-11.293c1.648-3.119,5.434-4.926,8.134-1.86Z" transform="translate(-518.511 -151.239)" fill="url(#d)"/><path d="M530.168,175.828c-1.9-3.361-3.5-3.861-5.055-3.861-2.286,0-3.875,2.114-4.891,3.99l-4.056,8.329,1.1,1.812a15.131,15.131,0,0,0,20.36,6.388l1.054-.55Z" transform="translate(-466.083 -154.776)" fill="url(#e)"/></g></g></g><text transform="translate(100 500)" fill="#dca000" font-size="28" font-family="Inter V" font-weight="600"><tspan x="0" y="0">Layout</tspan></text><text transform="translate(100 278)" fill="#24262d" font-size="64" font-family="Inter V" font-weight="800" letter-spacing="-0.025em"><tspan x="0" y="0">Box Decoration Break</tspan></text><text transform="translate(100 313)" fill="#6c7693" font-size="32" font-family="Inter V" font-weight="500" letter-spacing="-0.015em"><tspan x="0" y="31">Style syntax for setting how an element’s fragments </tspan><tspan x="0" y="87">should be rendered when broken across multiple lines…</tspan></text></g></svg>