<svg xmlns="http://www.w3.org/2000/svg"
    xmlns:xlink="http://www.w3.org/1999/xlink" viewBox="0 0 406 55">
    <defs>
        <linearGradient id="light-a" x1="0.5" y1="-0.791" x2="0.5" y2="1.002" gradientUnits="objectBoundingBox">
            <stop offset="0" stop-color="#d99c3b"/>
            <stop offset="0.323" stop-color="#fcd27c"/>
            <stop offset="1" stop-color="#fde5b1"/>
        </linearGradient>
        <linearGradient id="light-b" x1="1" y1="0.5" x2="0" y2="1" gradientUnits="objectBoundingBox">
            <stop offset="0" stop-color="#fcd27c"/>
            <stop offset="0.547" stop-color="#ffe7b3"/>
            <stop offset="1" stop-color="#ffe7b3"/>
        </linearGradient>
        <linearGradient id="light-c" x1="0.5" y1="-0.019" x2="0.5" y2="1" gradientUnits="objectBoundingBox">
            <stop offset="0" stop-color="#ffe7b3"/>
            <stop offset="0.232" stop-color="#fddf9f"/>
            <stop offset="0.443" stop-color="#f8d48b"/>
            <stop offset="0.64" stop-color="#f5cb7d"/>
            <stop offset="0.931" stop-color="#edc072"/>
            <stop offset="1" stop-color="#e6bb65"/>
        </linearGradient>
        <linearGradient id="light-d" x1="0" y1="0.5" x2="1" xlink:href="#light-b"/>
        <clipPath id="light-f">
            <rect width="406" height="55"/>
        </clipPath>
    </defs>
    <g id="light-e" clip-path="url(#light-f)">
        <g transform="translate(-369.479 -172.603)">
            <g transform="translate(35.64 -85.507)">
                <g transform="translate(334.674 258.363)">
                    <path d="M618.754,209.39Z" transform="translate(-518.378 -158.013)" fill="url(#light-a)"/>
                    <path d="M527.941,177.3c2.626-4.647,4.834-5.337,6.989-5.337,3.16,0,5.357,2.923,6.762,5.516L547.3,189l-1.527,2.505a20.92,20.92,0,0,1-28.148,8.832l-1.457-.76Z" transform="translate(-516.166 -148.2)" fill="url(#light-b)"/>
                    <path d="M590.907,157.511c-4.089-8.248-16.362-8.434-20.522-.125l-6.045,11.577-6.046-11.577c-4.159-8.31-16.432-8.123-20.522.125l-7.865,15.217c3.733-4.238,8.969-1.741,11.246,2.572l8.483,15.613,4.339,8.3a11.5,11.5,0,0,0,4.941,5.027,12,12,0,0,0,10.849,0,11.5,11.5,0,0,0,4.94-5.027l4.339-8.3,8.483-15.613c2.279-4.312,7.513-6.81,11.246-2.572Z" transform="translate(-514.151 -151.239)" fill="url(#light-c)"/>
                    <path d="M535.524,177.3c-2.626-4.647-4.834-5.337-6.989-5.337-3.16,0-5.357,2.923-6.761,5.516L516.166,189l1.527,2.505a20.92,20.92,0,0,0,28.148,8.832l1.458-.76Z" transform="translate(-446.923 -148.2)" fill="url(#light-d)"/>
                </g>
            </g>
            <g transform="translate(492.145 177.603)">
                <path d="M220.617,75.968a2.72,2.72,0,0,0-2.712,2.712v4.957c-2.38-5.243-7.442-8.376-13.77-8.376a16.912,16.912,0,0,0-12.068,4.716c-3.435,3.4-5.258,8.376-5.258,14.4,0,14.071,9.22,19.148,17.2,19.239h.211c6.313,0,11.329-3.1,13.68-8.316v4.791a2.712,2.712,0,1,0,5.424,0v-31.4a2.72,2.72,0,0,0-2.712-2.712ZM205.19,108.736c-7.985,0-12.956-5.5-12.956-14.358s5.032-14.267,12.821-14.267c7.2,0,12.128,4.716,12.851,12.294v3.977c-.723,7.623-5.589,12.354-12.715,12.354Z" transform="translate(-149.284 -68.631)" fill="#24262c"/>
                <path d="M275.787,70.87a2.72,2.72,0,0,0-2.712,2.712V85.875c-2.38-5.243-7.442-8.376-13.77-8.376a16.911,16.911,0,0,0-12.068,4.716c-3.435,3.4-5.258,8.376-5.258,14.4,0,14.071,9.22,19.148,17.2,19.239h.211c6.313,0,11.329-3.1,13.68-8.316v4.791a2.712,2.712,0,1,0,5.424,0V73.612a2.72,2.72,0,0,0-2.712-2.712Zm-15.427,40.1c-7.985,0-12.956-5.5-12.956-14.358s5.032-14.267,12.821-14.267c7.2,0,12.128,4.716,12.851,12.294v3.977C272.352,106.244,267.486,110.975,260.36,110.975Z" transform="translate(-121.337 -70.855)" fill="#24262c"/>
                <path d="M302.581,82.2a16.937,16.937,0,0,0-12.068-4.716c-6.328,0-11.39,3.134-13.77,8.376V73.572a2.712,2.712,0,1,0-5.424,0V112.29a2.712,2.712,0,1,0,5.424,0V107.5c2.35,5.213,7.367,8.331,13.68,8.331h.211c7.985-.09,17.2-5.168,17.2-19.239,0-6.011-1.823-11-5.258-14.4Zm-13.122,28.76c-7.126,0-12.007-4.731-12.715-12.354V94.634c.723-7.578,5.65-12.294,12.851-12.294,7.789,0,12.821,5.6,12.821,14.267S297.459,110.965,289.459,110.965Z" transform="translate(-106.475 -70.86)" fill="#24262c"/>
                <path d="M179.662,91.551c-5.71-1.04-10.651-1.928-10.651-6.071,0-3.39,3.571-5.5,9.311-5.5,3.842,0,7.668,1.552,9.311,3.781l.045.06a2.726,2.726,0,0,0,5.047-1.446,2.682,2.682,0,0,0-.286-1.205h.03l-.121-.2a.264.264,0,0,0-.06-.075,2.209,2.209,0,0,1-.136-.2c-2.275-3.058-8.376-5.5-13.875-5.514h-.06c-4.972,0-9.311,1.492-11.932,4.1a8.832,8.832,0,0,0-2.667,6.358c0,7.834,7.759,9.265,14.6,10.531,5.77,1.07,10.742,1.989,10.742,6.207,0,3.9-3.9,6.328-10.169,6.328-4.987,0-9.1-1.793-11.585-5.047l-.045-.045a2.736,2.736,0,0,0-5.107,1.371,2.669,2.669,0,0,0,.241,1.1h-.015l.105.2a.837.837,0,0,0,.09.121,1.256,1.256,0,0,0,.121.181c2.7,4.173,9.265,7.066,16.18,7.066,9.371,0,15.668-4.565,15.668-11.344,0-8.06-7.864-9.476-14.794-10.742Z" transform="translate(-160.991 -68.667)" fill="#24262c"/>
                <path d="M234.311,75.35A14.548,14.548,0,0,0,221.2,82.506V78.695a2.712,2.712,0,1,0-5.424,0v31.4a2.712,2.712,0,1,0,5.424,0V91.531c.271-3.947,2-11.194,11.239-11.194,12.67,0,12.158,13.047,12.158,15.171h0v14.584a2.712,2.712,0,1,0,5.424,0V95.508c0-10.742-2.712-20.082-15.713-20.158Z" transform="translate(-134.609 -68.586)" fill="#24262c"/>
                <path d="M347.238,94.922l13.77-14.692a2.7,2.7,0,0,0-3.962-3.681L343.532,90.971,330.018,76.549a2.7,2.7,0,0,0-3.962,3.681l13.77,14.692-13.77,14.692a2.685,2.685,0,0,0,.136,3.816,2.743,2.743,0,0,0,1.853.721,2.676,2.676,0,0,0,1.974-.856l13.514-14.422L357.046,113.3a2.676,2.676,0,0,0,1.974.856,2.744,2.744,0,0,0,1.853-.721,2.7,2.7,0,0,0,.135-3.816Z" transform="translate(-79.118 -69.15)" fill="#24262c"/>
                <path d="M316.639,75.27A18.267,18.267,0,0,0,298.38,93.53v1.838a18.26,18.26,0,1,0,36.519,0V93.53A18.267,18.267,0,0,0,316.639,75.27Zm12.836,20.67a12.836,12.836,0,1,1-25.672,0v-3a12.836,12.836,0,1,1,25.672,0Z" transform="translate(-92.767 -68.626)" fill="#24262c"/>
            </g>
        </g>
    </g>
</svg>