<svg xmlns="http://www.w3.org/2000/svg" xmlns:xlink="http://www.w3.org/1999/xlink" width="750" height="400" viewBox="0 0 750 400"><defs><linearGradient id="a" x1="0.5" y1="0.5" x2="1" y2="1" gradientUnits="objectBoundingBox"><stop offset="0" stop-color="#ca1473" stop-opacity="0.2"/><stop offset="1" stop-color="#ca1473" stop-opacity="0"/></linearGradient><linearGradient id="b" x1="0.5" x2="0.5" y2="1" gradientUnits="objectBoundingBox"><stop offset="0" stop-color="#fff" stop-opacity="0.2"/><stop offset="1" stop-color="#fff" stop-opacity="0"/></linearGradient><linearGradient id="c" x1="0.5" x2="0.5" y2="1" gradientUnits="objectBoundingBox"><stop offset="0" stop-color="#1e1e1e"/><stop offset="1" stop-color="#1e1e1e" stop-opacity="0"/></linearGradient><linearGradient id="e" x1="0.5" y1="-1.055" x2="0.5" y2="1.002" gradientUnits="objectBoundingBox"><stop offset="0.32" stop-color="#c8861c"/><stop offset="1" stop-color="#f6db9b"/></linearGradient><linearGradient id="f" x1="21.399" y1="-1.055" x2="21.399" y2="1.002" xlink:href="#e"/><linearGradient id="g" x1="0.156" y1="-0.44" x2="0.754" y2="1.009" gradientUnits="objectBoundingBox"><stop offset="0" stop-color="#fcdd98"/><stop offset="0.23" stop-color="#fada94"/><stop offset="0.41" stop-color="#f6d48b"/><stop offset="0.56" stop-color="#efc87b"/><stop offset="0.71" stop-color="#e6b864"/><stop offset="0.85" stop-color="#d9a346"/><stop offset="0.98" stop-color="#ca8a22"/><stop offset="1" stop-color="#c8861c"/></linearGradient><clipPath id="i"><rect width="750" height="400"/></clipPath></defs><g id="h" clip-path="url(#i)"><rect width="750" height="400" fill="#1e1e1e"/><path d="M2801.623,50l-699.97,659.049h699.97Z" transform="translate(-2051.623 -358)" fill="url(#a)"/><path d="M2799.623,54.63,2106.694,707.049h692.928V54.63m2-4.63V709.049h-699.97Z" transform="translate(-2051.623 -358)" fill="#ca1473"/><path d="M2775.028,396.586h-701v-351h2v349h699Z" transform="translate(-2025.028 -45.586)" fill="#707070"/><path d="M.034,158.735S-15.441,76.084,140.944.93,706.573-63.06,706.573-63.06V158.735Z" transform="translate(49.389 192.246)" fill="url(#b)"/><path d="M704.573,156.735V-61.108c-6.043-.139-25.808-.537-54.456-.537-37.5,0-75.25.653-112.213,1.941-50.239,1.751-97.725,4.648-141.139,8.611-53.527,4.887-101.158,11.431-141.57,19.452-22.8,4.526-43.668,9.6-62.015,15.078C173.517-10.691,156.234-4.2,141.81,2.733a456.2,456.2,0,0,0-50.558,28.12A306.647,306.647,0,0,0,54.527,58.568c-17.987,16-31.689,32.826-40.724,50.018A116.122,116.122,0,0,0,5.41,128.831a90.149,90.149,0,0,0-3.327,15.723A60.032,60.032,0,0,0,1.8,156.735H704.573m2,2H.034S-15.441,76.084,140.944.93C261.507-57.009,532.36-63.646,650.117-63.646c34.989,0,56.456.586,56.456.586Z" transform="translate(49.389 192.246)" fill="#fff"/><rect width="400" height="100" transform="translate(750) rotate(90)" fill="url(#c)"/><path d="M-149.492-7.07h1.26a3.524,3.524,0,0,0-.315-1.421,2.769,2.769,0,0,0-.784-.987,3.234,3.234,0,0,0-1.155-.574,5.341,5.341,0,0,0-1.428-.182,5.128,5.128,0,0,0-1.337.175,3.676,3.676,0,0,0-1.162.532,2.693,2.693,0,0,0-.819.91,2.649,2.649,0,0,0-.308,1.309,2.186,2.186,0,0,0,.273,1.141,2.213,2.213,0,0,0,.728.742,4.231,4.231,0,0,0,1.029.462q.574.175,1.169.308l1.169.259a5.329,5.329,0,0,1,1.029.329,2.006,2.006,0,0,1,.728.525,1.254,1.254,0,0,1,.273.84,1.635,1.635,0,0,1-.224.9,1.63,1.63,0,0,1-.588.553,2.66,2.66,0,0,1-.819.287,4.965,4.965,0,0,1-.9.084,4.273,4.273,0,0,1-1.092-.14,2.717,2.717,0,0,1-.931-.434,2.228,2.228,0,0,1-.644-.749,2.258,2.258,0,0,1-.245-1.085h-1.26a3.515,3.515,0,0,0,.329,1.575,3.02,3.02,0,0,0,.9,1.092,3.924,3.924,0,0,0,1.316.637,5.861,5.861,0,0,0,1.589.21,6.077,6.077,0,0,0,1.379-.161,3.991,3.991,0,0,0,1.253-.518,2.938,2.938,0,0,0,.917-.924,2.51,2.51,0,0,0,.357-1.365,2.507,2.507,0,0,0-.273-1.232,2.432,2.432,0,0,0-.728-.812,3.856,3.856,0,0,0-1.029-.511q-.574-.189-1.169-.329t-1.169-.259a6.121,6.121,0,0,1-1.029-.3,2.024,2.024,0,0,1-.728-.469,1.042,1.042,0,0,1-.273-.749,1.623,1.623,0,0,1,.189-.819,1.47,1.47,0,0,1,.5-.525,2.193,2.193,0,0,1,.721-.28,4.066,4.066,0,0,1,.826-.084,2.822,2.822,0,0,1,1.7.483A2.083,2.083,0,0,1-149.492-7.07Zm5.1-.168v-2.17h-1.19v2.17h-1.232v1.05h1.232v4.606a2.751,2.751,0,0,0,.1.812.987.987,0,0,0,.3.476,1.162,1.162,0,0,0,.532.231,4.273,4.273,0,0,0,.791.063h.91V-1.05h-.546a3.969,3.969,0,0,1-.455-.021.588.588,0,0,1-.273-.091.346.346,0,0,1-.133-.2,1.3,1.3,0,0,1-.035-.336V-6.188h1.442v-1.05Zm5.95,8.2a7.569,7.569,0,0,1-.413.9,2.45,2.45,0,0,1-.448.6,1.521,1.521,0,0,1-.546.336,2.1,2.1,0,0,1-.693.105,3.174,3.174,0,0,1-.42-.028,1.983,1.983,0,0,1-.406-.1V1.68a2,2,0,0,0,.357.119,1.506,1.506,0,0,0,.343.049,1.021,1.021,0,0,0,.609-.175,1.071,1.071,0,0,0,.371-.5l.49-1.218-2.87-7.2h1.344l2.114,5.922h.028l2.03-5.922h1.26ZM-133.868-10V0h1.19V-10Zm8.414,5.684h-4.158a2.479,2.479,0,0,1,.182-.791,2.11,2.11,0,0,1,.42-.651,1.924,1.924,0,0,1,.637-.441,2.072,2.072,0,0,1,.833-.161,2.036,2.036,0,0,1,.819.161,2.06,2.06,0,0,1,.644.434,2.04,2.04,0,0,1,.434.651A2.435,2.435,0,0,1-125.454-4.312Zm1.148,2.016h-1.176a1.692,1.692,0,0,1-.637,1.064,2.06,2.06,0,0,1-1.239.35,2.465,2.465,0,0,1-1.022-.2,2,2,0,0,1-.714-.525,2.045,2.045,0,0,1-.406-.756,2.873,2.873,0,0,1-.112-.9h5.418a5.762,5.762,0,0,0-.119-1.386,4.012,4.012,0,0,0-.532-1.344,3.17,3.17,0,0,0-1.022-1.015,2.969,2.969,0,0,0-1.6-.4,3.291,3.291,0,0,0-1.365.28,3.208,3.208,0,0,0-1.078.784,3.614,3.614,0,0,0-.707,1.19,4.356,4.356,0,0,0-.252,1.512,5.8,5.8,0,0,0,.245,1.526,3.331,3.331,0,0,0,.651,1.2,2.967,2.967,0,0,0,1.071.784,3.718,3.718,0,0,0,1.505.28,3.285,3.285,0,0,0,2.044-.616A2.892,2.892,0,0,0-124.306-2.3Zm2.422.014h-1.19a2.619,2.619,0,0,0,.28,1.141,2.106,2.106,0,0,0,.672.756,2.816,2.816,0,0,0,.966.413,5.092,5.092,0,0,0,1.148.126,5.88,5.88,0,0,0,1.1-.1,2.985,2.985,0,0,0,.994-.371,2.134,2.134,0,0,0,.714-.7,2.016,2.016,0,0,0,.273-1.092,1.706,1.706,0,0,0-.2-.868,1.812,1.812,0,0,0-.532-.581,2.853,2.853,0,0,0-.756-.371,8.935,8.935,0,0,0-.875-.238q-.42-.1-.84-.189a4.846,4.846,0,0,1-.756-.224,1.732,1.732,0,0,1-.553-.336.67.67,0,0,1-.217-.511.706.706,0,0,1,.14-.455,1,1,0,0,1,.364-.28,1.815,1.815,0,0,1,.5-.147,3.541,3.541,0,0,1,.539-.042,2.7,2.7,0,0,1,.581.063,1.781,1.781,0,0,1,.525.2,1.192,1.192,0,0,1,.392.371,1.2,1.2,0,0,1,.182.581h1.19a2.658,2.658,0,0,0-.28-1.1,1.884,1.884,0,0,0-.637-.7,2.624,2.624,0,0,0-.917-.364,5.715,5.715,0,0,0-1.134-.105,4,4,0,0,0-.959.119,2.893,2.893,0,0,0-.868.364,2,2,0,0,0-.63.637,1.734,1.734,0,0,0-.245.938,1.583,1.583,0,0,0,.35,1.092,2.362,2.362,0,0,0,.875.609,5.92,5.92,0,0,0,1.141.336q.616.119,1.141.266a2.978,2.978,0,0,1,.875.385.792.792,0,0,1,.35.7.877.877,0,0,1-.168.553,1.065,1.065,0,0,1-.427.329,2.156,2.156,0,0,1-.567.154,4.357,4.357,0,0,1-.588.042,3.527,3.527,0,0,1-.707-.07,1.984,1.984,0,0,1-.616-.231,1.266,1.266,0,0,1-.441-.434A1.34,1.34,0,0,1-121.884-2.282Zm13.86-7.952L-112.154.224h1.008L-107-10.234Zm13.482,3.248h1.33a3.719,3.719,0,0,0-.476-1.407,3.462,3.462,0,0,0-.91-1.015,3.989,3.989,0,0,0-1.246-.616,5.138,5.138,0,0,0-1.484-.21,4.784,4.784,0,0,0-2.037.413,4.21,4.21,0,0,0-1.484,1.127,4.942,4.942,0,0,0-.9,1.673,6.669,6.669,0,0,0-.308,2.051,7.048,7.048,0,0,0,.287,2.044,4.721,4.721,0,0,0,.861,1.652,3.987,3.987,0,0,0,1.442,1.1,4.818,4.818,0,0,0,2.03.4,4.213,4.213,0,0,0,3.024-1.05,4.541,4.541,0,0,0,1.3-2.94h-1.33A3.814,3.814,0,0,1-94.7-2.618a2.771,2.771,0,0,1-.581.917,2.646,2.646,0,0,1-.882.6,2.967,2.967,0,0,1-1.169.217,3.29,3.29,0,0,1-1.54-.336,3.008,3.008,0,0,1-1.057-.9,3.868,3.868,0,0,1-.609-1.33,6.477,6.477,0,0,1-.2-1.617,5.791,5.791,0,0,1,.2-1.512,3.9,3.9,0,0,1,.609-1.3,3.026,3.026,0,0,1,1.05-.9,3.247,3.247,0,0,1,1.533-.336,3.09,3.09,0,0,1,1.813.532A2.473,2.473,0,0,1-94.542-6.986Zm4.1,3.374a3.6,3.6,0,0,1,.175-1.169,2.523,2.523,0,0,1,.483-.861,2.057,2.057,0,0,1,.721-.532,2.146,2.146,0,0,1,.875-.182,2.146,2.146,0,0,1,.875.182,2.057,2.057,0,0,1,.721.532,2.523,2.523,0,0,1,.483.861,3.6,3.6,0,0,1,.175,1.169,3.6,3.6,0,0,1-.175,1.169,2.446,2.446,0,0,1-.483.854,2.1,2.1,0,0,1-.721.525,2.146,2.146,0,0,1-.875.182,2.146,2.146,0,0,1-.875-.182,2.1,2.1,0,0,1-.721-.525,2.446,2.446,0,0,1-.483-.854A3.6,3.6,0,0,1-90.44-3.612Zm-1.26,0a4.755,4.755,0,0,0,.224,1.484,3.387,3.387,0,0,0,.672,1.2,3.091,3.091,0,0,0,1.106.8,3.75,3.75,0,0,0,1.512.287,3.738,3.738,0,0,0,1.519-.287,3.106,3.106,0,0,0,1.1-.8,3.387,3.387,0,0,0,.672-1.2,4.755,4.755,0,0,0,.224-1.484A4.821,4.821,0,0,0-84.9-5.1a3.378,3.378,0,0,0-.672-1.2,3.182,3.182,0,0,0-1.1-.805,3.66,3.66,0,0,0-1.519-.294,3.673,3.673,0,0,0-1.512.294,3.166,3.166,0,0,0-1.106.805,3.378,3.378,0,0,0-.672,1.2A4.821,4.821,0,0,0-91.7-3.612Zm8.778-3.626V0h1.19V-4.508a1.727,1.727,0,0,1,.105-.525,2.021,2.021,0,0,1,.336-.609,2.015,2.015,0,0,1,.6-.5,1.777,1.777,0,0,1,.889-.21,1.6,1.6,0,0,1,.665.119,1.014,1.014,0,0,1,.413.336,1.366,1.366,0,0,1,.217.511,3.076,3.076,0,0,1,.063.644V0h1.19V-4.508a1.816,1.816,0,0,1,.5-1.344,1.873,1.873,0,0,1,1.386-.5,1.7,1.7,0,0,1,.707.126,1.048,1.048,0,0,1,.427.343,1.287,1.287,0,0,1,.21.511,3.367,3.367,0,0,1,.056.63V0h1.19V-5.306a2.379,2.379,0,0,0-.175-.959,1.682,1.682,0,0,0-.49-.651,2.047,2.047,0,0,0-.756-.371,3.789,3.789,0,0,0-.987-.119,2.706,2.706,0,0,0-1.309.322,2.527,2.527,0,0,0-.959.91,1.568,1.568,0,0,0-.77-.952,2.63,2.63,0,0,0-1.218-.28,2.632,2.632,0,0,0-2.338,1.232H-81.8V-7.238Zm12.334,0v10h1.19V-.966h.028a1.917,1.917,0,0,0,.483.539,2.544,2.544,0,0,0,.609.343A3.305,3.305,0,0,0-67.627.1a3.577,3.577,0,0,0,.6.056A3.361,3.361,0,0,0-65.583-.14a2.9,2.9,0,0,0,1.036-.805,3.428,3.428,0,0,0,.616-1.2,5.106,5.106,0,0,0,.2-1.456,4.948,4.948,0,0,0-.21-1.456,3.679,3.679,0,0,0-.623-1.211A2.976,2.976,0,0,0-65.6-7.1a3.265,3.265,0,0,0-1.463-.308,3.449,3.449,0,0,0-1.386.273,1.782,1.782,0,0,0-.924.875H-69.4v-.98Zm5.6,3.556A4.761,4.761,0,0,1-65.1-2.646a2.741,2.741,0,0,1-.364.9,1.913,1.913,0,0,1-.665.63,2.035,2.035,0,0,1-1.029.238,2.209,2.209,0,0,1-1.05-.231,2.038,2.038,0,0,1-.707-.609,2.547,2.547,0,0,1-.4-.875,4.171,4.171,0,0,1-.126-1.029,4.2,4.2,0,0,1,.119-.994,2.605,2.605,0,0,1,.385-.875,2.048,2.048,0,0,1,.686-.623,2.044,2.044,0,0,1,1.022-.238,2.126,2.126,0,0,1,1,.224,1.99,1.99,0,0,1,.7.6,2.664,2.664,0,0,1,.406.861A3.7,3.7,0,0,1-64.988-3.682Zm3.878.07a3.6,3.6,0,0,1,.175-1.169,2.523,2.523,0,0,1,.483-.861,2.057,2.057,0,0,1,.721-.532,2.146,2.146,0,0,1,.875-.182,2.146,2.146,0,0,1,.875.182,2.057,2.057,0,0,1,.721.532,2.523,2.523,0,0,1,.483.861A3.6,3.6,0,0,1-56.6-3.612a3.6,3.6,0,0,1-.175,1.169,2.446,2.446,0,0,1-.483.854,2.1,2.1,0,0,1-.721.525,2.146,2.146,0,0,1-.875.182,2.146,2.146,0,0,1-.875-.182,2.1,2.1,0,0,1-.721-.525,2.446,2.446,0,0,1-.483-.854A3.6,3.6,0,0,1-61.11-3.612Zm-1.26,0a4.755,4.755,0,0,0,.224,1.484,3.387,3.387,0,0,0,.672,1.2,3.091,3.091,0,0,0,1.106.8,3.75,3.75,0,0,0,1.512.287,3.738,3.738,0,0,0,1.519-.287,3.106,3.106,0,0,0,1.1-.8,3.387,3.387,0,0,0,.672-1.2,4.755,4.755,0,0,0,.224-1.484A4.821,4.821,0,0,0-55.566-5.1a3.378,3.378,0,0,0-.672-1.2,3.182,3.182,0,0,0-1.1-.805,3.66,3.66,0,0,0-1.519-.294,3.673,3.673,0,0,0-1.512.294,3.166,3.166,0,0,0-1.106.805,3.378,3.378,0,0,0-.672,1.2A4.821,4.821,0,0,0-62.37-3.612Zm8.778-3.626V0h1.19V-4.088a2.932,2.932,0,0,1,.133-.9,2.051,2.051,0,0,1,.4-.721,1.772,1.772,0,0,1,.665-.476,2.425,2.425,0,0,1,.945-.168,1.457,1.457,0,0,1,1.078.392A1.438,1.438,0,0,1-48.79-4.9V0h1.19V-4.76a4.479,4.479,0,0,0-.119-1.071,2.028,2.028,0,0,0-.413-.833,1.956,1.956,0,0,0-.77-.546,3.141,3.141,0,0,0-1.19-.2A2.506,2.506,0,0,0-52.444-6.09h-.028V-7.238Zm13.16,2.926H-44.59a2.479,2.479,0,0,1,.182-.791,2.11,2.11,0,0,1,.42-.651,1.924,1.924,0,0,1,.637-.441,2.072,2.072,0,0,1,.833-.161,2.036,2.036,0,0,1,.819.161,2.061,2.061,0,0,1,.644.434,2.04,2.04,0,0,1,.434.651A2.435,2.435,0,0,1-40.432-4.312ZM-39.284-2.3H-40.46A1.692,1.692,0,0,1-41.1-1.232a2.06,2.06,0,0,1-1.239.35,2.465,2.465,0,0,1-1.022-.2,2,2,0,0,1-.714-.525,2.045,2.045,0,0,1-.406-.756,2.873,2.873,0,0,1-.112-.9h5.418a5.763,5.763,0,0,0-.119-1.386,4.012,4.012,0,0,0-.532-1.344,3.17,3.17,0,0,0-1.022-1.015,2.969,2.969,0,0,0-1.6-.4,3.291,3.291,0,0,0-1.365.28,3.208,3.208,0,0,0-1.078.784,3.614,3.614,0,0,0-.707,1.19A4.356,4.356,0,0,0-45.85-3.64,5.8,5.8,0,0,0-45.6-2.114a3.33,3.33,0,0,0,.651,1.2,2.967,2.967,0,0,0,1.071.784,3.718,3.718,0,0,0,1.505.28,3.285,3.285,0,0,0,2.044-.616A2.892,2.892,0,0,0-39.284-2.3Zm1.694-4.942V0h1.19V-4.088a2.932,2.932,0,0,1,.133-.9,2.051,2.051,0,0,1,.4-.721,1.772,1.772,0,0,1,.665-.476,2.425,2.425,0,0,1,.945-.168,1.457,1.457,0,0,1,1.078.392A1.438,1.438,0,0,1-32.788-4.9V0h1.19V-4.76a4.479,4.479,0,0,0-.119-1.071,2.028,2.028,0,0,0-.413-.833,1.956,1.956,0,0,0-.77-.546,3.141,3.141,0,0,0-1.19-.2A2.506,2.506,0,0,0-36.442-6.09h-.028V-7.238Zm9.786,0v-2.17h-1.19v2.17h-1.232v1.05h1.232v4.606a2.75,2.75,0,0,0,.1.812.987.987,0,0,0,.3.476,1.162,1.162,0,0,0,.532.231A4.273,4.273,0,0,0-27.272,0h.91V-1.05h-.546a3.969,3.969,0,0,1-.455-.021.588.588,0,0,1-.273-.091.346.346,0,0,1-.133-.2,1.3,1.3,0,0,1-.035-.336V-6.188h1.442v-1.05Zm3.836,4.956h-1.19a2.619,2.619,0,0,0,.28,1.141,2.106,2.106,0,0,0,.672.756,2.816,2.816,0,0,0,.966.413,5.092,5.092,0,0,0,1.148.126,5.88,5.88,0,0,0,1.1-.1A2.985,2.985,0,0,0-20-.322a2.134,2.134,0,0,0,.714-.7,2.016,2.016,0,0,0,.273-1.092,1.707,1.707,0,0,0-.2-.868,1.812,1.812,0,0,0-.532-.581,2.853,2.853,0,0,0-.756-.371,8.935,8.935,0,0,0-.875-.238q-.42-.1-.84-.189a4.846,4.846,0,0,1-.756-.224,1.732,1.732,0,0,1-.553-.336.67.67,0,0,1-.217-.511.706.706,0,0,1,.14-.455,1,1,0,0,1,.364-.28,1.815,1.815,0,0,1,.5-.147,3.541,3.541,0,0,1,.539-.042,2.7,2.7,0,0,1,.581.063,1.781,1.781,0,0,1,.525.2,1.192,1.192,0,0,1,.392.371,1.2,1.2,0,0,1,.182.581h1.19a2.658,2.658,0,0,0-.28-1.1,1.884,1.884,0,0,0-.637-.7,2.624,2.624,0,0,0-.917-.364A5.715,5.715,0,0,0-22.3-7.406a4,4,0,0,0-.959.119,2.892,2.892,0,0,0-.868.364,2,2,0,0,0-.63.637A1.734,1.734,0,0,0-25-5.348a1.583,1.583,0,0,0,.35,1.092,2.362,2.362,0,0,0,.875.609,5.92,5.92,0,0,0,1.141.336q.616.119,1.141.266a2.978,2.978,0,0,1,.875.385.792.792,0,0,1,.35.7.877.877,0,0,1-.168.553,1.065,1.065,0,0,1-.427.329,2.156,2.156,0,0,1-.567.154,4.357,4.357,0,0,1-.588.042,3.527,3.527,0,0,1-.707-.07,1.984,1.984,0,0,1-.616-.231,1.266,1.266,0,0,1-.441-.434A1.34,1.34,0,0,1-23.968-2.282ZM-1.436-5.059-4.389-8.012v2.447H-12.4v1.012h8.012v2.447Z" transform="translate(728 379)" fill="#8d8d8f"/><rect width="750" height="100" fill="url(#c)"/><path d="M4.519-10.965,7.472-8.012H5.024V0H4.013V-8.012H1.565ZM21.742-6.986h1.33A3.719,3.719,0,0,0,22.6-8.393a3.462,3.462,0,0,0-.91-1.015,3.989,3.989,0,0,0-1.246-.616,5.138,5.138,0,0,0-1.484-.21,4.784,4.784,0,0,0-2.037.413,4.21,4.21,0,0,0-1.484,1.127,4.942,4.942,0,0,0-.9,1.673,6.669,6.669,0,0,0-.308,2.051,7.049,7.049,0,0,0,.287,2.044,4.721,4.721,0,0,0,.861,1.652,3.987,3.987,0,0,0,1.442,1.1,4.818,4.818,0,0,0,2.03.4,4.213,4.213,0,0,0,3.024-1.05,4.541,4.541,0,0,0,1.3-2.94H21.84a3.814,3.814,0,0,1-.252,1.148,2.771,2.771,0,0,1-.581.917,2.646,2.646,0,0,1-.882.6,2.967,2.967,0,0,1-1.169.217,3.29,3.29,0,0,1-1.54-.336,3.008,3.008,0,0,1-1.057-.9,3.868,3.868,0,0,1-.609-1.33,6.477,6.477,0,0,1-.2-1.617,5.791,5.791,0,0,1,.2-1.512,3.9,3.9,0,0,1,.609-1.3,3.026,3.026,0,0,1,1.05-.9,3.247,3.247,0,0,1,1.533-.336,3.09,3.09,0,0,1,1.813.532A2.473,2.473,0,0,1,21.742-6.986Zm9.212-.084h1.26A3.524,3.524,0,0,0,31.9-8.491a2.769,2.769,0,0,0-.784-.987,3.234,3.234,0,0,0-1.155-.574,5.341,5.341,0,0,0-1.428-.182,5.128,5.128,0,0,0-1.337.175,3.676,3.676,0,0,0-1.162.532,2.693,2.693,0,0,0-.819.91,2.649,2.649,0,0,0-.308,1.309,2.186,2.186,0,0,0,.273,1.141,2.213,2.213,0,0,0,.728.742,4.231,4.231,0,0,0,1.029.462q.574.175,1.169.308l1.169.259a5.33,5.33,0,0,1,1.029.329,2.006,2.006,0,0,1,.728.525,1.254,1.254,0,0,1,.273.84,1.635,1.635,0,0,1-.224.9,1.63,1.63,0,0,1-.588.553,2.66,2.66,0,0,1-.819.287,4.965,4.965,0,0,1-.9.084,4.273,4.273,0,0,1-1.092-.14,2.717,2.717,0,0,1-.931-.434A2.228,2.228,0,0,1,26.1-2.2a2.258,2.258,0,0,1-.245-1.085H24.6a3.515,3.515,0,0,0,.329,1.575,3.02,3.02,0,0,0,.9,1.092,3.924,3.924,0,0,0,1.316.637,5.861,5.861,0,0,0,1.589.21A6.077,6.077,0,0,0,30.107.063,3.991,3.991,0,0,0,31.36-.455a2.938,2.938,0,0,0,.917-.924,2.51,2.51,0,0,0,.357-1.365,2.507,2.507,0,0,0-.273-1.232,2.432,2.432,0,0,0-.728-.812A3.856,3.856,0,0,0,30.6-5.3q-.574-.189-1.169-.329t-1.169-.259a6.121,6.121,0,0,1-1.029-.3,2.024,2.024,0,0,1-.728-.469,1.042,1.042,0,0,1-.273-.749,1.623,1.623,0,0,1,.189-.819,1.47,1.47,0,0,1,.5-.525,2.193,2.193,0,0,1,.721-.28,4.066,4.066,0,0,1,.826-.084,2.822,2.822,0,0,1,1.7.483A2.083,2.083,0,0,1,30.954-7.07Zm9.422,0h1.26a3.524,3.524,0,0,0-.315-1.421,2.769,2.769,0,0,0-.784-.987,3.234,3.234,0,0,0-1.155-.574,5.341,5.341,0,0,0-1.428-.182,5.128,5.128,0,0,0-1.337.175,3.676,3.676,0,0,0-1.162.532,2.693,2.693,0,0,0-.819.91,2.649,2.649,0,0,0-.308,1.309A2.186,2.186,0,0,0,34.6-6.167a2.213,2.213,0,0,0,.728.742,4.231,4.231,0,0,0,1.029.462q.574.175,1.169.308L38.7-4.4a5.33,5.33,0,0,1,1.029.329,2.006,2.006,0,0,1,.728.525,1.254,1.254,0,0,1,.273.84,1.635,1.635,0,0,1-.224.9,1.63,1.63,0,0,1-.588.553,2.66,2.66,0,0,1-.819.287,4.965,4.965,0,0,1-.9.084,4.273,4.273,0,0,1-1.092-.14,2.717,2.717,0,0,1-.931-.434,2.228,2.228,0,0,1-.644-.749A2.258,2.258,0,0,1,35.28-3.29H34.02a3.515,3.515,0,0,0,.329,1.575,3.02,3.02,0,0,0,.9,1.092,3.924,3.924,0,0,0,1.316.637,5.861,5.861,0,0,0,1.589.21A6.077,6.077,0,0,0,39.529.063a3.991,3.991,0,0,0,1.253-.518,2.938,2.938,0,0,0,.917-.924,2.51,2.51,0,0,0,.357-1.365,2.507,2.507,0,0,0-.273-1.232,2.432,2.432,0,0,0-.728-.812A3.856,3.856,0,0,0,40.026-5.3q-.574-.189-1.169-.329t-1.169-.259a6.121,6.121,0,0,1-1.029-.3,2.024,2.024,0,0,1-.728-.469,1.042,1.042,0,0,1-.273-.749,1.623,1.623,0,0,1,.189-.819,1.47,1.47,0,0,1,.5-.525,2.193,2.193,0,0,1,.721-.28,4.066,4.066,0,0,1,.826-.084,2.822,2.822,0,0,1,1.7.483A2.083,2.083,0,0,1,40.376-7.07ZM49.028-5a5.763,5.763,0,0,1,.2-1.491,4.049,4.049,0,0,1,.616-1.323,3.149,3.149,0,0,1,1.078-.945,3.243,3.243,0,0,1,1.568-.357,3.243,3.243,0,0,1,1.568.357,3.149,3.149,0,0,1,1.078.945,4.049,4.049,0,0,1,.616,1.323A5.763,5.763,0,0,1,55.944-5a5.763,5.763,0,0,1-.2,1.491,4.049,4.049,0,0,1-.616,1.323,3.149,3.149,0,0,1-1.078.945,3.243,3.243,0,0,1-1.568.357,3.243,3.243,0,0,1-1.568-.357,3.149,3.149,0,0,1-1.078-.945,4.049,4.049,0,0,1-.616-1.323A5.763,5.763,0,0,1,49.028-5ZM47.7-5A6.442,6.442,0,0,0,48-3.031a4.957,4.957,0,0,0,.9,1.673A4.333,4.333,0,0,0,50.4-.2a4.8,4.8,0,0,0,2.086.427A4.8,4.8,0,0,0,54.572-.2a4.333,4.333,0,0,0,1.5-1.155,4.957,4.957,0,0,0,.9-1.673A6.442,6.442,0,0,0,57.274-5a6.442,6.442,0,0,0-.3-1.967,4.957,4.957,0,0,0-.9-1.673,4.407,4.407,0,0,0-1.5-1.162,4.733,4.733,0,0,0-2.086-.434A4.733,4.733,0,0,0,50.4-9.8a4.407,4.407,0,0,0-1.5,1.162A4.957,4.957,0,0,0,48-6.965,6.442,6.442,0,0,0,47.7-5ZM65.044,0V-7.238h-1.19V-3.15a2.932,2.932,0,0,1-.133.9,2.051,2.051,0,0,1-.4.721,1.772,1.772,0,0,1-.665.476,2.425,2.425,0,0,1-.945.168,1.457,1.457,0,0,1-1.078-.392,1.438,1.438,0,0,1-.392-1.064v-4.9h-1.19v4.76a4.479,4.479,0,0,0,.119,1.071,2.028,2.028,0,0,0,.413.833,1.9,1.9,0,0,0,.77.539,3.246,3.246,0,0,0,1.19.189A2.894,2.894,0,0,0,62.93-.161a2.432,2.432,0,0,0,.966-.987h.028V0Zm3.794-7.238v-2.17h-1.19v2.17H66.416v1.05h1.232v4.606a2.75,2.75,0,0,0,.1.812.987.987,0,0,0,.3.476,1.162,1.162,0,0,0,.532.231A4.273,4.273,0,0,0,69.37,0h.91V-1.05h-.546a3.969,3.969,0,0,1-.455-.021.588.588,0,0,1-.273-.091.346.346,0,0,1-.133-.2,1.3,1.3,0,0,1-.035-.336V-6.188H70.28v-1.05Zm3.15,0v10h1.19V-.966h.028a1.917,1.917,0,0,0,.483.539,2.544,2.544,0,0,0,.609.343A3.305,3.305,0,0,0,74.949.1a3.577,3.577,0,0,0,.6.056A3.361,3.361,0,0,0,76.993-.14a2.9,2.9,0,0,0,1.036-.805,3.428,3.428,0,0,0,.616-1.2,5.106,5.106,0,0,0,.2-1.456,4.948,4.948,0,0,0-.21-1.456,3.679,3.679,0,0,0-.623-1.211A2.976,2.976,0,0,0,76.979-7.1a3.265,3.265,0,0,0-1.463-.308,3.449,3.449,0,0,0-1.386.273,1.782,1.782,0,0,0-.924.875h-.028v-.98Zm5.6,3.556a4.761,4.761,0,0,1-.112,1.036,2.741,2.741,0,0,1-.364.9,1.913,1.913,0,0,1-.665.63,2.035,2.035,0,0,1-1.029.238,2.209,2.209,0,0,1-1.05-.231,2.038,2.038,0,0,1-.707-.609,2.547,2.547,0,0,1-.4-.875,4.171,4.171,0,0,1-.126-1.029,4.2,4.2,0,0,1,.119-.994A2.6,2.6,0,0,1,73.64-5.5a2.048,2.048,0,0,1,.686-.623,2.044,2.044,0,0,1,1.022-.238,2.126,2.126,0,0,1,1,.224,1.99,1.99,0,0,1,.7.6,2.664,2.664,0,0,1,.406.861A3.7,3.7,0,0,1,77.588-3.682ZM86.59,0V-7.238H85.4V-3.15a2.932,2.932,0,0,1-.133.9,2.051,2.051,0,0,1-.4.721,1.772,1.772,0,0,1-.665.476,2.425,2.425,0,0,1-.945.168,1.457,1.457,0,0,1-1.078-.392,1.438,1.438,0,0,1-.392-1.064v-4.9H80.6v4.76a4.479,4.479,0,0,0,.119,1.071,2.028,2.028,0,0,0,.413.833,1.9,1.9,0,0,0,.77.539,3.246,3.246,0,0,0,1.19.189,2.894,2.894,0,0,0,1.386-.315,2.432,2.432,0,0,0,.966-.987h.028V0Zm3.794-7.238v-2.17h-1.19v2.17H87.962v1.05h1.232v4.606a2.75,2.75,0,0,0,.1.812.987.987,0,0,0,.3.476,1.162,1.162,0,0,0,.532.231A4.273,4.273,0,0,0,90.916,0h.91V-1.05H91.28a3.969,3.969,0,0,1-.455-.021.588.588,0,0,1-.273-.091.346.346,0,0,1-.133-.2,1.3,1.3,0,0,1-.035-.336V-6.188h1.442v-1.05Z" transform="translate(22 34)" fill="#8d8d8f"/><path d="M4.519-10.965,1.565-8.012H4.013V0H5.024V-8.012H7.472L4.519-10.965m14.438.731a4.783,4.783,0,0,0-2.037.413,4.21,4.21,0,0,0-1.484,1.127,4.942,4.942,0,0,0-.9,1.673,6.669,6.669,0,0,0-.308,2.051,7.048,7.048,0,0,0,.287,2.044,4.721,4.721,0,0,0,.861,1.652,3.987,3.987,0,0,0,1.442,1.1,4.818,4.818,0,0,0,2.03.4,4.213,4.213,0,0,0,3.024-1.05,4.541,4.541,0,0,0,1.3-2.94H21.84a3.814,3.814,0,0,1-.252,1.148,2.771,2.771,0,0,1-.581.917,2.647,2.647,0,0,1-.882.6,2.967,2.967,0,0,1-1.169.217,3.29,3.29,0,0,1-1.54-.336,3.007,3.007,0,0,1-1.057-.9,3.867,3.867,0,0,1-.609-1.33,6.477,6.477,0,0,1-.2-1.617,5.79,5.79,0,0,1,.2-1.512,3.9,3.9,0,0,1,.609-1.3,3.025,3.025,0,0,1,1.05-.9,3.247,3.247,0,0,1,1.533-.336,3.09,3.09,0,0,1,1.813.532,2.473,2.473,0,0,1,.987,1.6h1.33A3.72,3.72,0,0,0,22.6-8.393a3.462,3.462,0,0,0-.91-1.015,3.989,3.989,0,0,0-1.246-.616,5.138,5.138,0,0,0-1.484-.21m9.576,0a5.127,5.127,0,0,0-1.337.175,3.676,3.676,0,0,0-1.162.532,2.693,2.693,0,0,0-.819.91,2.648,2.648,0,0,0-.308,1.309,2.186,2.186,0,0,0,.273,1.141,2.213,2.213,0,0,0,.728.742,4.232,4.232,0,0,0,1.029.462q.574.175,1.169.308l1.169.259a5.329,5.329,0,0,1,1.029.329,2.006,2.006,0,0,1,.728.525,1.254,1.254,0,0,1,.273.84,1.635,1.635,0,0,1-.224.9,1.63,1.63,0,0,1-.588.553,2.661,2.661,0,0,1-.819.287,4.554,4.554,0,0,1-1.995-.056,2.717,2.717,0,0,1-.931-.434A2.228,2.228,0,0,1,26.1-2.2a2.258,2.258,0,0,1-.245-1.085H24.6a3.515,3.515,0,0,0,.329,1.575,3.02,3.02,0,0,0,.9,1.092,3.924,3.924,0,0,0,1.316.637,5.861,5.861,0,0,0,1.589.21A6.077,6.077,0,0,0,30.107.063,3.991,3.991,0,0,0,31.36-.455a2.938,2.938,0,0,0,.917-.924,2.51,2.51,0,0,0,.357-1.365,2.507,2.507,0,0,0-.273-1.232,2.432,2.432,0,0,0-.728-.812A3.856,3.856,0,0,0,30.6-5.3q-.574-.189-1.169-.329t-1.169-.259a6.122,6.122,0,0,1-1.029-.3,2.025,2.025,0,0,1-.728-.469,1.042,1.042,0,0,1-.273-.749,1.623,1.623,0,0,1,.189-.819,1.47,1.47,0,0,1,.5-.525,2.193,2.193,0,0,1,.721-.28,4.066,4.066,0,0,1,.826-.084,2.822,2.822,0,0,1,1.7.483,2.083,2.083,0,0,1,.777,1.561h1.26A3.524,3.524,0,0,0,31.9-8.491a2.769,2.769,0,0,0-.784-.987,3.234,3.234,0,0,0-1.155-.574,5.341,5.341,0,0,0-1.428-.182m9.422,0a5.127,5.127,0,0,0-1.337.175,3.676,3.676,0,0,0-1.162.532,2.693,2.693,0,0,0-.819.91,2.648,2.648,0,0,0-.308,1.309A2.186,2.186,0,0,0,34.6-6.167a2.213,2.213,0,0,0,.728.742,4.231,4.231,0,0,0,1.029.462q.574.175,1.169.308L38.7-4.4a5.33,5.33,0,0,1,1.029.329,2.006,2.006,0,0,1,.728.525,1.254,1.254,0,0,1,.273.84,1.635,1.635,0,0,1-.224.9,1.63,1.63,0,0,1-.588.553,2.661,2.661,0,0,1-.819.287A4.554,4.554,0,0,1,37.1-1.022a2.717,2.717,0,0,1-.931-.434,2.228,2.228,0,0,1-.644-.749A2.258,2.258,0,0,1,35.28-3.29H34.02a3.515,3.515,0,0,0,.329,1.575,3.02,3.02,0,0,0,.9,1.092,3.924,3.924,0,0,0,1.316.637,5.861,5.861,0,0,0,1.589.21A6.077,6.077,0,0,0,39.529.063a3.991,3.991,0,0,0,1.253-.518,2.938,2.938,0,0,0,.917-.924,2.51,2.51,0,0,0,.357-1.365,2.507,2.507,0,0,0-.273-1.232,2.432,2.432,0,0,0-.728-.812A3.856,3.856,0,0,0,40.026-5.3q-.574-.189-1.169-.329t-1.169-.259a6.123,6.123,0,0,1-1.029-.3,2.024,2.024,0,0,1-.728-.469,1.042,1.042,0,0,1-.273-.749,1.623,1.623,0,0,1,.189-.819,1.47,1.47,0,0,1,.5-.525,2.193,2.193,0,0,1,.721-.28,4.066,4.066,0,0,1,.826-.084,2.822,2.822,0,0,1,1.7.483,2.083,2.083,0,0,1,.777,1.561h1.26a3.524,3.524,0,0,0-.315-1.421,2.769,2.769,0,0,0-.784-.987,3.234,3.234,0,0,0-1.155-.574,5.341,5.341,0,0,0-1.428-.182m14.532,0A4.733,4.733,0,0,0,50.4-9.8a4.407,4.407,0,0,0-1.5,1.162A4.957,4.957,0,0,0,48-6.965,6.442,6.442,0,0,0,47.7-5,6.442,6.442,0,0,0,48-3.031a4.957,4.957,0,0,0,.9,1.673A4.333,4.333,0,0,0,50.4-.2a4.8,4.8,0,0,0,2.086.427A4.8,4.8,0,0,0,54.572-.2a4.333,4.333,0,0,0,1.5-1.155,4.957,4.957,0,0,0,.9-1.673A6.442,6.442,0,0,0,57.274-5a6.442,6.442,0,0,0-.3-1.967,4.956,4.956,0,0,0-.9-1.673,4.407,4.407,0,0,0-1.5-1.162,4.733,4.733,0,0,0-2.086-.434m0,9.352a3.243,3.243,0,0,1-1.568-.357,3.149,3.149,0,0,1-1.078-.945,4.049,4.049,0,0,1-.616-1.323A5.763,5.763,0,0,1,49.028-5a5.763,5.763,0,0,1,.2-1.491,4.049,4.049,0,0,1,.616-1.323,3.149,3.149,0,0,1,1.078-.945,3.243,3.243,0,0,1,1.568-.357,3.243,3.243,0,0,1,1.568.357,3.149,3.149,0,0,1,1.078.945,4.049,4.049,0,0,1,.616,1.323A5.763,5.763,0,0,1,55.944-5a5.763,5.763,0,0,1-.2,1.491,4.049,4.049,0,0,1-.616,1.323,3.149,3.149,0,0,1-1.078.945,3.243,3.243,0,0,1-1.568.357M67.648-9.408v2.17H66.416v1.05h1.232v4.606a2.751,2.751,0,0,0,.1.812.987.987,0,0,0,.3.476,1.162,1.162,0,0,0,.532.231A4.273,4.273,0,0,0,69.37,0h.91V-1.05h-.546a3.969,3.969,0,0,1-.455-.021.588.588,0,0,1-.273-.091.346.346,0,0,1-.133-.2,1.3,1.3,0,0,1-.035-.336V-6.188H70.28v-1.05H68.838v-2.17h-1.19m21.546,0v2.17H87.962v1.05h1.232v4.606a2.75,2.75,0,0,0,.1.812.987.987,0,0,0,.3.476,1.162,1.162,0,0,0,.532.231A4.273,4.273,0,0,0,90.916,0h.91V-1.05H91.28a3.969,3.969,0,0,1-.455-.021.588.588,0,0,1-.273-.091.346.346,0,0,1-.133-.2,1.3,1.3,0,0,1-.035-.336V-6.188h1.442v-1.05H90.384v-2.17h-1.19m-13.678,2a3.449,3.449,0,0,0-1.386.273,1.782,1.782,0,0,0-.924.875h-.028v-.98h-1.19v10h1.19V-.966h.028a1.917,1.917,0,0,0,.483.539,2.544,2.544,0,0,0,.609.343A3.305,3.305,0,0,0,74.949.1a3.578,3.578,0,0,0,.595.056A3.361,3.361,0,0,0,76.993-.14a2.9,2.9,0,0,0,1.036-.8,3.428,3.428,0,0,0,.616-1.2,5.107,5.107,0,0,0,.2-1.456,4.948,4.948,0,0,0-.21-1.456,3.679,3.679,0,0,0-.623-1.211A2.976,2.976,0,0,0,76.979-7.1a3.265,3.265,0,0,0-1.463-.308m-.1,6.524a2.209,2.209,0,0,1-1.05-.231,2.038,2.038,0,0,1-.707-.609,2.547,2.547,0,0,1-.4-.875,4.171,4.171,0,0,1-.126-1.029,4.2,4.2,0,0,1,.119-.994,2.6,2.6,0,0,1,.385-.875,2.048,2.048,0,0,1,.686-.623,2.043,2.043,0,0,1,1.022-.238,2.126,2.126,0,0,1,1,.224,1.989,1.989,0,0,1,.7.6,2.664,2.664,0,0,1,.406.861,3.7,3.7,0,0,1,.133.987,4.762,4.762,0,0,1-.112,1.036,2.741,2.741,0,0,1-.364.9,1.913,1.913,0,0,1-.665.63,2.035,2.035,0,0,1-1.029.238M59.052-7.238v4.76a4.479,4.479,0,0,0,.119,1.071,2.028,2.028,0,0,0,.413.833,1.9,1.9,0,0,0,.77.539,3.246,3.246,0,0,0,1.19.189A2.894,2.894,0,0,0,62.93-.161a2.432,2.432,0,0,0,.966-.987h.028V0h1.12V-7.238h-1.19V-3.15a2.932,2.932,0,0,1-.133.9,2.051,2.051,0,0,1-.4.721,1.772,1.772,0,0,1-.665.476,2.425,2.425,0,0,1-.945.168,1.457,1.457,0,0,1-1.078-.392,1.438,1.438,0,0,1-.392-1.064v-4.9h-1.19m21.546,0v4.76a4.48,4.48,0,0,0,.119,1.071,2.028,2.028,0,0,0,.413.833,1.9,1.9,0,0,0,.77.539,3.246,3.246,0,0,0,1.19.189,2.894,2.894,0,0,0,1.386-.315,2.432,2.432,0,0,0,.966-.987h.028V0h1.12V-7.238H85.4V-3.15a2.932,2.932,0,0,1-.133.9,2.051,2.051,0,0,1-.4.721,1.772,1.772,0,0,1-.665.476,2.425,2.425,0,0,1-.945.168,1.457,1.457,0,0,1-1.078-.392,1.438,1.438,0,0,1-.392-1.064v-4.9H80.6M4.519-12.379,9.886-7.012H6.024V1H3.013V-7.012H-.849Zm14.438,1.145a6.161,6.161,0,0,1,1.771.252,5,5,0,0,1,1.555.771,4.473,4.473,0,0,1,1.172,1.3,4.492,4.492,0,0,1,.476,1.133,3.472,3.472,0,0,1,.41-1.33,3.7,3.7,0,0,1,1.12-1.243,4.689,4.689,0,0,1,1.475-.678,6.152,6.152,0,0,1,1.6-.209,6.364,6.364,0,0,1,1.695.218,4.242,4.242,0,0,1,1.508.753A3.773,3.773,0,0,1,32.8-8.925,4.526,4.526,0,0,1,33.214-7.1l.035,1.034H31.384a4.714,4.714,0,0,1,.827.466,3.435,3.435,0,0,1,1.024,1.142q.047.084.088.173h2a4.869,4.869,0,0,1-.53-.289,3.214,3.214,0,0,1-1.052-1.073,3.173,3.173,0,0,1-.416-1.655,3.644,3.644,0,0,1,.434-1.8,3.7,3.7,0,0,1,1.12-1.243,4.689,4.689,0,0,1,1.475-.678,6.151,6.151,0,0,1,1.6-.209,6.364,6.364,0,0,1,1.695.218,4.243,4.243,0,0,1,1.508.753,3.773,3.773,0,0,1,1.065,1.338A4.526,4.526,0,0,1,42.636-7.1l.035,1.034H40.806a4.714,4.714,0,0,1,.827.466,3.435,3.435,0,0,1,1.024,1.142,3.5,3.5,0,0,1,.4,1.719,3.5,3.5,0,0,1-.511,1.9A3.944,3.944,0,0,1,41.32.388a5.006,5.006,0,0,1-1.564.649,7.108,7.108,0,0,1-1.605.187A6.888,6.888,0,0,1,36.291.977a4.937,4.937,0,0,1-1.648-.8,4.025,4.025,0,0,1-1.191-1.447q-.029-.059-.056-.119a3.151,3.151,0,0,1-.273.545A3.944,3.944,0,0,1,31.9.388a5.006,5.006,0,0,1-1.564.649,7.108,7.108,0,0,1-1.605.187A6.888,6.888,0,0,1,26.869.977a4.937,4.937,0,0,1-1.648-.8,4.025,4.025,0,0,1-1.191-1.447,3.913,3.913,0,0,1-.259-.679A4.941,4.941,0,0,1,22.557-.1a5.192,5.192,0,0,1-3.713,1.325A5.828,5.828,0,0,1,16.4.734,5,5,0,0,1,14.6-.64a5.736,5.736,0,0,1-1.045-2,8.079,8.079,0,0,1-.33-2.333,7.7,7.7,0,0,1,.356-2.357,5.959,5.959,0,0,1,1.087-2.007A5.221,5.221,0,0,1,16.5-10.728,5.794,5.794,0,0,1,18.956-11.234Zm5.2,5.248H20.931l-.167-.794a1.483,1.483,0,0,0-.58-.982,2.1,2.1,0,0,0-1.241-.352,2.286,2.286,0,0,0-1.066.221,2.02,2.02,0,0,0-.708.607,2.92,2.92,0,0,0-.452.966,4.818,4.818,0,0,0-.162,1.252A5.508,5.508,0,0,0,16.719-3.7a2.893,2.893,0,0,0,.449.99,2,2,0,0,0,.711.605,2.328,2.328,0,0,0,1.077.223,2,2,0,0,0,.778-.137,1.642,1.642,0,0,0,.553-.375,1.766,1.766,0,0,0,.371-.59,2.835,2.835,0,0,0,.184-.849l.064-.932h3.373l-.049.476H25.9a4.871,4.871,0,0,1-.53-.289,3.215,3.215,0,0,1-1.052-1.073A2.658,2.658,0,0,1,24.153-5.986Zm5.854-.531-.047-.45c-.066-.634-.295-.8-.37-.855a1.872,1.872,0,0,0-1.113-.292,3.083,3.083,0,0,0-.623.063,1.211,1.211,0,0,0-.4.15.474.474,0,0,0-.165.174.663.663,0,0,0-.056.321.323.323,0,0,0,.006.068,1.082,1.082,0,0,0,.367.221,5.155,5.155,0,0,0,.861.25c.389.081.791.17,1.2.265Q29.836-6.561,30.006-6.517Zm9.422,0-.047-.45c-.066-.634-.295-.8-.37-.855A1.872,1.872,0,0,0,37.9-8.114a3.083,3.083,0,0,0-.623.063,1.211,1.211,0,0,0-.4.15.474.474,0,0,0-.165.174.664.664,0,0,0-.056.321.322.322,0,0,0,.006.068,1.082,1.082,0,0,0,.367.221,5.157,5.157,0,0,0,.861.25c.389.081.792.17,1.2.265Q39.258-6.561,39.428-6.517ZM28.77-1.882a3.986,3.986,0,0,0,.721-.067,1.678,1.678,0,0,0,.514-.177.631.631,0,0,0,.233-.219A.682.682,0,0,0,30.3-2.7a.355.355,0,0,0-.036-.193,1.034,1.034,0,0,0-.373-.258,4.359,4.359,0,0,0-.836-.265l-1.173-.26c-.346-.077-.691-.166-1.029-.264v.653a1.293,1.293,0,0,0,.125.611,1.229,1.229,0,0,0,.357.418,1.714,1.714,0,0,0,.592.272A3.292,3.292,0,0,0,28.77-1.882Zm9.422,0a3.986,3.986,0,0,0,.721-.067,1.678,1.678,0,0,0,.514-.177.631.631,0,0,0,.233-.219.681.681,0,0,0,.066-.357.355.355,0,0,0-.036-.193,1.034,1.034,0,0,0-.373-.258,4.359,4.359,0,0,0-.836-.265l-1.173-.26c-.346-.077-.691-.166-1.029-.264v.653a1.293,1.293,0,0,0,.125.611,1.229,1.229,0,0,0,.357.418,1.714,1.714,0,0,0,.592.272A3.292,3.292,0,0,0,38.192-1.882Zm14.294-9.352a5.741,5.741,0,0,1,2.522.534,5.42,5.42,0,0,1,1.833,1.425,5.975,5.975,0,0,1,1.085,2.007q.07.22.126.445V-8.238h3.19v5.9c0,.258.075.332.1.357a.529.529,0,0,0,.371.1,1.461,1.461,0,0,0,.557-.09.779.779,0,0,0,.3-.208,1.053,1.053,0,0,0,.2-.374,1.951,1.951,0,0,0,.085-.6V-8.238h3.794v-2.17h3.19v2.17h4.34v.024a4.6,4.6,0,0,1,1.338-.192,4.266,4.266,0,0,1,1.906.412A3.981,3.981,0,0,1,78.8-6.883a4.691,4.691,0,0,1,.793,1.537l0,.013v-2.9h3.19v5.9c0,.258.075.332.1.357a.529.529,0,0,0,.371.1,1.461,1.461,0,0,0,.557-.09.78.78,0,0,0,.3-.208,1.053,1.053,0,0,0,.2-.374,1.952,1.952,0,0,0,.085-.6V-8.238h3.794v-2.17h3.19v2.17h1.442v3.05H91.384V-2.05h1.442V1h-1.91a5.205,5.205,0,0,1-.979-.081,2.15,2.15,0,0,1-.982-.443,1.972,1.972,0,0,1-.616-.943,3.68,3.68,0,0,1-.145-1.115V-5.188h-.6V1H84.47V.931a4.127,4.127,0,0,1-1.38.223,4.181,4.181,0,0,1-1.559-.26A2.894,2.894,0,0,1,80.365.069a3.028,3.028,0,0,1-.618-1.237,5.054,5.054,0,0,1-.124-.754l-.018.064a4.438,4.438,0,0,1-.8,1.542A3.909,3.909,0,0,1,77.42.764a4.364,4.364,0,0,1-1.876.39,4.59,4.59,0,0,1-.763-.07,4.271,4.271,0,0,1-.6-.149V3.758h-3.19V1H69.37a5.206,5.206,0,0,1-.979-.081A2.15,2.15,0,0,1,67.41.476a1.972,1.972,0,0,1-.616-.943,3.681,3.681,0,0,1-.145-1.115V-5.188h-.6V1h-3.12V.931a4.127,4.127,0,0,1-1.38.223,4.181,4.181,0,0,1-1.559-.26A2.894,2.894,0,0,1,58.819.069,3.028,3.028,0,0,1,58.2-1.168a5.5,5.5,0,0,1-.148-1.31v-.694q-.056.224-.126.445A5.975,5.975,0,0,1,56.841-.721,5.345,5.345,0,0,1,55,.7a5.808,5.808,0,0,1-2.516.524A5.808,5.808,0,0,1,49.97.7a5.345,5.345,0,0,1-1.838-1.42,5.975,5.975,0,0,1-1.085-2.007A7.47,7.47,0,0,1,46.7-5a7.47,7.47,0,0,1,.348-2.27,5.975,5.975,0,0,1,1.085-2.007A5.42,5.42,0,0,1,49.964-10.7,5.741,5.741,0,0,1,52.486-11.234Zm0,9.352a2.279,2.279,0,0,0,1.091-.236,2.143,2.143,0,0,0,.741-.647,3.03,3.03,0,0,0,.464-1A4.789,4.789,0,0,0,54.944-5a4.789,4.789,0,0,0-.162-1.233,3.03,3.03,0,0,0-.464-1,2.143,2.143,0,0,0-.741-.647,2.279,2.279,0,0,0-1.091-.236,2.279,2.279,0,0,0-1.091.236,2.143,2.143,0,0,0-.741.647,3.03,3.03,0,0,0-.464,1A4.789,4.789,0,0,0,50.028-5a4.789,4.789,0,0,0,.162,1.233,3.03,3.03,0,0,0,.464,1,2.143,2.143,0,0,0,.741.647A2.279,2.279,0,0,0,52.486-1.882Zm22.932,0a1.1,1.1,0,0,0,.53-.1.919.919,0,0,0,.323-.3,1.76,1.76,0,0,0,.229-.572,3.783,3.783,0,0,0,.088-.819,2.717,2.717,0,0,0-.1-.721,1.658,1.658,0,0,0-.253-.541.994.994,0,0,0-.354-.3,1.157,1.157,0,0,0-.536-.11,1.085,1.085,0,0,0-.529.108,1.052,1.052,0,0,0-.356.321,1.6,1.6,0,0,0-.236.543,3.216,3.216,0,0,0-.091.758,3.19,3.19,0,0,0,.1.783,1.544,1.544,0,0,0,.24.535A1.042,1.042,0,0,0,74.838-2,1.248,1.248,0,0,0,75.418-1.882Zm-4.43-3.306h-1.15V-2.05h1.15Z" transform="translate(22 34)" fill="#1e1e1e"/><g transform="translate(-162.125 -191.329)"><path d="M584.375,453.213c-1.06-1.875-1.954-2.153-2.819-2.153-1.278,0-2.162,1.181-2.731,2.227l-2.264,4.648.616,1.009a8.444,8.444,0,0,0,11.366,3.565l.588-.306Z" transform="translate(-32.432 -11.133)" fill="url(#e)"/><path d="M520.925,453.213c1.06-1.875,1.954-2.153,2.819-2.153,1.278,0,2.162,1.181,2.731,2.227l2.264,4.648-.616,1.009a8.444,8.444,0,0,1-11.366,3.565l-.588-.306Z" transform="translate(0 -11.133)" fill="url(#f)"/><path d="M554.54,432.862a4.678,4.678,0,0,0-8.287-.051l-2.44,4.676-2.44-4.676a4.678,4.678,0,0,0-8.287.051l-3.176,6.143c1.509-1.713,3.62-.7,4.542,1.037l3.426,6.306,1.75,3.352a4.615,4.615,0,0,0,2,2.028,4.845,4.845,0,0,0,4.38,0,4.616,4.616,0,0,0,2-2.028l1.75-3.352,3.426-6.306c.921-1.741,3.032-2.75,4.542-1.037Z" transform="translate(-7.379)" fill="url(#g)"/></g><g transform="translate(116.478 71.862)"><path d="M720.186,173.7h-5.538a.622.622,0,1,1,0-1.244h5.538a.622.622,0,1,1,0,1.244Z" transform="translate(-384.356 1.1)" fill="#fff"/><path d="M622.579,183.606h0a.767.767,0,0,1-.766-.766v-9.616a.767.767,0,0,1,.766-.766h0a.766.766,0,0,1,.766.766v9.616A.766.766,0,0,1,622.579,183.606Z" transform="translate(-336.171 1.102)" fill="#fff"/><path d="M638.882,187.7h0a.766.766,0,0,1-.766-.766v-6.108a.766.766,0,0,1,.766-.766h0a.766.766,0,0,1,.766.766v6.108A.766.766,0,0,1,638.882,187.7Z" transform="translate(-344.951 -2.992)" fill="#fff"/><path d="M655.485,190.135h0a.766.766,0,0,1-.766-.766v-4.022a.766.766,0,0,1,.766-.766h0a.766.766,0,0,1,.766.766v4.022A.766.766,0,0,1,655.485,190.135Z" transform="translate(-353.892 -5.426)" fill="#fff"/><path d="M683.766,183.606h0a.766.766,0,0,1-.766-.766v-9.616a.766.766,0,0,1,.766-.766h0a.766.766,0,0,1,.766.766v9.616A.766.766,0,0,1,683.766,183.606Z" transform="translate(-368.631 1.102)" fill="#fff"/><path d="M759.819,183.606h0a.766.766,0,0,1-.766-.766v-9.616a.766.766,0,0,1,.766-.766h0a.766.766,0,0,1,.766.766v9.616A.766.766,0,0,1,759.819,183.606Z" transform="translate(-407.621 1.102)" fill="#fff"/><path d="M692.679,190.587a.766.766,0,1,1-.766-.766A.766.766,0,0,1,692.679,190.587Z" transform="translate(-372.531 -8.249)" fill="#fff"/><path d="M709.246,175.73a.766.766,0,1,1-.766-.766A.766.766,0,0,1,709.246,175.73Z" transform="translate(-381.443 -0.248)" fill="#fff"/><path d="M751.477,190.272a.766.766,0,1,1-.766-.766A.765.765,0,0,1,751.477,190.272Z" transform="translate(-403.195 -8.099)" fill="#fff"/><path d="M769.456,173.006a.766.766,0,1,1-.766-.766A.766.766,0,0,1,769.456,173.006Z" transform="translate(-412.399 1.219)" fill="#fff"/><path d="M721.98,181.213h-.353a3.934,3.934,0,0,1-3.929-3.929v-8.925a.766.766,0,0,1,1.532,0v8.925a2.4,2.4,0,0,0,2.4,2.4h.353a.766.766,0,1,1,0,1.532Z" transform="translate(-386.334 3.722)" fill="#fff"/><path d="M683.031,183.828c0-.209-.012-.411-.031-.608v1.226C683.019,184.245,683.031,184.041,683.031,183.828Z" transform="translate(-368.631 -4.694)" fill="#fff"/><path d="M667.926,182.244c-2.438,0-4.031-1.689-4.031-4.463,0-2.745,1.593-4.434,3.992-4.434a3.88,3.88,0,0,1,4,3.825v-2.395a4.356,4.356,0,0,0-4.281-2.786c-2.75,0-5.242,1.868-5.242,5.789,0,3.949,2.5,5.828,5.271,5.828h0a4.338,4.338,0,0,0,4.253-2.775V178.4A3.861,3.861,0,0,1,667.926,182.244Z" transform="translate(-357.517 1.352)" fill="#fff"/><path d="M649.345,171.993h0Z" transform="translate(-350.998 1.352)" fill="#fff"/><path d="M640.318,177.865c0-3.988-1.088-5.872-4.011-5.872a3.942,3.942,0,0,0-4.093,2.968c-.559-2.03-1.538-2.939-3.571-2.939a3.5,3.5,0,0,0-3.508,2.64v3.518c0-3.208.918-4.782,3.142-4.782,2.174,0,2.845,1.387,2.845,4.59v3.764h1.532v-3.8c0-3.156.9-4.587,3.133-4.587,2.2,0,3,1.428,3,4.589v3.793h1.532Z" transform="translate(-337.959 1.352)" fill="#fff"/><path d="M693.233,175.091c0-1.083,1.154-1.73,2.892-1.73A3.734,3.734,0,0,1,699,174.535l1.323-.773h0c-.659-.993-2.606-1.721-4.217-1.725-2.468-.006-4.386,1.193-4.386,3.109,0,4.254,7.69,2.146,7.69,5.08,0,1.231-1.2,1.984-3.149,1.984a4.341,4.341,0,0,1-3.565-1.559l-1.352.721c.816,1.382,2.912,2.2,4.918,2.2,2.779,0,4.693-1.357,4.693-3.38C700.954,175.842,693.233,178.009,693.233,175.091Z" transform="translate(-372.633 1.329)" fill="#fff"/><path d="M750.931,182.38h0Z" transform="translate(-403.739 -4.242)" fill="#fff"/><path d="M740.94,181.145l-.058.08-.955-.545-.431-.027c-.486,1.046-1.786,1.574-3.319,1.574a3.873,3.873,0,0,1-4.146-4.159h8.707a.6.6,0,0,0,.677-.676c-.064-3.243-2.13-5.4-5.366-5.4-3.287,0-5.551,2.358-5.551,5.789,0,3.488,2.234,5.788,5.658,5.788h0A5.181,5.181,0,0,0,740.94,181.145Zm-4.87-7.858a3.551,3.551,0,0,1,3.856,3.5h-7.837A3.757,3.757,0,0,1,736.07,173.287Z" transform="translate(-392.735 1.352)" fill="#fff"/><path d="M765.7,172.229a3.05,3.05,0,0,0-3.328,2.142v3.348c0-2.572.981-4.1,3.224-3.965l.417-.977Z" transform="translate(-409.409 1.23)" fill="#fff"/><path d="M-2326.6,368.365a5.225,5.225,0,0,1-3.722-1.453,6.082,6.082,0,0,1-1.617-4.444,6.036,6.036,0,0,1,1.61-4.414,5.2,5.2,0,0,1,3.7-1.444,4.944,4.944,0,0,1,2.624.707,4.214,4.214,0,0,1,1.589,1.809v-1.466a.836.836,0,0,1,.835-.835.836.836,0,0,1,.835.835v9.616a.836.836,0,0,1-.835.835.836.836,0,0,1-.835-.835v-1.413a4.166,4.166,0,0,1-1.574,1.792A4.909,4.909,0,0,1-2326.6,368.365Zm-.029-11.616a5.062,5.062,0,0,0-3.6,1.4,5.9,5.9,0,0,0-1.569,4.316,5.948,5.948,0,0,0,1.577,4.346,5.087,5.087,0,0,0,3.625,1.413,4.77,4.77,0,0,0,2.537-.689,4.05,4.05,0,0,0,1.646-2.029v-1.588A3.811,3.811,0,0,1-2326.3,367a3.908,3.908,0,0,1-2.981-1.214,4.815,4.815,0,0,1-1.119-3.318,4.781,4.781,0,0,1,1.114-3.293,3.86,3.86,0,0,1,2.946-1.21,3.962,3.962,0,0,1,2.8,1.044,4.129,4.129,0,0,1,1.133,2.028v-1.559a4.054,4.054,0,0,0-1.661-2.043A4.807,4.807,0,0,0-2326.625,356.749Zm5.048.215a.7.7,0,0,0-.7.7v9.616a.7.7,0,0,0,.7.7.7.7,0,0,0,.7-.7v-9.616A.7.7,0,0,0-2321.578,356.964Zm-4.765,1.14a3.725,3.725,0,0,0-2.844,1.165,4.649,4.649,0,0,0-1.078,3.2,4.681,4.681,0,0,0,1.083,3.225,3.774,3.774,0,0,0,2.879,1.169,3.8,3.8,0,0,0,3.89-3.783h0v-1.213A3.808,3.808,0,0,0-2326.343,358.1Zm25.276,10.234h-.353a4,4,0,0,1-4-4v-6.132h-1a.692.692,0,0,1-.691-.691.691.691,0,0,1,.691-.691h1v-1.411a.836.836,0,0,1,.834-.835.836.836,0,0,1,.835.835v1.411h2.865a.692.692,0,0,1,.691.691.692.692,0,0,1-.691.691h-2.865v6.132a2.331,2.331,0,0,0,2.328,2.328h.353a.836.836,0,0,1,.835.835A.836.836,0,0,1-2301.067,368.338Zm-5.354-11.373a.554.554,0,0,0-.553.553.554.554,0,0,0,.553.553h1.141v6.27a3.865,3.865,0,0,0,3.86,3.86h.353a.7.7,0,0,0,.7-.7.7.7,0,0,0-.7-.7h-.353a2.468,2.468,0,0,1-2.466-2.465v-6.27h3a.554.554,0,0,0,.553-.553.554.554,0,0,0-.553-.553h-3v-1.549a.7.7,0,0,0-.7-.7.7.7,0,0,0-.7.7v1.549Zm13.129,11.362a5.647,5.647,0,0,1-4.162-1.607,5.927,5.927,0,0,1-1.564-4.25,6.756,6.756,0,0,1,.409-2.376,5.383,5.383,0,0,1,1.153-1.853,5.12,5.12,0,0,1,1.778-1.2,6.014,6.014,0,0,1,2.28-.427,5.175,5.175,0,0,1,5.435,5.466.725.725,0,0,1-.183.545.754.754,0,0,1-.563.2h-8.637a4.2,4.2,0,0,0,1.12,2.936,4.065,4.065,0,0,0,2.955,1.085c1.593,0,2.81-.574,3.257-1.534l.016-.035a.841.841,0,0,1,.8-.6.835.835,0,0,1,.834.835.836.836,0,0,1-.183.522,4.578,4.578,0,0,1-1.946,1.721,6.4,6.4,0,0,1-2.658.575h-.143Zm-.083-.138h.083a6.341,6.341,0,0,0,2.742-.563,4.439,4.439,0,0,0,1.891-1.673l.005-.007a.7.7,0,0,0,.155-.438.7.7,0,0,0-.7-.7.7.7,0,0,0-.679.544l-.013.057h-.02a2.562,2.562,0,0,1-1.281,1.17,5.08,5.08,0,0,1-2.081.4,4.2,4.2,0,0,1-3.052-1.126,4.365,4.365,0,0,1-1.162-3.1v-.07h8.777a.625.625,0,0,0,.464-.159.6.6,0,0,0,.143-.446,5.531,5.531,0,0,0-1.473-3.869,5.213,5.213,0,0,0-3.823-1.462,5.88,5.88,0,0,0-2.228.417,4.99,4.99,0,0,0-1.73,1.17,5.252,5.252,0,0,0-1.123,1.806,6.615,6.615,0,0,0-.4,2.328,5.8,5.8,0,0,0,1.525,4.154A5.489,5.489,0,0,0-2293.375,368.188Zm-19.708.118a7.608,7.608,0,0,1-2.857-.557,4.433,4.433,0,0,1-2.044-1.559.838.838,0,0,1-.18-.518.836.836,0,0,1,.835-.835.833.833,0,0,1,.725.421l.011.014a4.252,4.252,0,0,0,3.511,1.532,4.319,4.319,0,0,0,2.27-.52,1.6,1.6,0,0,0,.81-1.4,1.372,1.372,0,0,0-.967-1.289,10.481,10.481,0,0,0-2.289-.588c-2.078-.385-4.434-.822-4.434-3.2a2.751,2.751,0,0,1,1.292-2.329,5.618,5.618,0,0,1,3.146-.85h.016a6.975,6.975,0,0,1,2.375.452,4.255,4.255,0,0,1,1.787,1.151.83.83,0,0,1,.237.582.836.836,0,0,1-.835.835.837.837,0,0,1-.688-.362h0l-.037-.05a3.657,3.657,0,0,0-2.819-1.147,4.136,4.136,0,0,0-2.062.449,1.38,1.38,0,0,0-.76,1.212,1.346,1.346,0,0,0,.957,1.267,10.415,10.415,0,0,0,2.272.573c2.106.381,4.492.813,4.492,3.263a3,3,0,0,1-1.333,2.5A5.857,5.857,0,0,1-2313.084,368.307Zm-4.247-3.331a.7.7,0,0,0-.7.7.693.693,0,0,0,.152.435l0,.005a4.294,4.294,0,0,0,1.984,1.51,7.463,7.463,0,0,0,2.8.546,5.722,5.722,0,0,0,3.348-.918,2.863,2.863,0,0,0,1.276-2.393,2.419,2.419,0,0,0-1.393-2.292,10.521,10.521,0,0,0-2.986-.836c-1.719-.311-3.342-.6-3.342-1.976a1.51,1.51,0,0,1,.828-1.331,4.273,4.273,0,0,1,2.133-.468,3.855,3.855,0,0,1,2.893,1.154l.012-.007.035.061a.7.7,0,0,0,.606.352.7.7,0,0,0,.7-.7.693.693,0,0,0-.2-.488l0,0a5.8,5.8,0,0,0-4.057-1.554h-.016a5.482,5.482,0,0,0-3.068.826,2.62,2.62,0,0,0-1.232,2.215,2.363,2.363,0,0,0,1.371,2.233,10.6,10.6,0,0,0,2.95.834c1.733.321,3.369.624,3.369,2.013a1.732,1.732,0,0,1-.874,1.512,4.454,4.454,0,0,1-2.344.541,4.4,4.4,0,0,1-3.585-1.54l-.013.007-.032-.061A.7.7,0,0,0-2317.331,364.975Zm32.816,3.136a.836.836,0,0,1-.835-.835v-9.616a.836.836,0,0,1,.835-.835.836.836,0,0,1,.835.835v.913a3.044,3.044,0,0,1,2.968-1.858c.1,0,.194,0,.293.009a.836.836,0,0,1,.832.835.836.836,0,0,1-.834.835.846.846,0,0,1-.112-.007,2.594,2.594,0,0,0-2.453,1.025,5,5,0,0,0-.694,2.871v4.993A.836.836,0,0,1-2284.515,368.112Zm0-11.148a.7.7,0,0,0-.7.7v9.616a.7.7,0,0,0,.7.7.7.7,0,0,0,.7-.7v-9.616A.7.7,0,0,0-2284.515,356.964Zm.835,1.983v1.828a3.823,3.823,0,0,1,.581-1.441,2.725,2.725,0,0,1,2.576-1.083h.005a.706.706,0,0,0,.1.007.7.7,0,0,0,.7-.7.7.7,0,0,0-.7-.7h0c-.1-.006-.193-.009-.286-.009A2.953,2.953,0,0,0-2283.68,358.947Zm-51.44,9.165a.836.836,0,0,1-.835-.835v-4.63a6.552,6.552,0,0,0-.665-3.444,2.421,2.421,0,0,0-2.264-1.077c-2.091,0-3.007,1.264-3.062,4.228v4.924a.836.836,0,0,1-.835.835.836.836,0,0,1-.834-.835v-.768h0v-3.834a7.089,7.089,0,0,0-.6-3.461,2.27,2.27,0,0,0-2.178-1.06c-2.125,0-3.073,1.453-3.073,4.713v4.41a.836.836,0,0,1-.835.835.836.836,0,0,1-.835-.835v-9.616a.836.836,0,0,1,.835-.835.836.836,0,0,1,.835.835v1.246a3.5,3.5,0,0,1,1.094-1.488,3.731,3.731,0,0,1,2.345-.779c1.927,0,2.976.805,3.573,2.765a4.007,4.007,0,0,1,4.091-2.794,3.471,3.471,0,0,1,3.159,1.472,8.166,8.166,0,0,1,.921,4.469v4.724A.836.836,0,0,1-2335.12,368.112Zm-3.765-10.124a2.577,2.577,0,0,1,2.381,1.141,6.664,6.664,0,0,1,.687,3.517v4.63a.7.7,0,0,0,.7.7.7.7,0,0,0,.7-.7v-4.724a8.16,8.16,0,0,0-.9-4.394,3.343,3.343,0,0,0-3.044-1.41,3.881,3.881,0,0,0-4.026,2.917l-.066.241-.066-.241a4.2,4.2,0,0,0-1.21-2.2,3.376,3.376,0,0,0-2.294-.692,3.6,3.6,0,0,0-2.26.749,3.387,3.387,0,0,0-1.18,1.83v1.622a4.665,4.665,0,0,1,.61-1.743,2.688,2.688,0,0,1,2.463-1.22,2.4,2.4,0,0,1,2.3,1.128,7.112,7.112,0,0,1,.616,3.531v3.7h0v.906a.7.7,0,0,0,.7.7.7.7,0,0,0,.7-.7v-4.925a5.871,5.871,0,0,1,.786-3.295A2.744,2.744,0,0,1-2338.885,357.987Zm-11.419-1.024a.7.7,0,0,0-.7.7v9.616a.7.7,0,0,0,.7.7.7.7,0,0,0,.7-.7v-9.616A.7.7,0,0,0-2350.3,356.964Zm60.855,4.579h-7.988l.009-.077a4.038,4.038,0,0,1,1.3-2.622,4.114,4.114,0,0,1,2.751-.938,3.621,3.621,0,0,1,3.925,3.565Zm-7.832-.138h7.685a3.574,3.574,0,0,0-1.092-2.431,3.889,3.889,0,0,0-2.69-.931,3.981,3.981,0,0,0-2.661.9A3.877,3.877,0,0,0-2297.281,361.4Z" transform="translate(2636.713 -183.334)" fill="#fff"/><path d="M-2326.712,368.5a5.469,5.469,0,0,1-3.895-1.524,6.321,6.321,0,0,1-1.69-4.619,6.275,6.275,0,0,1,1.683-4.589,5.442,5.442,0,0,1,3.874-1.515,5.19,5.19,0,0,1,2.755.745,4.412,4.412,0,0,1,1.212,1.124v-.573a1.082,1.082,0,0,1,1.081-1.081,1.083,1.083,0,0,1,1.082,1.081v9.616a1.083,1.083,0,0,1-1.082,1.082,1.082,1.082,0,0,1-1.081-1.082v-.519a4.387,4.387,0,0,1-1.2,1.107A5.153,5.153,0,0,1-2326.712,368.5Zm-.028-11.754a4.953,4.953,0,0,0-3.527,1.373,5.8,5.8,0,0,0-1.537,4.239,5.843,5.843,0,0,0,1.545,4.269,4.98,4.98,0,0,0,3.548,1.381,4.661,4.661,0,0,0,2.48-.672,3.934,3.934,0,0,0,1.481-1.686l.469.1v1.412a.589.589,0,0,0,.589.589.59.59,0,0,0,.589-.589v-9.616a.589.589,0,0,0-.589-.589.589.589,0,0,0-.589.589v1.467l-.469.1a3.986,3.986,0,0,0-1.5-1.7A4.7,4.7,0,0,0-2326.74,356.743Zm25.558,11.727h-.352a4.249,4.249,0,0,1-4.244-4.244v-5.885h-.758a.938.938,0,0,1-.937-.937.938.938,0,0,1,.937-.936h.758V355.3a1.082,1.082,0,0,1,1.081-1.081,1.082,1.082,0,0,1,1.081,1.081v1.165H-2301a.938.938,0,0,1,.937.936.938.938,0,0,1-.937.937h-2.618v5.885a2.084,2.084,0,0,0,2.082,2.082h.352a1.083,1.083,0,0,1,1.082,1.081A1.083,1.083,0,0,1-2301.182,368.471Zm-5.354-11.511a.445.445,0,0,0-.444.444.445.445,0,0,0,.444.445h1l.246.246v6.132a3.756,3.756,0,0,0,3.752,3.752h.352a.59.59,0,0,0,.59-.589.59.59,0,0,0-.59-.589h-.352a2.577,2.577,0,0,1-2.574-2.574v-6.132l.246-.246H-2301a.445.445,0,0,0,.445-.445.445.445,0,0,0-.445-.444h-2.865l-.246-.246V355.3a.59.59,0,0,0-.589-.589.589.589,0,0,0-.589.589v1.412l-.246.246Zm13.129,11.5h0a5.885,5.885,0,0,1-4.338-1.681,6.169,6.169,0,0,1-1.635-4.423,6.994,6.994,0,0,1,.425-2.463,5.625,5.625,0,0,1,1.205-1.937,5.368,5.368,0,0,1,1.863-1.26,6.254,6.254,0,0,1,2.373-.445,5.6,5.6,0,0,1,4.081,1.56,5.9,5.9,0,0,1,1.6,4.147.961.961,0,0,1-.252.722.991.991,0,0,1-.74.275h-8.378a3.856,3.856,0,0,0,1.035,2.515,3.827,3.827,0,0,0,2.781,1.013c1.494,0,2.628-.52,3.034-1.392l.009-.019a1.085,1.085,0,0,1,1.031-.76,1.081,1.081,0,0,1,1.08,1.08,1.082,1.082,0,0,1-.228.665,4.816,4.816,0,0,1-2.042,1.8,6.635,6.635,0,0,1-2.759.6v0l0,0Zm-.107-11.715a5.766,5.766,0,0,0-2.187.409,4.874,4.874,0,0,0-1.693,1.144,5.132,5.132,0,0,0-1.1,1.769,6.5,6.5,0,0,0-.394,2.29,5.69,5.69,0,0,0,1.494,4.079,5.407,5.407,0,0,0,3.985,1.532h.139a6.148,6.148,0,0,0,2.556-.551,4.335,4.335,0,0,0,1.844-1.629l.016-.023a.593.593,0,0,0,.129-.368.589.589,0,0,0-.588-.588.591.591,0,0,0-.565.424l-.014.036-.016.035c-.488,1.05-1.789,1.676-3.48,1.676a4.3,4.3,0,0,1-3.129-1.158,4.449,4.449,0,0,1-1.192-3.1l.246-.253h8.636a.522.522,0,0,0,.387-.127.492.492,0,0,0,.113-.368,5.416,5.416,0,0,0-1.456-3.81A5.118,5.118,0,0,0-2293.513,356.743Zm-19.686,11.7a7.854,7.854,0,0,1-2.951-.576,4.685,4.685,0,0,1-2.15-1.643,1.084,1.084,0,0,1-.226-.662,1.082,1.082,0,0,1,1.081-1.081,1.085,1.085,0,0,1,.931.531v0a4.015,4.015,0,0,0,3.313,1.434,4.09,4.09,0,0,0,2.14-.482,1.35,1.35,0,0,0,.695-1.187c0-.476-.254-.8-.824-1.065a10.315,10.315,0,0,0-2.231-.57,10.785,10.785,0,0,1-3.069-.878,2.717,2.717,0,0,1-1.567-2.566,2.989,2.989,0,0,1,1.4-2.531,5.867,5.867,0,0,1,3.286-.893h.016a7.228,7.228,0,0,1,2.462.467,4.516,4.516,0,0,1,1.884,1.218,1.076,1.076,0,0,1,.3.746,1.082,1.082,0,0,1-1.081,1.081,1.082,1.082,0,0,1-.887-.463h0l-.037-.051a3.455,3.455,0,0,0-2.62-1.045,3.9,3.9,0,0,0-1.938.415,1.132,1.132,0,0,0-.638,1c0,.468.25.789.812,1.043a10.271,10.271,0,0,0,2.214.555,10.729,10.729,0,0,1,3.109.881,2.772,2.772,0,0,1,1.586,2.625,3.233,3.233,0,0,1-1.436,2.705A6.1,6.1,0,0,1-2313.2,368.439Zm-4.246-3.469a.589.589,0,0,0-.589.589.591.591,0,0,0,.127.365l.012.018a4.19,4.19,0,0,0,1.933,1.468,7.355,7.355,0,0,0,2.762.538,5.619,5.619,0,0,0,3.286-.9,2.759,2.759,0,0,0,1.23-2.3,2.289,2.289,0,0,0-1.327-2.191,10.391,10.391,0,0,0-2.963-.83,10.558,10.558,0,0,1-2.329-.591,1.586,1.586,0,0,1-1.1-1.492,1.614,1.614,0,0,1,.881-1.424,4.379,4.379,0,0,1,2.188-.483,4.7,4.7,0,0,1,1.753.338,2.9,2.9,0,0,1,1.264.909l.037.051-.005,0h.01a.59.59,0,0,0,.486.256.59.59,0,0,0,.589-.589.585.585,0,0,0-.167-.41l-.015-.016a4.016,4.016,0,0,0-1.682-1.076,6.724,6.724,0,0,0-2.289-.436h-.016a5.373,5.373,0,0,0-3.007.807,2.515,2.515,0,0,0-1.185,2.125,2.234,2.234,0,0,0,1.307,2.133,10.443,10.443,0,0,0,2.924.828,10.6,10.6,0,0,1,2.347.607,1.611,1.611,0,0,1,1.111,1.512,1.837,1.837,0,0,1-.925,1.6,4.56,4.56,0,0,1-2.4.558,4.491,4.491,0,0,1-3.707-1.63l-.012-.017-.015-.023A.591.591,0,0,0-2317.445,364.97Zm32.816,3.274a1.083,1.083,0,0,1-1.081-1.082v-9.616a1.082,1.082,0,0,1,1.081-1.081,1.082,1.082,0,0,1,1.081,1.081v.033a3.188,3.188,0,0,1,.557-.549,3.468,3.468,0,0,1,2.165-.675c.1,0,.2,0,.3.009a1.083,1.083,0,0,1,1.071,1.081,1.082,1.082,0,0,1-1.081,1.081,1.116,1.116,0,0,1-.135-.008,2.362,2.362,0,0,0-2.229.921,4.768,4.768,0,0,0-.649,2.729v4.993A1.083,1.083,0,0,1-2284.629,368.244Zm0-11.286a.589.589,0,0,0-.589.589v9.616a.59.59,0,0,0,.589.589.59.59,0,0,0,.589-.589v-4.993a5.232,5.232,0,0,1,.739-3.013,2.742,2.742,0,0,1,2.391-1.138c.091,0,.184,0,.278.009l.017,0a.628.628,0,0,0,.08.005.59.59,0,0,0,.589-.589.59.59,0,0,0-.587-.589h-.015c-.093-.006-.186-.009-.277-.009a2.8,2.8,0,0,0-2.744,1.713l-.471-.1v-.913A.589.589,0,0,0-2284.629,356.958Zm-50.605,11.286a1.083,1.083,0,0,1-1.081-1.082v-4.63a6.342,6.342,0,0,0-.627-3.312,2.171,2.171,0,0,0-2.056-.962,2.361,2.361,0,0,0-2.095.9,5.5,5.5,0,0,0-.72,3.083v4.921a1.083,1.083,0,0,1-1.082,1.082,1.082,1.082,0,0,1-1.081-1.082V366.4l0,0V362.56a6.882,6.882,0,0,0-.564-3.336,2.022,2.022,0,0,0-1.966-.939,2.334,2.334,0,0,0-2.128,1.022,6.435,6.435,0,0,0-.7,3.444v4.41a1.083,1.083,0,0,1-1.081,1.082,1.083,1.083,0,0,1-1.082-1.082v-9.616a1.082,1.082,0,0,1,1.082-1.081,1.083,1.083,0,0,1,1.081,1.081v.288a3.713,3.713,0,0,1,.7-.723,3.974,3.974,0,0,1,2.5-.832,3.431,3.431,0,0,1,3.589,2.318,4.281,4.281,0,0,1,4.075-2.347,3.7,3.7,0,0,1,3.365,1.583,8.383,8.383,0,0,1,.961,4.6v4.724A1.083,1.083,0,0,1-2335.235,368.244ZM-2339,357.765a3.37,3.37,0,0,1,1.469.287,2.362,2.362,0,0,1,1,.905,6.762,6.762,0,0,1,.7,3.575v4.63a.59.59,0,0,0,.589.589.589.589,0,0,0,.589-.589v-4.724a7.946,7.946,0,0,0-.881-4.334,3.241,3.241,0,0,0-2.953-1.361,4.254,4.254,0,0,0-2.448.687,3.653,3.653,0,0,0-1.409,1.937l-.469-.005a3.765,3.765,0,0,0-1.2-1.995,3.34,3.34,0,0,0-2.135-.6,3.488,3.488,0,0,0-2.192.726,3.225,3.225,0,0,0-1.017,1.384l-.476-.089v-1.246a.589.589,0,0,0-.589-.589.589.589,0,0,0-.589.589v9.616a.59.59,0,0,0,.589.589.59.59,0,0,0,.589-.589v-4.41a6.875,6.875,0,0,1,.779-3.713,2.793,2.793,0,0,1,2.54-1.246,3.234,3.234,0,0,1,1.435.284,2.2,2.2,0,0,1,.955.9,7.292,7.292,0,0,1,.632,3.586v3.831l0,0v.768a.59.59,0,0,0,.589.589.59.59,0,0,0,.589-.589v-4.928a5.945,5.945,0,0,1,.814-3.365A2.847,2.847,0,0,1-2339,357.765Zm12.581,9.229a4.014,4.014,0,0,1-3.061-1.249,4.921,4.921,0,0,1-1.147-3.391,4.887,4.887,0,0,1,1.142-3.365,3.964,3.964,0,0,1,3.026-1.246,4.064,4.064,0,0,1,2.879,1.079,4.527,4.527,0,0,1,1.3,2.906v1.236l-.021.021.019,0a4.581,4.581,0,0,1-1.283,2.92A3.991,3.991,0,0,1-2326.418,366.995Zm-.04-8.758a3.485,3.485,0,0,0-2.662,1.085,4.407,4.407,0,0,0-1.014,3.034,4.442,4.442,0,0,0,1.019,3.059,3.534,3.534,0,0,0,2.7,1.089,3.509,3.509,0,0,0,2.51-.947,4.1,4.1,0,0,0,1.135-2.606v-1.184a4.04,4.04,0,0,0-1.146-2.586A3.582,3.582,0,0,0-2326.458,358.236Zm36.748,3.3h-7.685l-.244-.28a4.122,4.122,0,0,1,1.325-2.609,4.221,4.221,0,0,1,2.822-.965,4.13,4.13,0,0,1,2.857,1,3.824,3.824,0,0,1,1.172,2.593Zm-7.394-.492h7.12a3.25,3.25,0,0,0-.985-2,3.649,3.649,0,0,0-2.524-.867,3.735,3.735,0,0,0-2.5.844A3.539,3.539,0,0,0-2297.1,361.044Z" transform="translate(2636.827 -183.22)" fill="#fff"/></g><text transform="translate(561 88)" fill="#f388c0" font-size="18" font-family="HelveticaNeue-Medium, Helvetica Neue" font-weight="500"><tspan x="-127.71" y="0">Traditional CSS</tspan></text></g></svg>