<svg xmlns="http://www.w3.org/2000/svg" xmlns:xlink="http://www.w3.org/1999/xlink" width="1200" height="400" viewBox="0 0 1200 400"><defs><radialGradient id="a" cx="0.5" cy="0.5" r="0.422" gradientUnits="objectBoundingBox"><stop offset="0" stop-color="#fff" stop-opacity="0.102"/><stop offset="1" stop-color="#fff" stop-opacity="0"/></radialGradient><linearGradient id="b" x1="0.5" y1="-1.054" x2="0.5" y2="1.002" gradientUnits="objectBoundingBox"><stop offset="0" stop-color="#c8861c"/><stop offset="0.323" stop-color="#e6a345"/><stop offset="1" stop-color="#f6db9b"/></linearGradient><linearGradient id="c" x1="21.397" y1="-1.054" x2="21.397" y2="1.002" gradientUnits="objectBoundingBox"><stop offset="0" stop-color="#c78a28"/><stop offset="0.323" stop-color="#e6a345"/><stop offset="1" stop-color="#f6db9b"/></linearGradient><linearGradient id="d" x1="0.156" y1="-0.44" x2="0.754" y2="1.009" gradientUnits="objectBoundingBox"><stop offset="0" stop-color="#fcdd98"/><stop offset="0.232" stop-color="#fada94"/><stop offset="0.407" stop-color="#f6d48b"/><stop offset="0.564" stop-color="#efc87b"/><stop offset="0.709" stop-color="#e6b864"/><stop offset="0.847" stop-color="#d9a346"/><stop offset="0.975" stop-color="#c98922"/><stop offset="1" stop-color="#e6a345"/></linearGradient><clipPath id="f"><rect width="1200" height="400"/></clipPath></defs><g id="e" clip-path="url(#f)"><path d="M1249.237,701H0V0H1300V701Zm.793-.794h49.177V650.985H1250.03Zm-49.969,0h49.176V650.985h-49.176Zm-49.969,0h49.176V650.985h-49.176Zm-49.969,0H1149.3V650.985h-49.176Zm-49.969,0h49.176V650.985h-49.176Zm-49.969,0h49.176V650.985h-49.176Zm-49.97,0H999.39V650.985H950.213Zm-49.969,0H949.42V650.985H900.244Zm-49.969,0h49.176V650.985H850.274Zm-49.969,0h49.176V650.985H800.305Zm-49.97,0h49.176V650.985H750.336Zm-49.969,0h49.176V650.985H700.366Zm-49.969,0h49.176V650.985H650.4Zm-49.969,0H649.6V650.985H600.427Zm-49.969,0h49.176V650.985H550.458Zm-49.97,0h49.176V650.985H500.488Zm-49.97,0h49.176V650.985H450.519Zm-49.97,0h49.176V650.985H400.549Zm-49.969,0h49.176V650.985H350.58Zm-49.97,0h49.176V650.985H300.61Zm-49.969,0h49.176V650.985H250.641Zm-49.969,0h49.176V650.985H200.671Zm-49.969,0h49.176V650.985H150.7Zm-49.97,0h49.176V650.985H100.732Zm-49.969,0H99.939V650.985H50.763Zm-49.969,0H49.969V650.985H.793ZM1250.03,650.191h49.177V600.971H1250.03Zm-49.969,0h49.176V600.971h-49.176Zm-49.969,0h49.176V600.971h-49.176Zm-49.969,0H1149.3V600.971h-49.176Zm-49.969,0h49.176V600.971h-49.176Zm-49.969,0h49.176V600.971h-49.176Zm-49.97,0H999.39V600.971H950.213Zm-49.969,0H949.42V600.971H900.244Zm-49.969,0h49.176V600.971H850.274Zm-49.969,0h49.176V600.971H800.305Zm-49.97,0h49.176V600.971H750.336Zm-49.969,0h49.176V600.971H700.366Zm-49.969,0h49.176V600.971H650.4Zm-49.969,0H649.6V600.971H600.427Zm-49.969,0h49.176V600.971H550.458Zm-49.97,0h49.176V600.971H500.488Zm-49.97,0h49.176V600.971H450.519Zm-49.97,0h49.176V600.971H400.549Zm-49.969,0h49.176V600.971H350.58Zm-49.97,0h49.176V600.971H300.61Zm-49.969,0h49.176V600.971H250.641Zm-49.969,0h49.176V600.971H200.671Zm-49.969,0h49.176V600.971H150.7Zm-49.97,0h49.176V600.971H100.732Zm-49.969,0H99.939V600.971H50.763Zm-49.969,0H49.969V600.971H.793ZM1250.03,600.177h49.177V550.956H1250.03Zm-49.969,0h49.176V550.956h-49.176Zm-49.969,0h49.176V550.956h-49.176Zm-49.969,0H1149.3V550.956h-49.176Zm-49.969,0h49.176V550.956h-49.176Zm-49.969,0h49.176V550.956h-49.176Zm-49.97,0H999.39V550.956H950.213Zm-49.969,0H949.42V550.956H900.244Zm-49.969,0h49.176V550.956H850.274Zm-49.969,0h49.176V550.956H800.305Zm-49.97,0h49.176V550.956H750.336Zm-49.969,0h49.176V550.956H700.366Zm-49.969,0h49.176V550.956H650.4Zm-49.969,0H649.6V550.956H600.427Zm-49.969,0h49.176V550.956H550.458Zm-49.97,0h49.176V550.956H500.488Zm-49.97,0h49.176V550.956H450.519Zm-49.97,0h49.176V550.956H400.549Zm-49.969,0h49.176V550.956H350.58Zm-49.97,0h49.176V550.956H300.61Zm-49.969,0h49.176V550.956H250.641Zm-49.969,0h49.176V550.956H200.671Zm-49.969,0h49.176V550.956H150.7Zm-49.97,0h49.176V550.956H100.732Zm-49.969,0H99.939V550.956H50.763Zm-49.969,0H49.969V550.956H.793ZM1250.03,550.162h49.177V500.941H1250.03Zm-49.969,0h49.176V500.941h-49.176Zm-49.969,0h49.176V500.941h-49.176Zm-49.969,0H1149.3V500.941h-49.176Zm-49.969,0h49.176V500.941h-49.176Zm-49.969,0h49.176V500.941h-49.176Zm-49.97,0H999.39V500.941H950.213Zm-49.969,0H949.42V500.941H900.244Zm-49.969,0h49.176V500.941H850.274Zm-49.969,0h49.176V500.941H800.305Zm-49.97,0h49.176V500.941H750.336Zm-49.969,0h49.176V500.941H700.366Zm-49.969,0h49.176V500.941H650.4Zm-49.969,0H649.6V500.941H600.427Zm-49.969,0h49.176V500.941H550.458Zm-49.97,0h49.176V500.941H500.488Zm-49.97,0h49.176V500.941H450.519Zm-49.97,0h49.176V500.941H400.549Zm-49.969,0h49.176V500.941H350.58Zm-49.97,0h49.176V500.941H300.61Zm-49.969,0h49.176V500.941H250.641Zm-49.969,0h49.176V500.941H200.671Zm-49.969,0h49.176V500.941H150.7Zm-49.97,0h49.176V500.941H100.732Zm-49.969,0H99.939V500.941H50.763Zm-49.969,0H49.969V500.941H.793ZM1250.03,500.147h49.177V450.926H1250.03Zm-49.969,0h49.176V450.926h-49.176Zm-49.969,0h49.176V450.926h-49.176Zm-49.969,0H1149.3V450.926h-49.176Zm-49.969,0h49.176V450.926h-49.176Zm-49.969,0h49.176V450.926h-49.176Zm-49.97,0H999.39V450.926H950.213Zm-49.969,0H949.42V450.926H900.244Zm-49.969,0h49.176V450.926H850.274Zm-49.969,0h49.176V450.926H800.305Zm-49.97,0h49.176V450.926H750.336Zm-49.969,0h49.176V450.926H700.366Zm-49.969,0h49.176V450.926H650.4Zm-49.969,0H649.6V450.926H600.427Zm-49.969,0h49.176V450.926H550.458Zm-49.97,0h49.176V450.926H500.488Zm-49.97,0h49.176V450.926H450.519Zm-49.97,0h49.176V450.926H400.549Zm-49.969,0h49.176V450.926H350.58Zm-49.97,0h49.176V450.926H300.61Zm-49.969,0h49.176V450.926H250.641Zm-49.969,0h49.176V450.926H200.671Zm-49.969,0h49.176V450.926H150.7Zm-49.97,0h49.176V450.926H100.732Zm-49.969,0H99.939V450.926H50.763Zm-49.969,0H49.969V450.926H.793ZM1250.03,450.133h49.177V400.912H1250.03Zm-49.969,0h49.176V400.912h-49.176Zm-49.969,0h49.176V400.912h-49.176Zm-49.969,0H1149.3V400.912h-49.176Zm-49.969,0h49.176V400.912h-49.176Zm-49.969,0h49.176V400.912h-49.176Zm-49.97,0H999.39V400.912H950.213Zm-49.969,0H949.42V400.912H900.244Zm-49.969,0h49.176V400.912H850.274Zm-49.969,0h49.176V400.912H800.305Zm-49.97,0h49.176V400.912H750.336Zm-49.969,0h49.176V400.912H700.366Zm-49.969,0h49.176V400.912H650.4Zm-49.969,0H649.6V400.912H600.427Zm-49.969,0h49.176V400.912H550.458Zm-49.97,0h49.176V400.912H500.488Zm-49.97,0h49.176V400.912H450.519Zm-49.97,0h49.176V400.912H400.549Zm-49.969,0h49.176V400.912H350.58Zm-49.97,0h49.176V400.912H300.61Zm-49.969,0h49.176V400.912H250.641Zm-49.969,0h49.176V400.912H200.671Zm-49.969,0h49.176V400.912H150.7Zm-49.97,0h49.176V400.912H100.732Zm-49.969,0H99.939V400.912H50.763Zm-49.969,0H49.969V400.912H.793ZM1250.03,400.118h49.177V350.9H1250.03Zm-49.969,0h49.176V350.9h-49.176Zm-49.969,0h49.176V350.9h-49.176Zm-49.969,0H1149.3V350.9h-49.176Zm-49.969,0h49.176V350.9h-49.176Zm-49.969,0h49.176V350.9h-49.176Zm-49.97,0H999.39V350.9H950.213Zm-49.969,0H949.42V350.9H900.244Zm-49.969,0h49.176V350.9H850.274Zm-49.969,0h49.176V350.9H800.305Zm-49.97,0h49.176V350.9H750.336Zm-49.969,0h49.176V350.9H700.366Zm-49.969,0h49.176V350.9H650.4Zm-49.969,0H649.6V350.9H600.427Zm-49.969,0h49.176V350.9H550.458Zm-49.97,0h49.176V350.9H500.488Zm-49.97,0h49.176V350.9H450.519Zm-49.97,0h49.176V350.9H400.549Zm-49.969,0h49.176V350.9H350.58Zm-49.97,0h49.176V350.9H300.61Zm-49.969,0h49.176V350.9H250.641Zm-49.969,0h49.176V350.9H200.671Zm-49.969,0h49.176V350.9H150.7Zm-49.97,0h49.176V350.9H100.732Zm-49.969,0H99.939V350.9H50.763Zm-49.969,0H49.969V350.9H.793ZM1250.03,350.1h49.177V300.882H1250.03Zm-49.969,0h49.176V300.882h-49.176Zm-49.969,0h49.176V300.882h-49.176Zm-49.969,0H1149.3V300.882h-49.176Zm-49.969,0h49.176V300.882h-49.176Zm-49.969,0h49.176V300.882h-49.176Zm-49.97,0H999.39V300.882H950.213Zm-49.969,0H949.42V300.882H900.244Zm-49.969,0h49.176V300.882H850.274Zm-49.969,0h49.176V300.882H800.305Zm-49.97,0h49.176V300.882H750.336Zm-49.969,0h49.176V300.882H700.366Zm-49.969,0h49.176V300.882H650.4Zm-49.969,0H649.6V300.882H600.427Zm-49.969,0h49.176V300.882H550.458Zm-49.97,0h49.176V300.882H500.488Zm-49.97,0h49.176V300.882H450.519Zm-49.97,0h49.176V300.882H400.549Zm-49.969,0h49.176V300.882H350.58Zm-49.97,0h49.176V300.882H300.61Zm-49.969,0h49.176V300.882H250.641Zm-49.969,0h49.176V300.882H200.671Zm-49.969,0h49.176V300.882H150.7Zm-49.97,0h49.176V300.882H100.732Zm-49.969,0H99.939V300.882H50.763Zm-49.969,0H49.969V300.882H.793ZM1250.03,300.088h49.177V250.867H1250.03Zm-49.969,0h49.176V250.867h-49.176Zm-49.969,0h49.176V250.867h-49.176Zm-49.969,0H1149.3V250.867h-49.176Zm-49.969,0h49.176V250.867h-49.176Zm-49.969,0h49.176V250.867h-49.176Zm-49.97,0H999.39V250.867H950.213Zm-49.969,0H949.42V250.867H900.244Zm-49.969,0h49.176V250.867H850.274Zm-49.969,0h49.176V250.867H800.305Zm-49.97,0h49.176V250.867H750.336Zm-49.969,0h49.176V250.867H700.366Zm-49.969,0h49.176V250.867H650.4Zm-49.969,0H649.6V250.867H600.427Zm-49.969,0h49.176V250.867H550.458Zm-49.97,0h49.176V250.867H500.488Zm-49.97,0h49.176V250.867H450.519Zm-49.97,0h49.176V250.867H400.549Zm-49.969,0h49.176V250.867H350.58Zm-49.97,0h49.176V250.867H300.61Zm-49.969,0h49.176V250.867H250.641Zm-49.969,0h49.176V250.867H200.671Zm-49.969,0h49.176V250.867H150.7Zm-49.97,0h49.176V250.867H100.732Zm-49.969,0H99.939V250.867H50.763Zm-49.969,0H49.969V250.867H.793ZM1250.03,250.074h49.177V200.853H1250.03Zm-49.969,0h49.176V200.853h-49.176Zm-49.969,0h49.176V200.853h-49.176Zm-49.969,0H1149.3V200.853h-49.176Zm-49.969,0h49.176V200.853h-49.176Zm-49.969,0h49.176V200.853h-49.176Zm-49.97,0H999.39V200.853H950.213Zm-49.969,0H949.42V200.853H900.244Zm-49.969,0h49.176V200.853H850.274Zm-49.969,0h49.176V200.853H800.305Zm-49.97,0h49.176V200.853H750.336Zm-49.969,0h49.176V200.853H700.366Zm-49.969,0h49.176V200.853H650.4Zm-49.969,0H649.6V200.853H600.427Zm-49.969,0h49.176V200.853H550.458Zm-49.97,0h49.176V200.853H500.488Zm-49.97,0h49.176V200.853H450.519Zm-49.97,0h49.176V200.853H400.549Zm-49.969,0h49.176V200.853H350.58Zm-49.97,0h49.176V200.853H300.61Zm-49.969,0h49.176V200.853H250.641Zm-49.969,0h49.176V200.853H200.671Zm-49.969,0h49.176V200.853H150.7Zm-49.97,0h49.176V200.853H100.732Zm-49.969,0H99.939V200.853H50.763Zm-49.969,0H49.969V200.853H.793ZM1250.03,200.059h49.177V150.838H1250.03Zm-49.969,0h49.176V150.838h-49.176Zm-49.969,0h49.176V150.838h-49.176Zm-49.969,0H1149.3V150.838h-49.176Zm-49.969,0h49.176V150.838h-49.176Zm-49.969,0h49.176V150.838h-49.176Zm-49.97,0H999.39V150.838H950.213Zm-49.969,0H949.42V150.838H900.244Zm-49.969,0h49.176V150.838H850.274Zm-49.969,0h49.176V150.838H800.305Zm-49.97,0h49.176V150.838H750.336Zm-49.969,0h49.176V150.838H700.366Zm-49.969,0h49.176V150.838H650.4Zm-49.969,0H649.6V150.838H600.427Zm-49.969,0h49.176V150.838H550.458Zm-49.97,0h49.176V150.838H500.488Zm-49.97,0h49.176V150.838H450.519Zm-49.97,0h49.176V150.838H400.549Zm-49.969,0h49.176V150.838H350.58Zm-49.97,0h49.176V150.838H300.61Zm-49.969,0h49.176V150.838H250.641Zm-49.969,0h49.176V150.838H200.671Zm-49.969,0h49.176V150.838H150.7Zm-49.97,0h49.176V150.838H100.732Zm-49.969,0H99.939V150.838H50.763Zm-49.969,0H49.969V150.838H.793ZM1250.03,150.044h49.177V100.823H1250.03Zm-49.969,0h49.176V100.823h-49.176Zm-49.969,0h49.176V100.823h-49.176Zm-49.969,0H1149.3V100.823h-49.176Zm-49.969,0h49.176V100.823h-49.176Zm-49.969,0h49.176V100.823h-49.176Zm-49.97,0H999.39V100.823H950.213Zm-49.969,0H949.42V100.823H900.244Zm-49.969,0h49.176V100.823H850.274Zm-49.969,0h49.176V100.823H800.305Zm-49.97,0h49.176V100.823H750.336Zm-49.969,0h49.176V100.823H700.366Zm-49.969,0h49.176V100.823H650.4Zm-49.969,0H649.6V100.823H600.427Zm-49.969,0h49.176V100.823H550.458Zm-49.97,0h49.176V100.823H500.488Zm-49.97,0h49.176V100.823H450.519Zm-49.97,0h49.176V100.823H400.549Zm-49.969,0h49.176V100.823H350.58Zm-49.97,0h49.176V100.823H300.61Zm-49.969,0h49.176V100.823H250.641Zm-49.969,0h49.176V100.823H200.671Zm-49.969,0h49.176V100.823H150.7Zm-49.97,0h49.176V100.823H100.732Zm-49.969,0H99.939V100.823H50.763Zm-49.969,0H49.969V100.823H.793ZM1250.03,100.029h49.177V50.809H1250.03Zm-49.969,0h49.176V50.809h-49.176Zm-49.969,0h49.176V50.809h-49.176Zm-49.969,0H1149.3V50.809h-49.176Zm-49.969,0h49.176V50.809h-49.176Zm-49.969,0h49.176V50.809h-49.176Zm-49.97,0H999.39V50.809H950.213Zm-49.969,0H949.42V50.809H900.244Zm-49.969,0h49.176V50.809H850.274Zm-49.969,0h49.176V50.809H800.305Zm-49.97,0h49.176V50.809H750.336Zm-49.969,0h49.176V50.809H700.366Zm-49.969,0h49.176V50.809H650.4Zm-49.969,0H649.6V50.809H600.427Zm-49.969,0h49.176V50.809H550.458Zm-49.97,0h49.176V50.809H500.488Zm-49.97,0h49.176V50.809H450.519Zm-49.97,0h49.176V50.809H400.549Zm-49.969,0h49.176V50.809H350.58Zm-49.97,0h49.176V50.809H300.61Zm-49.969,0h49.176V50.809H250.641Zm-49.969,0h49.176V50.809H200.671Zm-49.969,0h49.176V50.809H150.7Zm-49.97,0h49.176V50.809H100.732Zm-49.969,0H99.939V50.809H50.763Zm-49.969,0H49.969V50.809H.793ZM1250.03,50.015h49.177V.794H1250.03Zm-49.969,0h49.176V.794h-49.176Zm-49.969,0h49.176V.794h-49.176Zm-49.969,0H1149.3V.794h-49.176Zm-49.969,0h49.176V.794h-49.176Zm-49.969,0h49.176V.794h-49.176Zm-49.97,0H999.39V.794H950.213Zm-49.969,0H949.42V.794H900.244Zm-49.969,0h49.176V.794H850.274Zm-49.969,0h49.176V.794H800.305Zm-49.97,0h49.176V.794H750.336Zm-49.969,0h49.176V.794H700.366Zm-49.969,0h49.176V.794H650.4Zm-49.969,0H649.6V.794H600.427Zm-49.969,0h49.176V.794H550.458Zm-49.97,0h49.176V.794H500.488Zm-49.97,0h49.176V.794H450.519Zm-49.97,0h49.176V.794H400.549Zm-49.969,0h49.176V.794H350.58Zm-49.97,0h49.176V.794H300.61Zm-49.969,0h49.176V.794H250.641Zm-49.969,0h49.176V.794H200.671Zm-49.969,0h49.176V.794H150.7Zm-49.97,0h49.176V.794H100.732Zm-49.969,0H99.939V.794H50.763Zm-49.969,0H49.969V.794H.793Z" transform="translate(-51 -150)" fill="url(#a)"/><g transform="translate(493.347 177.317)"><g transform="translate(138.99 7.338)"><path d="M1093.908,458.217h-18.091a2.032,2.032,0,0,1,0-4.064h18.091a2.032,2.032,0,0,1,0,4.064Z" transform="translate(-1073.577 -453.945)" fill="#fff"/><path d="M1093.979,458.495h-18.091a2.24,2.24,0,1,1,0-4.48h18.091a2.24,2.24,0,0,1,0,4.48Zm-18.091-4.062a1.822,1.822,0,1,0,0,3.645h18.091a1.822,1.822,0,0,0,0-3.645Z" transform="translate(-1073.647 -454.015)" fill="#fff"/></g><g transform="translate(0 7.333)"><path d="M984.077,490.566h0a2.5,2.5,0,0,1-2.5-2.5v-31.41a2.5,2.5,0,0,1,2.5-2.5h0a2.5,2.5,0,0,1,2.5,2.5v31.41A2.5,2.5,0,0,1,984.077,490.566Z" transform="translate(-981.365 -453.942)" fill="#fff"/><path d="M984.147,490.844a2.715,2.715,0,0,1-2.712-2.712V456.724a2.711,2.711,0,1,1,5.422,0v31.409A2.714,2.714,0,0,1,984.147,490.844Zm0-36.414a2.3,2.3,0,0,0-2.294,2.294v31.409a2.293,2.293,0,1,0,4.587,0V456.724A2.3,2.3,0,0,0,984.147,454.43Z" transform="translate(-981.435 -454.012)" fill="#fff"/></g><g transform="translate(24.572 18.791)"><path d="M1000.378,486.709h0a2.5,2.5,0,0,1-2.5-2.5V464.255a2.5,2.5,0,0,1,2.5-2.5h0a2.5,2.5,0,0,1,2.5,2.5v19.952A2.5,2.5,0,0,1,1000.378,486.709Z" transform="translate(-997.667 -461.544)" fill="#fff"/><path d="M1000.449,486.988a2.715,2.715,0,0,1-2.712-2.712v-19.95a2.712,2.712,0,0,1,5.423,0v19.95A2.715,2.715,0,0,1,1000.449,486.988Zm0-24.955a2.3,2.3,0,0,0-2.294,2.292v19.95a2.294,2.294,0,1,0,4.588,0v-19.95A2.3,2.3,0,0,0,1000.449,462.033Z" transform="translate(-997.737 -461.614)" fill="#fff"/></g><g transform="translate(49.597 25.604)"><path d="M1016.982,484.416h0a2.5,2.5,0,0,1-2.5-2.5V468.775a2.5,2.5,0,0,1,2.5-2.5h0a2.5,2.5,0,0,1,2.5,2.5v13.139A2.5,2.5,0,0,1,1016.982,484.416Z" transform="translate(-1014.27 -466.064)" fill="#fff"/><path d="M1017.052,484.695a2.716,2.716,0,0,1-2.712-2.712V468.846a2.712,2.712,0,1,1,5.423,0v13.137A2.716,2.716,0,0,1,1017.052,484.695Zm0-18.143a2.3,2.3,0,0,0-2.294,2.294v13.137a2.293,2.293,0,1,0,4.587,0V468.846A2.3,2.3,0,0,0,1017.052,466.552Z" transform="translate(-1014.34 -466.134)" fill="#fff"/></g><g transform="translate(92.225 7.333)"><path d="M1045.262,490.566h0a2.5,2.5,0,0,1-2.5-2.5v-31.41a2.5,2.5,0,0,1,2.5-2.5h0a2.5,2.5,0,0,1,2.5,2.5v31.41A2.5,2.5,0,0,1,1045.262,490.566Z" transform="translate(-1042.551 -453.942)" fill="#fff"/><path d="M1045.333,490.844a2.715,2.715,0,0,1-2.712-2.712V456.724a2.712,2.712,0,1,1,5.423,0v31.409A2.716,2.716,0,0,1,1045.333,490.844Zm0-36.414a2.3,2.3,0,0,0-2.293,2.294v31.409a2.293,2.293,0,1,0,4.586,0V456.724A2.3,2.3,0,0,0,1045.333,454.43Z" transform="translate(-1042.621 -454.012)" fill="#fff"/></g><g transform="translate(206.858 7.333)"><path d="M1121.315,490.566h0a2.5,2.5,0,0,1-2.5-2.5v-31.41a2.5,2.5,0,0,1,2.5-2.5h0a2.5,2.5,0,0,1,2.5,2.5v31.41A2.5,2.5,0,0,1,1121.315,490.566Z" transform="translate(-1118.604 -453.942)" fill="#fff"/><path d="M1121.386,490.844a2.715,2.715,0,0,1-2.712-2.712V456.724a2.712,2.712,0,1,1,5.423,0v31.409A2.715,2.715,0,0,1,1121.386,490.844Zm0-36.414a2.3,2.3,0,0,0-2.294,2.294v31.409a2.293,2.293,0,1,0,4.587,0V456.724A2.3,2.3,0,0,0,1121.386,454.43Z" transform="translate(-1118.674 -454.012)" fill="#fff"/></g><g transform="translate(104.504 33.504)"><path d="M1055.912,474.016a2.5,2.5,0,1,1-2.5-2.5A2.5,2.5,0,0,1,1055.912,474.016Z" transform="translate(-1050.698 -471.305)" fill="#fff"/><path d="M1053.48,476.8a2.712,2.712,0,1,1,2.71-2.712A2.716,2.716,0,0,1,1053.48,476.8Zm0-5.006a2.293,2.293,0,1,0,2.292,2.294A2.3,2.3,0,0,0,1053.48,471.793Z" transform="translate(-1050.768 -471.375)" fill="#fff"/></g><g transform="translate(129.476 11.11)"><path d="M1072.479,459.158a2.5,2.5,0,1,1-2.5-2.5A2.5,2.5,0,0,1,1072.479,459.158Z" transform="translate(-1067.265 -456.448)" fill="#fff"/><path d="M1070.047,461.94a2.711,2.711,0,1,1,2.712-2.712A2.716,2.716,0,0,1,1070.047,461.94Zm0-5a2.293,2.293,0,1,0,2.295,2.293A2.3,2.3,0,0,0,1070.047,456.936Z" transform="translate(-1067.335 -456.518)" fill="#fff"/></g><g transform="translate(193.131 33.029)"><path d="M1114.711,473.7a2.5,2.5,0,1,1-2.5-2.5A2.5,2.5,0,0,1,1114.711,473.7Z" transform="translate(-1109.497 -470.99)" fill="#fff"/><path d="M1112.277,476.482a2.711,2.711,0,1,1,2.712-2.712A2.714,2.714,0,0,1,1112.277,476.482Zm0-5a2.293,2.293,0,1,0,2.295,2.293A2.3,2.3,0,0,0,1112.277,471.478Z" transform="translate(-1109.567 -471.06)" fill="#fff"/></g><g transform="translate(220.229 7.004)"><path d="M1132.688,456.435a2.5,2.5,0,1,1-2.5-2.5A2.5,2.5,0,0,1,1132.688,456.435Z" transform="translate(-1127.475 -453.724)" fill="#fff"/><path d="M1130.257,459.217a2.712,2.712,0,1,1,2.712-2.712A2.716,2.716,0,0,1,1130.257,459.217Zm0-5.006a2.293,2.293,0,1,0,2.293,2.294A2.3,2.3,0,0,0,1130.257,454.212Z" transform="translate(-1127.545 -453.794)" fill="#fff"/></g><g transform="translate(144.524 0)"><path d="M1091.445,493.774h-1.152a12.85,12.85,0,0,1-12.836-12.835V451.787a2.5,2.5,0,0,1,5.006,0V480.94a7.839,7.839,0,0,0,7.83,7.83h1.152a2.5,2.5,0,0,1,0,5Z" transform="translate(-1077.249 -449.077)" fill="#fff"/><path d="M1091.516,494.054h-1.153a13.059,13.059,0,0,1-13.044-13.044V451.857a2.711,2.711,0,0,1,5.422,0V481.01a7.631,7.631,0,0,0,7.622,7.621h1.153a2.712,2.712,0,0,1,0,5.423Zm-11.487-44.489a2.3,2.3,0,0,0-2.293,2.293V481.01a12.641,12.641,0,0,0,12.626,12.626h1.153a2.294,2.294,0,0,0,0-4.588h-1.153a8.047,8.047,0,0,1-8.04-8.038V451.857A2.3,2.3,0,0,0,1080.03,449.565Z" transform="translate(-1077.319 -449.147)" fill="#fff"/></g><g transform="translate(92.225 23.744)"><path d="M1042.863,466.9c0-.684-.042-1.341-.1-1.985v4C1042.82,468.261,1042.863,467.595,1042.863,466.9Z" transform="translate(-1042.551 -464.893)" fill="#fff"/><path d="M1043.038,468.941l-.417-.02v-4l.417-.02c.071.755.1,1.393.1,2.006S1043.109,468.172,1043.038,468.941Z" transform="translate(-1042.621 -464.9)" fill="#fff"/></g><g transform="translate(61.117 6.632)"><path d="M1040.295,487.171c-7.963,0-13.166-5.517-13.166-14.577,0-8.964,5.2-14.482,13.04-14.482,7.264,0,12.325,4.763,13.062,12.5v-7.823c-2.308-6.062-7.784-9.1-13.985-9.1-8.982,0-17.125,6.1-17.125,18.907,0,12.9,8.177,19.036,17.218,19.036h0c6.138,0,11.649-3.072,13.892-9.065V474.61C1052.5,482.41,1047.5,487.171,1040.295,487.171Z" transform="translate(-1021.913 -453.477)" fill="#fff"/><path d="M1039.407,491.911l-.208,0c-7.99-.087-17.216-5.161-17.216-19.242,0-6.022,1.818-11,5.256-14.4a16.958,16.958,0,0,1,12.076-4.713c6.677,0,11.98,3.453,14.179,9.235l.015.074v7.823l-.418.02c-.723-7.591-5.649-12.307-12.855-12.307-7.794,0-12.83,5.6-12.83,14.274,0,8.861,4.965,14.368,12.958,14.368,7.133,0,12.012-4.74,12.727-12.37l.418.018-.014,8.029C1051.339,488.471,1046.073,491.911,1039.407,491.911Zm-.092-37.946c-7.8,0-16.915,4.9-16.915,18.7,0,13.9,9.161,18.826,17.007,18.826h.209c6.37-.071,11.4-3.384,13.474-8.9v-5.333c-1.5,6.347-6.2,10.186-12.726,10.186-8.251,0-13.375-5.666-13.375-14.785,0-8.925,5.2-14.693,13.247-14.693,6.6,0,11.345,3.827,12.854,10.153v-5.232C1050.947,457.3,1045.8,453.965,1039.315,453.965Z" transform="translate(-1021.983 -453.547)" fill="#fff"/></g><g transform="translate(41.706 6.632)"><path d="M1009.1,453.686h0Z" transform="translate(-1009.105 -453.477)" fill="#fff"/><path d="M1009.108,453.965l0-.418h0Z" transform="translate(-1009.105 -453.547)" fill="#fff"/></g><g transform="translate(5.004 6.632)"><path d="M1034.491,472.866c0-13.026-3.554-19.18-13.1-19.18-7.077,0-11.737,3.791-13.368,9.695-1.825-6.632-5.024-9.6-11.666-9.6a11.419,11.419,0,0,0-11.46,8.623v11.492c0-10.479,3-15.622,10.265-15.622,7.1,0,9.294,4.531,9.294,14.993v12.3h5.006v-12.4c0-10.308,2.933-14.984,10.234-14.984,7.169,0,9.793,4.665,9.793,14.993v12.388h5.006Z" transform="translate(-984.685 -453.477)" fill="#fff"/><path d="M1034.771,485.842h-5.423v-12.6c0-10.5-2.777-14.782-9.585-14.782-7.027,0-10.026,4.416-10.026,14.773v12.608h-5.422V473.336c0-10.777-2.463-14.784-9.088-14.784-6.955,0-10.055,4.754-10.055,15.412h-.418V462.473a11.61,11.61,0,0,1,11.67-8.833c6.3,0,9.726,2.641,11.671,9.072,1.89-5.836,6.723-9.166,13.364-9.166,9.33,0,13.312,5.8,13.312,19.39Zm-5.005-.419h4.587V472.937c0-13.475-3.735-18.972-12.893-18.972-6.694,0-11.492,3.479-13.168,9.543l-.2.729-.2-.729c-1.872-6.8-5.087-9.448-11.467-9.448a11.2,11.2,0,0,0-11.258,8.465l0,5.465c1.078-6.768,4.3-9.855,10.058-9.855,6.929,0,9.5,4.119,9.5,15.2v12.087h4.587v-12.19c0-10.647,3.123-15.192,10.444-15.192,7.105,0,10,4.4,10,15.2Z" transform="translate(-984.755 -453.547)" fill="#fff"/></g><g transform="translate(104.72 6.698)"><path d="M1057.273,463.706c0-3.541,3.77-5.654,9.448-5.654,3.773,0,7.692,1.522,9.389,3.838l4.323-2.526h0c-2.152-3.242-8.51-5.621-13.773-5.634-8.061-.018-14.325,3.9-14.325,10.158,0,13.894,25.119,7.009,25.119,16.594,0,4.018-3.905,6.478-10.288,6.478-4.613,0-8.966-1.563-11.646-5.093l-4.415,2.356c2.665,4.514,9.511,7.2,16.063,7.2,9.077,0,15.329-4.43,15.329-11.041C1082.5,466.157,1057.273,473.238,1057.273,463.706Z" transform="translate(-1050.813 -453.521)" fill="#fff"/><path d="M1067.265,491.7c-7.025,0-13.706-3-16.243-7.3l-.111-.187,4.765-2.541.107.142c2.454,3.232,6.531,5.01,11.48,5.01,6.218,0,10.081-2.4,10.081-6.27,0-4.175-4.935-5.09-10.65-6.148-6.781-1.257-14.47-2.683-14.47-10.446a8.753,8.753,0,0,1,2.65-6.3c2.591-2.583,6.9-4.064,11.827-4.064h.057c5.6.014,11.861,2.582,13.95,5.728l.122.184-.191.11-4.485,2.623-.11-.151c-1.62-2.211-5.414-3.755-9.223-3.755-5.7,0-9.237,2.086-9.237,5.446,0,4.116,4.892,5,10.56,6.026,6.873,1.244,14.663,2.653,14.663,10.644C1082.8,487.175,1076.559,491.7,1067.265,491.7Zm-15.771-7.325c2.549,4.077,8.988,6.908,15.771,6.908,9.044,0,15.12-4.353,15.12-10.833,0-7.645-7.607-9.02-14.318-10.234-5.607-1.014-10.9-1.97-10.9-6.436,0-3.617,3.7-5.863,9.654-5.863,3.849,0,7.695,1.545,9.446,3.774l3.97-2.32c-2.139-2.959-8.108-5.346-13.478-5.358h-.058c-4.818,0-9.017,1.435-11.529,3.942a8.331,8.331,0,0,0-2.526,6.007c0,7.417,7.181,8.748,14.128,10.034,5.652,1.048,10.991,2.038,10.991,6.56,0,4.125-4.023,6.688-10.5,6.688-5.01,0-9.158-1.786-11.7-5.036Z" transform="translate(-1050.911 -453.591)" fill="#fff"/></g><g transform="translate(194.824 22.289)"><path d="M1110.693,464.073h0Z" transform="translate(-1110.69 -463.865)" fill="#fff"/><path d="M1110.693,464.353h0v-.418Z" transform="translate(-1110.69 -463.935)" fill="#fff"/></g><g transform="translate(163.818 6.634)"><path d="M1124.368,483.577l-3.31-1.518-1.409-.09c-1.587,3.416-5.833,5.143-10.842,5.143-8.246,0-13.407-5.1-13.543-13.585h28.444a1.97,1.97,0,0,0,2.21-2.208c-.208-10.593-6.958-17.631-17.527-17.631-10.738,0-18.132,7.7-18.132,18.909,0,11.4,7.3,18.909,18.481,18.909l0,0C1115.755,491.5,1121.358,488.838,1124.368,483.577Zm-15.909-25.668c7.461,0,12.176,4.46,12.6,11.433h-25.6C1096.341,462.125,1101.344,457.909,1108.459,457.909Z" transform="translate(-1090.049 -453.478)" fill="#fff"/><path d="M1108.81,491.785c-11.353,0-18.69-7.5-18.69-19.118,0-11.255,7.542-19.118,18.342-19.118,10.56,0,17.521,7,17.735,17.837a2.354,2.354,0,0,1-.592,1.771,2.449,2.449,0,0,1-1.827.65h-28.228c.214,8.251,5.182,13.168,13.329,13.168,5.211,0,9.192-1.877,10.654-5.022l.059-.128,1.625.116,3.518,1.614-.113.2c-2.894,5.058-8.319,7.9-15.314,8.025l0,.006Zm-.348-37.819c-10.554,0-17.923,7.69-17.923,18.7,0,11.27,7.057,18.585,18.006,18.7l.262,0c6.986,0,12.421-2.7,15.337-7.622l-3.068-1.406-1.229-.08c-1.578,3.22-5.664,5.135-10.97,5.135-8.346,0-13.615-5.285-13.751-13.79l0-.213h28.653a2.049,2.049,0,0,0,1.53-.524,1.956,1.956,0,0,0,.472-1.47C1125.572,460.806,1118.774,453.966,1108.461,453.966Zm12.667,15.656h-25.839l.029-.234c.892-7.274,5.832-11.617,13.21-11.617,7.467,0,12.373,4.457,12.8,11.629l-.205.012Zm-25.366-.418h25.14c-.5-6.8-5.227-11.015-12.375-11.015C1101.46,458.189,1096.7,462.3,1095.762,469.2Z" transform="translate(-1090.12 -453.548)" fill="#fff"/></g><g transform="translate(211.862 6.973)"><path d="M1133,453.943c-6.35-.4-9.562,3.171-10.869,7v10.935c0-8.4,3.2-13.4,10.53-12.949l1.362-3.191Z" transform="translate(-1121.924 -453.703)" fill="#fff"/><path d="M1122.413,471.945h-.419l.012-11c.98-2.861,3.708-7.607,11.08-7.135l.111.006,1.131,1.979-1.46,3.422-.146-.009a8.974,8.974,0,0,0-6.977,2.122C1123.533,463.406,1122.413,466.978,1122.413,471.945Zm0-10.9v6.133a11.13,11.13,0,0,1,3.045-6.156,9.249,9.249,0,0,1,7.143-2.243l1.262-2.962-.915-1.6C1125.96,453.809,1123.357,458.305,1122.413,461.046Z" transform="translate(-1121.994 -453.773)" fill="#fff"/></g></g><g transform="translate(723.557 183.998)"><path d="M1196.9,395.2c.214-8.268,5.194-13.194,13.356-13.194,5.221,0,9.212,1.88,10.675,5.032l.018.041a2.71,2.71,0,0,0,5.318-.745,2.642,2.642,0,0,0-.162-.884l.04-.018-.115-.2-.006-.009a2.691,2.691,0,0,0-.5-.745c-3-4.581-8.2-7.167-14.839-7.287l0-.006-.5,0c-11.376,0-18.727,7.52-18.727,19.157v0c0,11.637,7.35,19.156,18.727,19.156l.5,0,0-.006c6.641-.121,11.843-2.707,14.839-7.287a2.689,2.689,0,0,0,.5-.745l.006-.009.115-.2-.04-.017a2.656,2.656,0,0,0,.162-.884,2.71,2.71,0,0,0-5.318-.745l-.018.039c-1.464,3.152-5.454,5.032-10.675,5.032-8.162,0-13.142-4.927-13.356-13.194Z" transform="translate(-1191.461 -377.181)" fill="#f9e0ac"/><g transform="translate(73.749 26.925)"><path d="M1245.444,397.654a2.507,2.507,0,1,1-2.508-2.507A2.507,2.507,0,0,1,1245.444,397.654Z" transform="translate(-1240.219 -394.937)" fill="#f9e0ac"/><path d="M1243.007,400.442a2.717,2.717,0,1,1,2.717-2.717A2.722,2.722,0,0,1,1243.007,400.442Zm0-5.016a2.3,2.3,0,1,0,2.3,2.3A2.3,2.3,0,0,0,1243.007,395.426Z" transform="translate(-1240.29 -395.008)" fill="#f9e0ac"/></g><g transform="translate(98.772 4.486)"><path d="M1262.011,382.8a2.507,2.507,0,1,1-2.508-2.509A2.508,2.508,0,0,1,1262.011,382.8Z" transform="translate(-1256.788 -380.081)" fill="#f9e0ac"/><path d="M1259.573,385.584a2.716,2.716,0,1,1,2.717-2.716A2.72,2.72,0,0,1,1259.573,385.584Zm0-5.014a2.3,2.3,0,1,0,2.3,2.3A2.3,2.3,0,0,0,1259.573,380.569Z" transform="translate(-1256.858 -380.151)" fill="#f9e0ac"/></g><g transform="translate(73.966 0.065)"><path d="M1246.809,387.358c0-3.546,3.776-5.665,9.466-5.665,3.78,0,7.707,1.525,9.409,3.845l4.332-2.531h0c-2.158-3.249-8.527-5.632-13.8-5.644-8.078-.02-14.353,3.9-14.353,10.177,0,13.922,25.168,7.023,25.168,16.627,0,4.027-3.913,6.491-10.308,6.491-4.621,0-8.985-1.566-11.67-5.1l-4.424,2.361c2.672,4.525,9.53,7.21,16.1,7.21,9.1,0,15.36-4.439,15.36-11.063C1272.082,389.814,1246.809,396.91,1246.809,387.358Z" transform="translate(-1240.336 -377.153)" fill="#f9e0ac"/><path d="M1256.82,415.407c-7.04,0-13.732-3.007-16.275-7.315l-.11-.187,4.773-2.547.108.142c2.458,3.238,6.544,5.02,11.5,5.02,6.23,0,10.1-2.408,10.1-6.283,0-4.184-4.945-5.1-10.672-6.161-6.8-1.26-14.5-2.688-14.5-10.467a8.765,8.765,0,0,1,2.655-6.315c2.595-2.589,6.911-4.072,11.849-4.072h.057c5.615.014,11.887,2.587,13.978,5.739l.123.184-.192.11-4.493,2.628-.11-.151c-1.625-2.216-5.425-3.762-9.243-3.762-5.709,0-9.254,2.09-9.254,5.457,0,4.125,4.9,5.011,10.58,6.038,6.887,1.246,14.693,2.658,14.693,10.666C1272.39,410.876,1266.133,415.407,1256.82,415.407Zm-15.8-7.34c2.554,4.086,9.006,6.922,15.8,6.922,9.062,0,15.152-4.362,15.152-10.855,0-7.66-7.623-9.038-14.346-10.255-5.621-1.016-10.927-1.974-10.927-6.449,0-3.625,3.708-5.875,9.674-5.875,3.858,0,7.71,1.55,9.465,3.782l3.978-2.324c-2.143-2.965-8.124-5.357-13.506-5.369h-.059c-4.827,0-9.035,1.438-11.553,3.951a8.343,8.343,0,0,0-2.531,6.017c0,7.432,7.2,8.766,14.156,10.054,5.664,1.05,11.014,2.042,11.014,6.573,0,4.134-4.031,6.7-10.52,6.7-5.021,0-9.177-1.79-11.726-5.046Z" transform="translate(-1240.434 -377.224)" fill="#f9e0ac"/></g><g transform="translate(38.926 26.925)"><path d="M1222.387,397.654a2.507,2.507,0,1,1-2.507-2.507A2.507,2.507,0,0,1,1222.387,397.654Z" transform="translate(-1217.163 -394.937)" fill="#f9e0ac"/><path d="M1219.951,400.442a2.717,2.717,0,1,1,2.717-2.717A2.722,2.722,0,0,1,1219.951,400.442Zm0-5.016a2.3,2.3,0,1,0,2.3,2.3A2.3,2.3,0,0,0,1219.951,395.426Z" transform="translate(-1217.234 -395.008)" fill="#f9e0ac"/></g><g transform="translate(63.948 4.486)"><path d="M1238.954,382.8a2.507,2.507,0,1,1-2.507-2.509A2.508,2.508,0,0,1,1238.954,382.8Z" transform="translate(-1233.73 -380.081)" fill="#f9e0ac"/><path d="M1236.518,385.584a2.716,2.716,0,1,1,2.718-2.716A2.721,2.721,0,0,1,1236.518,385.584Zm0-5.014a2.3,2.3,0,1,0,2.3,2.3A2.3,2.3,0,0,0,1236.518,380.569Z" transform="translate(-1233.801 -380.151)" fill="#f9e0ac"/></g><g transform="translate(39.143 0.065)"><path d="M1223.753,387.358c0-3.546,3.776-5.665,9.466-5.665,3.78,0,7.707,1.525,9.409,3.845l4.332-2.531h0c-2.158-3.249-8.529-5.632-13.8-5.644-8.077-.02-14.354,3.9-14.354,10.177,0,13.922,25.17,7.023,25.17,16.627,0,4.027-3.913,6.491-10.31,6.491-4.622,0-8.984-1.566-11.669-5.1l-4.424,2.361c2.67,4.525,9.53,7.21,16.1,7.21,9.1,0,15.36-4.439,15.36-11.063C1249.026,389.814,1223.753,396.91,1223.753,387.358Z" transform="translate(-1217.28 -377.153)" fill="#f9e0ac"/><path d="M1233.764,415.407c-7.04,0-13.733-3.007-16.275-7.315l-.11-.187,4.772-2.547.108.142c2.459,3.238,6.544,5.02,11.5,5.02,6.23,0,10.1-2.408,10.1-6.283,0-4.184-4.945-5.1-10.672-6.161-6.8-1.26-14.5-2.688-14.5-10.467a8.764,8.764,0,0,1,2.655-6.315c2.595-2.589,6.911-4.072,11.849-4.072h.058c5.615.014,11.885,2.587,13.978,5.739l.122.184-.192.11-4.493,2.628-.112-.151c-1.623-2.216-5.423-3.762-9.241-3.762-5.709,0-9.256,2.09-9.256,5.457,0,4.125,4.9,5.011,10.582,6.038,6.887,1.246,14.693,2.658,14.693,10.666C1249.334,410.876,1243.077,415.407,1233.764,415.407Zm-15.8-7.34c2.554,4.086,9.006,6.922,15.8,6.922,9.062,0,15.15-4.362,15.15-10.855,0-7.66-7.621-9.038-14.347-10.255-5.619-1.016-10.926-1.974-10.926-6.449,0-3.625,3.708-5.875,9.674-5.875,3.857,0,7.71,1.55,9.465,3.782l3.978-2.324c-2.143-2.965-8.124-5.357-13.506-5.369h-.059c-4.827,0-9.034,1.438-11.552,3.951a8.343,8.343,0,0,0-2.531,6.017c0,7.432,7.2,8.766,14.157,10.054,5.664,1.05,11.013,2.042,11.013,6.573,0,4.134-4.031,6.7-10.519,6.7-5.02,0-9.177-1.79-11.726-5.046Z" transform="translate(-1217.378 -377.224)" fill="#f9e0ac"/></g></g><g transform="translate(370.314 172.856)"><path d="M595.913,177.3c-2.626-4.647-4.834-5.337-6.987-5.337-3.161,0-5.358,2.923-6.763,5.516L576.555,189l1.527,2.505a20.919,20.919,0,0,0,28.148,8.832l1.457-.76Z" transform="translate(-507.312 -148.2)" fill="url(#b)"/><path d="M527.941,177.3c2.626-4.647,4.834-5.337,6.989-5.337,3.16,0,5.357,2.923,6.762,5.516L547.3,189l-1.527,2.505a20.92,20.92,0,0,1-28.148,8.832l-1.457-.76Z" transform="translate(-516.166 -148.2)" fill="url(#c)"/><path d="M590.907,157.511c-4.089-8.248-16.362-8.434-20.522-.125l-6.045,11.577-6.046-11.577c-4.159-8.31-16.432-8.123-20.522.125l-7.865,15.217c3.733-4.238,8.969-1.741,11.246,2.572l8.483,15.613,4.339,8.3a11.5,11.5,0,0,0,4.941,5.027,12,12,0,0,0,10.849,0,11.5,11.5,0,0,0,4.94-5.027l4.339-8.3,8.483-15.613c2.278-4.312,7.513-6.81,11.246-2.572Z" transform="translate(-514.151 -151.239)" fill="url(#d)"/></g></g></svg>