<?xml version="1.0" encoding="utf-8"?>
<!-- Generator: Adobe Illustrator 23.0.6, SVG Export Plug-In . SVG Version: 6.00 Build 0)  -->
<svg version="1.1"
	 id="svg2014" inkscape:version="0.92.3 (2405546, 2018-03-11)" sodipodi:docname="Line_pay_logo.svg" xmlns:cc="http://creativecommons.org/ns#" xmlns:dc="http://purl.org/dc/elements/1.1/" xmlns:inkscape="http://www.inkscape.org/namespaces/inkscape" xmlns:rdf="http://www.w3.org/1999/02/22-rdf-syntax-ns#" xmlns:sodipodi="http://sodipodi.sourceforge.net/DTD/sodipodi-0.dtd" xmlns:svg="http://www.w3.org/2000/svg"
	 xmlns="http://www.w3.org/2000/svg" xmlns:xlink="http://www.w3.org/1999/xlink" x="0px" y="0px" viewBox="0 0 547.5 209.3"
	 style="enable-background:new 0 0 547.5 209.3;" xml:space="preserve">
<style type="text/css">
	.st0{fill:#00C43E;}
	.st1{fill:#FFFFFF;}
</style>
<sodipodi:namedview  bordercolor="#666666" borderopacity="1" gridtolerance="10" guidetolerance="10" id="namedview2016" inkscape:current-layer="svg2014" inkscape:cx="269.33485" inkscape:cy="104.64" inkscape:pageopacity="0" inkscape:pageshadow="2" inkscape:window-height="480" inkscape:window-maximized="0" inkscape:window-width="686" inkscape:window-x="0" inkscape:window-y="0" inkscape:zoom="2.1182139" objecttolerance="10" pagecolor="#ffffff" showgrid="false">
	</sodipodi:namedview>
<g>
	<g>
		<path class="st0" d="M390.4,125.9h15.5v-10.3h-15.7l0,0c-3.2,0-5.7,2.9-5.1,6.2C385.6,124.2,387.9,125.9,390.4,125.9z"/>
		<path class="st0" d="M87.4,179.1c0.1,0,0.3,0,0.4,0h372.2c41,0,74.4-33.4,74.4-74.4c0-41-33.4-74.4-74.4-74.4H87.8
			c-0.1,0-0.3,0-0.4,0c-40.9,0.1-74.2,33.5-74.2,74.4C13.1,145.6,46.5,179,87.4,179.1z M426.1,82.6h10.8c1.2,0,2.2,0.7,2.7,1.8
			l10.4,26l10.9-26.1c0.5-1.1,1.5-1.8,2.7-1.8h11.6c1.3,0,2.2,1.3,1.7,2.6c0,0-23.9,56.9-28,66.7c-0.4,0.9-1.2,1.4-2.2,1.4h-11.9
			c-1.3,0-2.2-1.3-1.7-2.6l8.6-20.5l-17.8-44.4C423.2,84.3,424.4,82.6,426.1,82.6z M372.1,119.5c0.6-9.6,9.1-16.9,18.8-16.9h14.9
			c-0.4-3.8-2-5-2.6-5.4c-2.4-1.9-8-3.4-20.9-0.5c-1.5,0.3-3.1-0.6-3.5-2.1l-1.8-7c-0.4-1.6,0.6-3.2,2.1-3.5
			c10.1-2.3,23.3-3.9,32,2.8c3.5,2.7,7.7,8.1,7.7,17.9V136c0,1.6-1.3,2.9-2.9,2.9l-25.8,0v0C379.8,138.9,371.4,130,372.1,119.5z
			 M316.6,70.6L316.6,70.6c0-1.4,1.1-2.4,2.4-2.4h22.9c14.7,0,26.7,11.9,26.7,26.7s-11.9,26.7-26.7,26.7h-9.9v14.9
			c0,1.3-1.1,2.4-2.4,2.4H319c-1.3,0-2.4-1.1-2.4-2.4V70.6z M242.6,70.6c0-0.6,0.2-1.2,0.7-1.8c0.5-0.4,1.1-0.7,1.7-0.7h42.4
			c1.3,0,2.4,1.1,2.4,2.4v10.6c0,1.3-1.1,2.4-2.4,2.4h-29.3v12.1h29.3c1.3,0,2.4,1.1,2.4,2.4v10.6c0,1.3-1.1,2.4-2.4,2.4h-29.3v12.1
			h29.3c1.3,0,2.4,1.1,2.4,2.4v10.6c0,1.3-1.1,2.4-2.4,2.4H245c-0.6,0-1.2-0.2-1.7-0.7l-0.1-0.1c-0.4-0.5-0.7-1.1-0.7-1.7V70.6z
			 M169.2,70.6c0-1.3,1.1-2.4,2.4-2.4l10.3,0l0.1,0l0.5,0.1l0.7,0.3c0,0,0.1,0.1,0.2,0.1c0,0,0.1,0.1,0.2,0.2c0.1,0,0.1,0.1,0.2,0.2
			c0.1,0.1,0.1,0.2,0.2,0.3l31.5,42.4v-41c0-1.3,1.1-2.4,2.4-2.4h10.6c1.3,0,2.4,1.1,2.4,2.4v65.9c0,1.3-1.1,2.4-2.4,2.4h-10.2
			c-0.2,0-0.4,0-0.7-0.1c-0.1,0-0.1,0-0.2-0.1l-0.5-0.3c-0.2-0.2-0.5-0.4-0.6-0.6L184.7,95v41.4c0,1.3-1.1,2.4-2.4,2.4h-10.6
			c-1.3,0-2.4-1.1-2.4-2.4V70.6z M142.1,70.6c0-1.3,1.1-2.4,2.4-2.4h10.6c1.3,0,2.4,1.1,2.4,2.4v65.9c0,1.3-1.1,2.4-2.4,2.4h-10.6
			c-1.3,0-2.4-1.1-2.4-2.4V70.6z M84.8,70.6c0-1.3,1.1-2.4,2.4-2.4h10.6c1.3,0,2.4,1.1,2.4,2.4v52.8h29.3c1.3,0,2.4,1.1,2.4,2.4
			v10.6c0,1.3-1.1,2.4-2.4,2.4H87.2c-0.6,0-1.2-0.2-1.8-0.8c-0.4-0.5-0.7-1.1-0.7-1.7V70.6z"/>
		<path class="st0" d="M353.1,94.8c0-6.2-5-11.2-11.2-11.2h0h-9.8V106h9.9C348.1,106,353.1,101,353.1,94.8z"/>
	</g>
	<path class="st1" d="M144.5,138.9h10.6c1.3,0,2.4-1.1,2.4-2.4V70.6c0-1.3-1.1-2.4-2.4-2.4h-10.6c-1.3,0-2.4,1.1-2.4,2.4v65.9
		C142.1,137.8,143.2,138.9,144.5,138.9z"/>
	<path class="st1" d="M171.7,138.9h10.6c1.3,0,2.4-1.1,2.4-2.4V95l31.5,42.8c0.2,0.2,0.4,0.4,0.6,0.6l0.5,0.3c0.1,0,0.2,0.1,0.2,0.1
		c0.3,0.1,0.5,0.1,0.7,0.1h10.2c1.3,0,2.4-1.1,2.4-2.4V70.6c0-1.3-1.1-2.4-2.4-2.4h-10.6c-1.3,0-2.4,1.1-2.4,2.4v41l-31.5-42.4
		c-0.1-0.1-0.1-0.2-0.2-0.3c-0.1-0.1-0.1-0.1-0.2-0.2c-0.1-0.1-0.1-0.1-0.2-0.2c-0.1-0.1-0.1-0.1-0.2-0.1l-0.7-0.3l-0.5-0.1l-0.1,0
		l-10.3,0c-1.3,0-2.4,1.1-2.4,2.4v65.9C169.2,137.8,170.3,138.9,171.7,138.9z"/>
	<path class="st1" d="M87.2,138.9h42.4c1.3,0,2.4-1.1,2.4-2.4v-10.6c0-1.3-1.1-2.4-2.4-2.4h-29.3V70.6c0-1.3-1.1-2.4-2.4-2.4H87.2
		c-1.3,0-2.4,1.1-2.4,2.4v65.8c0,0.6,0.2,1.2,0.7,1.7C86,138.6,86.6,138.9,87.2,138.9z"/>
	<path class="st1" d="M243.3,138.2c0.4,0.4,1,0.7,1.7,0.7h42.4c1.3,0,2.4-1.1,2.4-2.4v-10.6c0-1.3-1.1-2.4-2.4-2.4h-29.3v-12.1h29.3
		c1.3,0,2.4-1.1,2.4-2.4V98.2c0-1.3-1.1-2.4-2.4-2.4h-29.3V83.6h29.3c1.3,0,2.4-1.1,2.4-2.4V70.6c0-1.3-1.1-2.4-2.4-2.4H245
		c-0.6,0-1.2,0.2-1.7,0.7c-0.5,0.5-0.7,1.1-0.7,1.8v65.8C242.6,137.1,242.8,137.7,243.3,138.2L243.3,138.2z"/>
	<path class="st1" d="M390.2,138.9L390.2,138.9H416c1.6,0,2.9-1.3,2.9-2.9v-31.3c0-9.8-4.2-15.1-7.7-17.9c-8.7-6.8-21.9-5.2-32-2.8
		c-1.6,0.4-2.5,2-2.1,3.5l1.8,7c0.4,1.5,1.9,2.4,3.5,2.1c12.9-2.9,18.5-1.4,20.9,0.5c0.6,0.4,2.1,1.7,2.6,5.4h-14.9
		c-9.7,0-18.1,7.3-18.8,16.9C371.4,130,379.8,138.9,390.2,138.9z M390.2,115.6L390.2,115.6h15.7v10.3h-15.5c-2.5,0-4.8-1.7-5.3-4.1
		C384.5,118.5,387,115.6,390.2,115.6z"/>
	<path class="st1" d="M441.7,130.3l-8.6,20.5c-0.5,1.2,0.4,2.6,1.7,2.6h11.9c1,0,1.8-0.6,2.2-1.4c4.1-9.9,28-66.7,28-66.7
		c0.5-1.2-0.4-2.6-1.7-2.6h-11.6c-1.2,0-2.2,0.7-2.7,1.8L450,110.5l-10.4-26c-0.4-1.1-1.5-1.8-2.7-1.8h-10.8c-1.7,0-2.8,1.7-2.2,3.3
		L441.7,130.3z"/>
	<path class="st1" d="M319,138.9h10.6c1.3,0,2.4-1.1,2.4-2.4v-14.9h9.9c14.7,0,26.7-11.9,26.7-26.7s-11.9-26.7-26.7-26.7H319
		c-1.3,0-2.4,1.1-2.4,2.4v0v65.8C316.6,137.8,317.7,138.9,319,138.9z M332.1,83.6h9.8h0c6.2,0,11.2,5,11.2,11.2s-5,11.2-11.2,11.2
		h-9.9V83.6z"/>
</g>
</svg>
