<svg xmlns="http://www.w3.org/2000/svg" width="93.381" height="98.951" viewBox="0 0 93.381 98.951" style="fill: currentColor">
  <g id="Group_1" data-name="Group 1" transform="translate(-528.481 -588.854)">
    <g id="Group_19" data-name="Group 19">
      <g id="Group_18" data-name="Group 18">
        <rect id="Rectangle_9" data-name="Rectangle 9" width="6.941" height="30.244" rx="1.24" transform="translate(555.73 588.859)"/>
        <path id="Path_68" fill="currentColor" data-name="Path 68" d="M550.647,612.162H538.624V590.1a1.239,1.239,0,0,0-1.239-1.239h-4.463a1.239,1.239,0,0,0-1.239,1.239v27.766a1.239,1.239,0,0,0,1.239,1.239h17.725a1.24,1.24,0,0,0,1.24-1.239V613.4A1.24,1.24,0,0,0,550.647,612.162Z"/>
        <path id="Path_69" fill="currentColor" data-name="Path 69" d="M616.963,595.8a1.239,1.239,0,0,0,1.239-1.239V590.1a1.239,1.239,0,0,0-1.239-1.239H599.237A1.239,1.239,0,0,0,598,590.1v27.766a1.239,1.239,0,0,0,1.239,1.239h17.726a1.239,1.239,0,0,0,1.239-1.239V613.4a1.239,1.239,0,0,0-1.239-1.239H604.939v-4.71h12.024a1.24,1.24,0,0,0,1.239-1.24V601.75a1.24,1.24,0,0,0-1.239-1.24H604.939V595.8Z"/>
        <path id="Path_70" fill="currentColor" data-name="Path 70" d="M592.048,588.859h-4.462a1.24,1.24,0,0,0-1.24,1.239v16.066l-11.678-16.7a1.541,1.541,0,0,0-1.373-.608,1.248,1.248,0,0,0-.212,0h-4.462a1.24,1.24,0,0,0-1.24,1.239v27.766a1.24,1.24,0,0,0,1.24,1.239h4.462a1.24,1.24,0,0,0,1.24-1.239v-16.78L586.5,618.492a1.432,1.432,0,0,0,.143.173,1.238,1.238,0,0,0,.857.438h4.55a1.239,1.239,0,0,0,1.239-1.239V590.1A1.239,1.239,0,0,0,592.048,588.859Z"/>
      </g>
    </g>
    <g id="Group_23" data-name="Group 23">
      <g id="Group_21" data-name="Group 21">
        <g id="Group_20" data-name="Group 20">
          <rect id="Rectangle_10" data-name="Rectangle 10" width="93.381" height="58.576" rx="3.396" transform="translate(528.481 629.229)" fill="#08bf5b"/>
        </g>
      </g>
      <g id="Group_22" data-name="Group 22">
        <path id="Path_71" data-name="Path 71" d="M562.149,652.071a9.308,9.308,0,0,1-9.479,9.286h-4.063v7.6a.911.911,0,0,1-.911.911h-4.368a.911.911,0,0,1-.911-.911V643.7a.911.911,0,0,1,.911-.911h9.342A9.307,9.307,0,0,1,562.149,652.071Zm-6.191,0a3.309,3.309,0,0,0-3.288-3.482h-4.063v6.964h4.063A3.308,3.308,0,0,0,555.958,652.071Z" fill="#fff"/>
        <path id="Path_72" data-name="Path 72" d="M585.135,651v18.386a.479.479,0,0,1-.479.48h-4.845a.48.48,0,0,1-.479-.48v-1.338a7.268,7.268,0,0,1-5.765,2.36c-5.069,0-9.247-4.45-9.247-10.215s4.178-10.214,9.247-10.214a7.268,7.268,0,0,1,5.765,2.36V651a.479.479,0,0,1,.479-.479h4.845A.478.478,0,0,1,585.135,651Zm-5.8,9.193a4.606,4.606,0,1,0-4.6,4.721A4.418,4.418,0,0,0,579.332,660.2Z" fill="#fff"/>
        <path id="Path_73" data-name="Path 73" d="M604.448,651.028l-4.453,11.22-4.606-11.228a.8.8,0,0,0-.74-.5H589.71a.48.48,0,0,0-.444.661l7.684,18.732-2.8,7.054a.479.479,0,0,0,.446.656h4.941a.8.8,0,0,0,.743-.5l10.3-25.943a.479.479,0,0,0-.445-.656h-4.942A.8.8,0,0,0,604.448,651.028Z" fill="#fff"/>
      </g>
    </g>
  </g>
</svg>
