<svg xmlns="http://www.w3.org/2000/svg" xmlns:xlink="http://www.w3.org/1999/xlink" width="1200" height="600" viewBox="0 0 1200 600"><defs><radialGradient id="a" cx="0.5" cy="0.5" r="0.422" gradientUnits="objectBoundingBox"><stop offset="0" stop-color="#323232"/><stop offset="1" stop-color="#1e1e1e"/></radialGradient><linearGradient id="b" x1="0.5" y1="-1.054" x2="0.5" y2="1.002" gradientUnits="objectBoundingBox"><stop offset="0" stop-color="#c8861c"/><stop offset="0.323" stop-color="#e6a345"/><stop offset="1" stop-color="#f6db9b"/></linearGradient><linearGradient id="c" x1="21.397" y1="-1.054" x2="21.397" y2="1.002" gradientUnits="objectBoundingBox"><stop offset="0" stop-color="#c78a28"/><stop offset="0.323" stop-color="#e6a345"/><stop offset="1" stop-color="#f6db9b"/></linearGradient><linearGradient id="d" x1="0.156" y1="-0.44" x2="0.754" y2="1.009" gradientUnits="objectBoundingBox"><stop offset="0" stop-color="#fcdd98"/><stop offset="0.232" stop-color="#fada94"/><stop offset="0.407" stop-color="#f6d48b"/><stop offset="0.564" stop-color="#efc87b"/><stop offset="0.709" stop-color="#e6b864"/><stop offset="0.847" stop-color="#d9a346"/><stop offset="0.975" stop-color="#c98922"/><stop offset="1" stop-color="#e6a345"/></linearGradient><clipPath id="f"><rect width="1200" height="600"/></clipPath></defs><g id="e" clip-path="url(#f)"><rect width="1200" height="600" fill="#1e1e1e"/><path d="M1575,883H0V0H1639V883Zm1-1h62V820h-62Zm-63,0h62V820h-62Zm-63,0h62V820h-62Zm-63,0h62V820h-62Zm-63,0h62V820h-62Zm-63,0h62V820h-62Zm-63,0h62V820h-62Zm-63,0h62V820h-62Zm-63,0h62V820h-62Zm-63,0h62V820h-62Zm-63,0h62V820H946Zm-63,0h62V820H883Zm-63,0h62V820H820Zm-63,0h62V820H757Zm-63,0h62V820H694Zm-63,0h62V820H631Zm-63,0h62V820H568Zm-63,0h62V820H505Zm-63,0h62V820H442Zm-63,0h62V820H379Zm-63,0h62V820H316Zm-63,0h62V820H253Zm-63,0h62V820H190Zm-63,0h62V820H127Zm-63,0h62V820H64ZM1,882H63V820H1Zm1575-63h62V757h-62Zm-63,0h62V757h-62Zm-63,0h62V757h-62Zm-63,0h62V757h-62Zm-63,0h62V757h-62Zm-63,0h62V757h-62Zm-63,0h62V757h-62Zm-63,0h62V757h-62Zm-63,0h62V757h-62Zm-63,0h62V757h-62Zm-63,0h62V757H946Zm-63,0h62V757H883Zm-63,0h62V757H820Zm-63,0h62V757H757Zm-63,0h62V757H694Zm-63,0h62V757H631Zm-63,0h62V757H568Zm-63,0h62V757H505Zm-63,0h62V757H442Zm-63,0h62V757H379Zm-63,0h62V757H316Zm-63,0h62V757H253Zm-63,0h62V757H190Zm-63,0h62V757H127Zm-63,0h62V757H64ZM1,819H63V757H1Zm1575-63h62V694h-62Zm-63,0h62V694h-62Zm-63,0h62V694h-62Zm-63,0h62V694h-62Zm-63,0h62V694h-62Zm-63,0h62V694h-62Zm-63,0h62V694h-62Zm-63,0h62V694h-62Zm-63,0h62V694h-62Zm-63,0h62V694h-62Zm-63,0h62V694H946Zm-63,0h62V694H883Zm-63,0h62V694H820Zm-63,0h62V694H757Zm-63,0h62V694H694Zm-63,0h62V694H631Zm-63,0h62V694H568Zm-63,0h62V694H505Zm-63,0h62V694H442Zm-63,0h62V694H379Zm-63,0h62V694H316Zm-63,0h62V694H253Zm-63,0h62V694H190Zm-63,0h62V694H127Zm-63,0h62V694H64ZM1,756H63V694H1Zm1575-63h62V631h-62Zm-63,0h62V631h-62Zm-63,0h62V631h-62Zm-63,0h62V631h-62Zm-63,0h62V631h-62Zm-63,0h62V631h-62Zm-63,0h62V631h-62Zm-63,0h62V631h-62Zm-63,0h62V631h-62Zm-63,0h62V631h-62Zm-63,0h62V631H946Zm-63,0h62V631H883Zm-63,0h62V631H820Zm-63,0h62V631H757Zm-63,0h62V631H694Zm-63,0h62V631H631Zm-63,0h62V631H568Zm-63,0h62V631H505Zm-63,0h62V631H442Zm-63,0h62V631H379Zm-63,0h62V631H316Zm-63,0h62V631H253Zm-63,0h62V631H190Zm-63,0h62V631H127Zm-63,0h62V631H64ZM1,693H63V631H1Zm1575-63h62V568h-62Zm-63,0h62V568h-62Zm-63,0h62V568h-62Zm-63,0h62V568h-62Zm-63,0h62V568h-62Zm-63,0h62V568h-62Zm-63,0h62V568h-62Zm-63,0h62V568h-62Zm-63,0h62V568h-62Zm-63,0h62V568h-62Zm-63,0h62V568H946Zm-63,0h62V568H883Zm-63,0h62V568H820Zm-63,0h62V568H757Zm-63,0h62V568H694Zm-63,0h62V568H631Zm-63,0h62V568H568Zm-63,0h62V568H505Zm-63,0h62V568H442Zm-63,0h62V568H379Zm-63,0h62V568H316Zm-63,0h62V568H253Zm-63,0h62V568H190Zm-63,0h62V568H127Zm-63,0h62V568H64ZM1,630H63V568H1Zm1575-63h62V505h-62Zm-63,0h62V505h-62Zm-63,0h62V505h-62Zm-63,0h62V505h-62Zm-63,0h62V505h-62Zm-63,0h62V505h-62Zm-63,0h62V505h-62Zm-63,0h62V505h-62Zm-63,0h62V505h-62Zm-63,0h62V505h-62Zm-63,0h62V505H946Zm-63,0h62V505H883Zm-63,0h62V505H820Zm-63,0h62V505H757Zm-63,0h62V505H694Zm-63,0h62V505H631Zm-63,0h62V505H568Zm-63,0h62V505H505Zm-63,0h62V505H442Zm-63,0h62V505H379Zm-63,0h62V505H316Zm-63,0h62V505H253Zm-63,0h62V505H190Zm-63,0h62V505H127Zm-63,0h62V505H64ZM1,567H63V505H1Zm1575-63h62V442h-62Zm-63,0h62V442h-62Zm-63,0h62V442h-62Zm-63,0h62V442h-62Zm-63,0h62V442h-62Zm-63,0h62V442h-62Zm-63,0h62V442h-62Zm-63,0h62V442h-62Zm-63,0h62V442h-62Zm-63,0h62V442h-62Zm-63,0h62V442H946Zm-63,0h62V442H883Zm-63,0h62V442H820Zm-63,0h62V442H757Zm-63,0h62V442H694Zm-63,0h62V442H631Zm-63,0h62V442H568Zm-63,0h62V442H505Zm-63,0h62V442H442Zm-63,0h62V442H379Zm-63,0h62V442H316Zm-63,0h62V442H253Zm-63,0h62V442H190Zm-63,0h62V442H127Zm-63,0h62V442H64ZM1,504H63V442H1Zm1575-63h62V379h-62Zm-63,0h62V379h-62Zm-63,0h62V379h-62Zm-63,0h62V379h-62Zm-63,0h62V379h-62Zm-63,0h62V379h-62Zm-63,0h62V379h-62Zm-63,0h62V379h-62Zm-63,0h62V379h-62Zm-63,0h62V379h-62Zm-63,0h62V379H946Zm-63,0h62V379H883Zm-63,0h62V379H820Zm-63,0h62V379H757Zm-63,0h62V379H694Zm-63,0h62V379H631Zm-63,0h62V379H568Zm-63,0h62V379H505Zm-63,0h62V379H442Zm-63,0h62V379H379Zm-63,0h62V379H316Zm-63,0h62V379H253Zm-63,0h62V379H190Zm-63,0h62V379H127Zm-63,0h62V379H64ZM1,441H63V379H1Zm1575-63h62V316h-62Zm-63,0h62V316h-62Zm-63,0h62V316h-62Zm-63,0h62V316h-62Zm-63,0h62V316h-62Zm-63,0h62V316h-62Zm-63,0h62V316h-62Zm-63,0h62V316h-62Zm-63,0h62V316h-62Zm-63,0h62V316h-62Zm-63,0h62V316H946Zm-63,0h62V316H883Zm-63,0h62V316H820Zm-63,0h62V316H757Zm-63,0h62V316H694Zm-63,0h62V316H631Zm-63,0h62V316H568Zm-63,0h62V316H505Zm-63,0h62V316H442Zm-63,0h62V316H379Zm-63,0h62V316H316Zm-63,0h62V316H253Zm-63,0h62V316H190Zm-63,0h62V316H127Zm-63,0h62V316H64ZM1,378H63V316H1Zm1575-63h62V253h-62Zm-63,0h62V253h-62Zm-63,0h62V253h-62Zm-63,0h62V253h-62Zm-63,0h62V253h-62Zm-63,0h62V253h-62Zm-63,0h62V253h-62Zm-63,0h62V253h-62Zm-63,0h62V253h-62Zm-63,0h62V253h-62Zm-63,0h62V253H946Zm-63,0h62V253H883Zm-63,0h62V253H820Zm-63,0h62V253H757Zm-63,0h62V253H694Zm-63,0h62V253H631Zm-63,0h62V253H568Zm-63,0h62V253H505Zm-63,0h62V253H442Zm-63,0h62V253H379Zm-63,0h62V253H316Zm-63,0h62V253H253Zm-63,0h62V253H190Zm-63,0h62V253H127Zm-63,0h62V253H64ZM1,315H63V253H1Zm1575-63h62V190h-62Zm-63,0h62V190h-62Zm-63,0h62V190h-62Zm-63,0h62V190h-62Zm-63,0h62V190h-62Zm-63,0h62V190h-62Zm-63,0h62V190h-62Zm-63,0h62V190h-62Zm-63,0h62V190h-62Zm-63,0h62V190h-62Zm-63,0h62V190H946Zm-63,0h62V190H883Zm-63,0h62V190H820Zm-63,0h62V190H757Zm-63,0h62V190H694Zm-63,0h62V190H631Zm-63,0h62V190H568Zm-63,0h62V190H505Zm-63,0h62V190H442Zm-63,0h62V190H379Zm-63,0h62V190H316Zm-63,0h62V190H253Zm-63,0h62V190H190Zm-63,0h62V190H127Zm-63,0h62V190H64ZM1,252H63V190H1Zm1575-63h62V127h-62Zm-63,0h62V127h-62Zm-63,0h62V127h-62Zm-63,0h62V127h-62Zm-63,0h62V127h-62Zm-63,0h62V127h-62Zm-63,0h62V127h-62Zm-63,0h62V127h-62Zm-63,0h62V127h-62Zm-63,0h62V127h-62Zm-63,0h62V127H946Zm-63,0h62V127H883Zm-63,0h62V127H820Zm-63,0h62V127H757Zm-63,0h62V127H694Zm-63,0h62V127H631Zm-63,0h62V127H568Zm-63,0h62V127H505Zm-63,0h62V127H442Zm-63,0h62V127H379Zm-63,0h62V127H316Zm-63,0h62V127H253Zm-63,0h62V127H190Zm-63,0h62V127H127Zm-63,0h62V127H64ZM1,189H63V127H1Zm1575-63h62V64h-62Zm-63,0h62V64h-62Zm-63,0h62V64h-62Zm-63,0h62V64h-62Zm-63,0h62V64h-62Zm-63,0h62V64h-62Zm-63,0h62V64h-62Zm-63,0h62V64h-62Zm-63,0h62V64h-62Zm-63,0h62V64h-62Zm-63,0h62V64H946Zm-63,0h62V64H883Zm-63,0h62V64H820Zm-63,0h62V64H757Zm-63,0h62V64H694Zm-63,0h62V64H631Zm-63,0h62V64H568Zm-63,0h62V64H505Zm-63,0h62V64H442Zm-63,0h62V64H379Zm-63,0h62V64H316Zm-63,0h62V64H253Zm-63,0h62V64H190Zm-63,0h62V64H127Zm-63,0h62V64H64ZM1,126H63V64H1ZM1576,63h62V1h-62Zm-63,0h62V1h-62Zm-63,0h62V1h-62Zm-63,0h62V1h-62Zm-63,0h62V1h-62Zm-63,0h62V1h-62Zm-63,0h62V1h-62Zm-63,0h62V1h-62Zm-63,0h62V1h-62Zm-63,0h62V1h-62Zm-63,0h62V1H946Zm-63,0h62V1H883Zm-63,0h62V1H820Zm-63,0h62V1H757Zm-63,0h62V1H694Zm-63,0h62V1H631Zm-63,0h62V1H568Zm-63,0h62V1H505Zm-63,0h62V1H442Zm-63,0h62V1H379Zm-63,0h62V1H316Zm-63,0h62V1H253Zm-63,0h62V1H190Zm-63,0h62V1H127ZM64,63h62V1H64ZM1,63H63V1H1Z" transform="translate(-220 -141)" fill="url(#a)"/><g transform="translate(0.5)"><g transform="translate(271.355 265.658)"><path d="M600.954,178.694c-3.309-5.857-6.093-6.727-8.807-6.727-3.984,0-6.753,3.684-8.524,6.953l-7.068,14.514,1.925,3.158a26.366,26.366,0,0,0,35.477,11.132l1.837-.958Z" transform="translate(-489.283 -142.012)" fill="url(#b)"/><path d="M531.006,178.694c3.309-5.857,6.093-6.727,8.808-6.727,3.983,0,6.752,3.684,8.522,6.953l7.068,14.514-1.925,3.158A26.367,26.367,0,0,1,518,207.723l-1.837-.958Z" transform="translate(-516.166 -142.012)" fill="url(#c)"/><path d="M606.79,159.144c-5.153-10.4-20.622-10.631-25.866-.157l-7.619,14.592-7.621-14.592c-5.242-10.473-20.711-10.238-25.866.157l-9.912,19.179c4.706-5.341,11.3-2.194,14.174,3.242l10.691,19.679,5.469,10.457a14.494,14.494,0,0,0,6.227,6.336,15.129,15.129,0,0,0,13.674,0,14.5,14.5,0,0,0,6.226-6.336l5.469-10.457,10.691-19.679c2.872-5.435,9.469-8.583,14.174-3.242Z" transform="translate(-510.048 -151.239)" fill="url(#d)"/></g><g transform="translate(-135.189 -452.05)"><g transform="translate(561.612 723)"><path d="M126.663,82.094H125.21a9.684,9.684,0,0,1-9.673-9.673V47h11.89a2.848,2.848,0,0,0,0-5.7h-11.89V35.431a3.441,3.441,0,0,0-6.882,0V41.3h-4.167a2.848,2.848,0,0,0,0,5.7h4.167V72.421a16.553,16.553,0,0,0,16.536,16.536h1.453a3.441,3.441,0,1,0,0-6.882Z" transform="translate(74.611 -31.99)" fill="#fff"/><path d="M92.867,37.3a3.451,3.451,0,0,0-3.441,3.441v6.289C86.405,40.376,79.982,36.4,71.954,36.4a21.459,21.459,0,0,0-15.312,5.983C52.283,46.7,49.97,53.012,49.97,60.658c0,17.855,11.7,24.3,21.831,24.411h.268c8.01,0,14.375-3.938,17.358-10.552V80.6a3.441,3.441,0,0,0,6.882,0V40.758a3.451,3.451,0,0,0-3.441-3.441ZM73.292,78.876c-10.132,0-16.44-6.977-16.44-18.218s6.385-18.1,16.268-18.1c9.138,0,15.389,5.983,16.306,15.6V63.22C88.508,72.893,82.334,78.9,73.292,78.9Z" transform="translate(27.508 -27.97)" fill="#fff"/><path d="M62.315,36.4h0c-8.411,0-14.547,4.225-16.937,11.623-2.466-8.163-6.805-11.508-14.8-11.508a14.667,14.667,0,0,0-14.261,9.654V40.72a3.441,3.441,0,0,0-6.882,0V80.558a3.441,3.441,0,0,0,6.882,0V62.283c0-13.515,3.938-19.537,12.751-19.537S40.6,47.831,40.6,61.5V77.366h0v3.212a3.441,3.441,0,1,0,6.882,0V60.792C47.6,48.1,51.419,42.651,60.194,42.651S72.351,48.08,72.351,61.4V80.6a3.441,3.441,0,1,0,6.882,0V61.022c0-17.243-5.047-24.583-16.88-24.583Z" transform="translate(-9.44 -27.97)" fill="#fff"/><path d="M100.6,56.72c-7.245-1.319-13.515-2.447-13.515-7.7,0-4.3,4.531-6.977,11.814-6.977,4.875,0,9.73,1.969,11.814,4.8l.057.076a3.459,3.459,0,0,0,6.4-1.835,3.4,3.4,0,0,0-.363-1.529h.038l-.153-.249a.336.336,0,0,0-.076-.1c-.057-.076-.115-.153-.191-.249-2.887-3.881-10.629-6.977-17.606-7h-.076c-6.308,0-11.814,1.893-15.14,5.2a11.206,11.206,0,0,0-3.384,8.067c0,9.94,9.845,11.756,18.524,13.362,7.322,1.357,13.63,2.523,13.63,7.876,0,4.951-4.951,8.029-12.9,8.029-6.327,0-11.546-2.275-14.7-6.4l-.057-.057a3.447,3.447,0,0,0-3-1.74,3.492,3.492,0,0,0-3.479,3.479,3.387,3.387,0,0,0,.306,1.4h-.019l.134.248a1.061,1.061,0,0,0,.115.153,1.593,1.593,0,0,0,.153.229c3.422,5.3,11.756,8.965,20.531,8.965,11.89,0,19.881-5.792,19.881-14.395,0-10.227-9.979-12.024-18.772-13.63Z" transform="translate(53.27 -28.371)" fill="#fff"/><path d="M163.119,61.261a3,3,0,0,0,.746-2.237c-.268-13.745-9.1-22.614-22.5-22.614S118.1,46.389,118.1,60.649s9.31,24.239,23.7,24.239h.631c8.411-.153,14.987-3.422,18.791-9.233a3.111,3.111,0,0,0,.631-.937h0l.153-.249h-.057a3.921,3.921,0,0,0,.21-1.147,3.451,3.451,0,0,0-3.441-3.441,3.406,3.406,0,0,0-3.288,2.5v.057c-1.873,4-6.92,6.366-13.534,6.366-10.323,0-16.631-6.232-16.9-16.708h35.8a3.159,3.159,0,0,0,2.313-.822Zm-37.85-5.008c1.185-8.755,7.226-13.974,16.191-13.974s15.064,5.353,15.694,13.974H125.269Z" transform="translate(89.617 -27.961)" fill="#fff"/><path d="M167.22,36.679h-.153c-8.277-.516-11.929,4.148-13.515,7.742V40.54a3.441,3.441,0,0,0-6.882,0V80.378a3.441,3.441,0,0,0,6.882,0V59.695c0-6.289,1.415-10.839,4.225-13.458,2.141-2.007,5.123-2.925,8.851-2.7h.191c.076,0,.172.019.249.019a3.451,3.451,0,0,0,3.441-3.441,3.4,3.4,0,0,0-3.269-3.422Z" transform="translate(115.662 -27.752)" fill="#fff"/></g><g transform="translate(856.283 730.589)"><path d="M273.036,56.72c-7.245-1.319-13.515-2.447-13.515-7.7,0-4.3,4.531-6.977,11.814-6.977,4.875,0,9.73,1.969,11.814,4.8l.057.076a3.459,3.459,0,0,0,6.4-1.835,3.4,3.4,0,0,0-.363-1.529h.038l-.153-.249a.335.335,0,0,0-.076-.1c-.057-.076-.115-.153-.191-.249-2.887-3.881-10.629-6.977-17.606-7h-.077c-6.308,0-11.814,1.893-15.14,5.2a11.206,11.206,0,0,0-3.384,8.067c0,9.94,9.845,11.756,18.524,13.362,7.321,1.357,13.63,2.523,13.63,7.876,0,4.951-4.951,8.029-12.9,8.029-6.327,0-11.546-2.275-14.7-6.4l-.057-.057a3.472,3.472,0,0,0-6.48,1.74,3.387,3.387,0,0,0,.306,1.4h-.019l.134.248a.671.671,0,0,1,.1.153,1.6,1.6,0,0,0,.153.229c3.422,5.3,11.756,8.965,20.531,8.965,11.89,0,19.881-5.792,19.881-14.395,0-10.227-9.979-12.024-18.772-13.63Z" transform="translate(-85.2 -35.96)" fill="#fadda0"/><path d="M234.849,61.261a3,3,0,0,0,.746-2.237c-.268-13.745-9.1-22.614-22.5-22.614S189.83,46.389,189.83,60.649s9.31,24.239,23.7,24.239h.631c8.411-.153,14.987-3.422,18.791-9.214a3.111,3.111,0,0,0,.631-.937h0l.153-.249h-.057a3.92,3.92,0,0,0,.21-1.147,3.428,3.428,0,0,0-6.729-.937v.057c-1.873,4-6.92,6.366-13.534,6.366-10.323,0-16.631-6.232-16.9-16.708h35.8a3.159,3.159,0,0,0,2.313-.822ZM197,56.253c1.185-8.755,7.226-13.974,16.191-13.974s15.064,5.353,15.694,13.974H197Z" transform="translate(-140.663 -35.55)" fill="#fadda0"/><path d="M187.623,36.44c-10.285-.057-15.1,6.442-16.631,9.08V40.684a3.441,3.441,0,0,0-6.882,0V80.522a3.441,3.441,0,0,0,6.882,0V56.971c.344-5.008,2.542-14.2,14.261-14.2,16.077,0,15.427,16.555,15.427,19.25v18.5a3.441,3.441,0,0,0,6.882,0v-18.5c0-13.63-3.441-25.482-19.938-25.577Z" transform="translate(-164.11 -35.523)" fill="#fadda0"/><path d="M260.943,83.363h0a3.432,3.432,0,0,1-3.212-2.237l-10.17-27.374-9.348,26.954a3.436,3.436,0,0,1-3.154,2.313,3.327,3.327,0,0,1-3.269-2.141l-16.1-39.341a3.442,3.442,0,0,1,6.366-2.619L234.7,69.829l9.5-27.394a3.438,3.438,0,0,1,3.212-2.313h.038a3.476,3.476,0,0,1,3.231,2.237l10.342,27.833,11.7-30.433a3.431,3.431,0,0,1,6.4,2.466L264.154,81.146a3.416,3.416,0,0,1-3.212,2.2Z" transform="translate(-117.323 -35.209)" fill="#fadda0"/></g></g></g></g></svg>