<svg xmlns="http://www.w3.org/2000/svg" xmlns:xlink="http://www.w3.org/1999/xlink" width="1200" height="600" viewBox="0 0 1200 600"><defs><radialGradient id="a" cx="0.5" cy="0.5" r="0.422" gradientUnits="objectBoundingBox"><stop offset="0" stop-color="#323232"/><stop offset="1" stop-color="#1e1e1e"/></radialGradient><linearGradient id="b" x1="0.5" y1="-1.054" x2="0.5" y2="1.002" gradientUnits="objectBoundingBox"><stop offset="0" stop-color="#c8861c"/><stop offset="0.323" stop-color="#e6a345"/><stop offset="1" stop-color="#f6db9b"/></linearGradient><linearGradient id="c" x1="21.397" y1="-1.054" x2="21.397" y2="1.002" gradientUnits="objectBoundingBox"><stop offset="0" stop-color="#c78a28"/><stop offset="0.323" stop-color="#e6a345"/><stop offset="1" stop-color="#f6db9b"/></linearGradient><linearGradient id="d" x1="0.156" y1="-0.44" x2="0.754" y2="1.009" gradientUnits="objectBoundingBox"><stop offset="0" stop-color="#fcdd98"/><stop offset="0.232" stop-color="#fada94"/><stop offset="0.407" stop-color="#f6d48b"/><stop offset="0.564" stop-color="#efc87b"/><stop offset="0.709" stop-color="#e6b864"/><stop offset="0.847" stop-color="#d9a346"/><stop offset="0.975" stop-color="#c98922"/><stop offset="1" stop-color="#e6a345"/></linearGradient><clipPath id="f"><rect width="1200" height="600"/></clipPath></defs><g id="e" clip-path="url(#f)"><rect width="1200" height="600" fill="#1e1e1e"/><path d="M1575,883H0V0H1639V883Zm1-1h62V820h-62Zm-63,0h62V820h-62Zm-63,0h62V820h-62Zm-63,0h62V820h-62Zm-63,0h62V820h-62Zm-63,0h62V820h-62Zm-63,0h62V820h-62Zm-63,0h62V820h-62Zm-63,0h62V820h-62Zm-63,0h62V820h-62Zm-63,0h62V820H946Zm-63,0h62V820H883Zm-63,0h62V820H820Zm-63,0h62V820H757Zm-63,0h62V820H694Zm-63,0h62V820H631Zm-63,0h62V820H568Zm-63,0h62V820H505Zm-63,0h62V820H442Zm-63,0h62V820H379Zm-63,0h62V820H316Zm-63,0h62V820H253Zm-63,0h62V820H190Zm-63,0h62V820H127Zm-63,0h62V820H64ZM1,882H63V820H1Zm1575-63h62V757h-62Zm-63,0h62V757h-62Zm-63,0h62V757h-62Zm-63,0h62V757h-62Zm-63,0h62V757h-62Zm-63,0h62V757h-62Zm-63,0h62V757h-62Zm-63,0h62V757h-62Zm-63,0h62V757h-62Zm-63,0h62V757h-62Zm-63,0h62V757H946Zm-63,0h62V757H883Zm-63,0h62V757H820Zm-63,0h62V757H757Zm-63,0h62V757H694Zm-63,0h62V757H631Zm-63,0h62V757H568Zm-63,0h62V757H505Zm-63,0h62V757H442Zm-63,0h62V757H379Zm-63,0h62V757H316Zm-63,0h62V757H253Zm-63,0h62V757H190Zm-63,0h62V757H127Zm-63,0h62V757H64ZM1,819H63V757H1Zm1575-63h62V694h-62Zm-63,0h62V694h-62Zm-63,0h62V694h-62Zm-63,0h62V694h-62Zm-63,0h62V694h-62Zm-63,0h62V694h-62Zm-63,0h62V694h-62Zm-63,0h62V694h-62Zm-63,0h62V694h-62Zm-63,0h62V694h-62Zm-63,0h62V694H946Zm-63,0h62V694H883Zm-63,0h62V694H820Zm-63,0h62V694H757Zm-63,0h62V694H694Zm-63,0h62V694H631Zm-63,0h62V694H568Zm-63,0h62V694H505Zm-63,0h62V694H442Zm-63,0h62V694H379Zm-63,0h62V694H316Zm-63,0h62V694H253Zm-63,0h62V694H190Zm-63,0h62V694H127Zm-63,0h62V694H64ZM1,756H63V694H1Zm1575-63h62V631h-62Zm-63,0h62V631h-62Zm-63,0h62V631h-62Zm-63,0h62V631h-62Zm-63,0h62V631h-62Zm-63,0h62V631h-62Zm-63,0h62V631h-62Zm-63,0h62V631h-62Zm-63,0h62V631h-62Zm-63,0h62V631h-62Zm-63,0h62V631H946Zm-63,0h62V631H883Zm-63,0h62V631H820Zm-63,0h62V631H757Zm-63,0h62V631H694Zm-63,0h62V631H631Zm-63,0h62V631H568Zm-63,0h62V631H505Zm-63,0h62V631H442Zm-63,0h62V631H379Zm-63,0h62V631H316Zm-63,0h62V631H253Zm-63,0h62V631H190Zm-63,0h62V631H127Zm-63,0h62V631H64ZM1,693H63V631H1Zm1575-63h62V568h-62Zm-63,0h62V568h-62Zm-63,0h62V568h-62Zm-63,0h62V568h-62Zm-63,0h62V568h-62Zm-63,0h62V568h-62Zm-63,0h62V568h-62Zm-63,0h62V568h-62Zm-63,0h62V568h-62Zm-63,0h62V568h-62Zm-63,0h62V568H946Zm-63,0h62V568H883Zm-63,0h62V568H820Zm-63,0h62V568H757Zm-63,0h62V568H694Zm-63,0h62V568H631Zm-63,0h62V568H568Zm-63,0h62V568H505Zm-63,0h62V568H442Zm-63,0h62V568H379Zm-63,0h62V568H316Zm-63,0h62V568H253Zm-63,0h62V568H190Zm-63,0h62V568H127Zm-63,0h62V568H64ZM1,630H63V568H1Zm1575-63h62V505h-62Zm-63,0h62V505h-62Zm-63,0h62V505h-62Zm-63,0h62V505h-62Zm-63,0h62V505h-62Zm-63,0h62V505h-62Zm-63,0h62V505h-62Zm-63,0h62V505h-62Zm-63,0h62V505h-62Zm-63,0h62V505h-62Zm-63,0h62V505H946Zm-63,0h62V505H883Zm-63,0h62V505H820Zm-63,0h62V505H757Zm-63,0h62V505H694Zm-63,0h62V505H631Zm-63,0h62V505H568Zm-63,0h62V505H505Zm-63,0h62V505H442Zm-63,0h62V505H379Zm-63,0h62V505H316Zm-63,0h62V505H253Zm-63,0h62V505H190Zm-63,0h62V505H127Zm-63,0h62V505H64ZM1,567H63V505H1Zm1575-63h62V442h-62Zm-63,0h62V442h-62Zm-63,0h62V442h-62Zm-63,0h62V442h-62Zm-63,0h62V442h-62Zm-63,0h62V442h-62Zm-63,0h62V442h-62Zm-63,0h62V442h-62Zm-63,0h62V442h-62Zm-63,0h62V442h-62Zm-63,0h62V442H946Zm-63,0h62V442H883Zm-63,0h62V442H820Zm-63,0h62V442H757Zm-63,0h62V442H694Zm-63,0h62V442H631Zm-63,0h62V442H568Zm-63,0h62V442H505Zm-63,0h62V442H442Zm-63,0h62V442H379Zm-63,0h62V442H316Zm-63,0h62V442H253Zm-63,0h62V442H190Zm-63,0h62V442H127Zm-63,0h62V442H64ZM1,504H63V442H1Zm1575-63h62V379h-62Zm-63,0h62V379h-62Zm-63,0h62V379h-62Zm-63,0h62V379h-62Zm-63,0h62V379h-62Zm-63,0h62V379h-62Zm-63,0h62V379h-62Zm-63,0h62V379h-62Zm-63,0h62V379h-62Zm-63,0h62V379h-62Zm-63,0h62V379H946Zm-63,0h62V379H883Zm-63,0h62V379H820Zm-63,0h62V379H757Zm-63,0h62V379H694Zm-63,0h62V379H631Zm-63,0h62V379H568Zm-63,0h62V379H505Zm-63,0h62V379H442Zm-63,0h62V379H379Zm-63,0h62V379H316Zm-63,0h62V379H253Zm-63,0h62V379H190Zm-63,0h62V379H127Zm-63,0h62V379H64ZM1,441H63V379H1Zm1575-63h62V316h-62Zm-63,0h62V316h-62Zm-63,0h62V316h-62Zm-63,0h62V316h-62Zm-63,0h62V316h-62Zm-63,0h62V316h-62Zm-63,0h62V316h-62Zm-63,0h62V316h-62Zm-63,0h62V316h-62Zm-63,0h62V316h-62Zm-63,0h62V316H946Zm-63,0h62V316H883Zm-63,0h62V316H820Zm-63,0h62V316H757Zm-63,0h62V316H694Zm-63,0h62V316H631Zm-63,0h62V316H568Zm-63,0h62V316H505Zm-63,0h62V316H442Zm-63,0h62V316H379Zm-63,0h62V316H316Zm-63,0h62V316H253Zm-63,0h62V316H190Zm-63,0h62V316H127Zm-63,0h62V316H64ZM1,378H63V316H1Zm1575-63h62V253h-62Zm-63,0h62V253h-62Zm-63,0h62V253h-62Zm-63,0h62V253h-62Zm-63,0h62V253h-62Zm-63,0h62V253h-62Zm-63,0h62V253h-62Zm-63,0h62V253h-62Zm-63,0h62V253h-62Zm-63,0h62V253h-62Zm-63,0h62V253H946Zm-63,0h62V253H883Zm-63,0h62V253H820Zm-63,0h62V253H757Zm-63,0h62V253H694Zm-63,0h62V253H631Zm-63,0h62V253H568Zm-63,0h62V253H505Zm-63,0h62V253H442Zm-63,0h62V253H379Zm-63,0h62V253H316Zm-63,0h62V253H253Zm-63,0h62V253H190Zm-63,0h62V253H127Zm-63,0h62V253H64ZM1,315H63V253H1Zm1575-63h62V190h-62Zm-63,0h62V190h-62Zm-63,0h62V190h-62Zm-63,0h62V190h-62Zm-63,0h62V190h-62Zm-63,0h62V190h-62Zm-63,0h62V190h-62Zm-63,0h62V190h-62Zm-63,0h62V190h-62Zm-63,0h62V190h-62Zm-63,0h62V190H946Zm-63,0h62V190H883Zm-63,0h62V190H820Zm-63,0h62V190H757Zm-63,0h62V190H694Zm-63,0h62V190H631Zm-63,0h62V190H568Zm-63,0h62V190H505Zm-63,0h62V190H442Zm-63,0h62V190H379Zm-63,0h62V190H316Zm-63,0h62V190H253Zm-63,0h62V190H190Zm-63,0h62V190H127Zm-63,0h62V190H64ZM1,252H63V190H1Zm1575-63h62V127h-62Zm-63,0h62V127h-62Zm-63,0h62V127h-62Zm-63,0h62V127h-62Zm-63,0h62V127h-62Zm-63,0h62V127h-62Zm-63,0h62V127h-62Zm-63,0h62V127h-62Zm-63,0h62V127h-62Zm-63,0h62V127h-62Zm-63,0h62V127H946Zm-63,0h62V127H883Zm-63,0h62V127H820Zm-63,0h62V127H757Zm-63,0h62V127H694Zm-63,0h62V127H631Zm-63,0h62V127H568Zm-63,0h62V127H505Zm-63,0h62V127H442Zm-63,0h62V127H379Zm-63,0h62V127H316Zm-63,0h62V127H253Zm-63,0h62V127H190Zm-63,0h62V127H127Zm-63,0h62V127H64ZM1,189H63V127H1Zm1575-63h62V64h-62Zm-63,0h62V64h-62Zm-63,0h62V64h-62Zm-63,0h62V64h-62Zm-63,0h62V64h-62Zm-63,0h62V64h-62Zm-63,0h62V64h-62Zm-63,0h62V64h-62Zm-63,0h62V64h-62Zm-63,0h62V64h-62Zm-63,0h62V64H946Zm-63,0h62V64H883Zm-63,0h62V64H820Zm-63,0h62V64H757Zm-63,0h62V64H694Zm-63,0h62V64H631Zm-63,0h62V64H568Zm-63,0h62V64H505Zm-63,0h62V64H442Zm-63,0h62V64H379Zm-63,0h62V64H316Zm-63,0h62V64H253Zm-63,0h62V64H190Zm-63,0h62V64H127Zm-63,0h62V64H64ZM1,126H63V64H1ZM1576,63h62V1h-62Zm-63,0h62V1h-62Zm-63,0h62V1h-62Zm-63,0h62V1h-62Zm-63,0h62V1h-62Zm-63,0h62V1h-62Zm-63,0h62V1h-62Zm-63,0h62V1h-62Zm-63,0h62V1h-62Zm-63,0h62V1h-62Zm-63,0h62V1H946Zm-63,0h62V1H883Zm-63,0h62V1H820Zm-63,0h62V1H757Zm-63,0h62V1H694Zm-63,0h62V1H631Zm-63,0h62V1H568Zm-63,0h62V1H505Zm-63,0h62V1H442Zm-63,0h62V1H379Zm-63,0h62V1H316Zm-63,0h62V1H253Zm-63,0h62V1H190Zm-63,0h62V1H127ZM64,63h62V1H64ZM1,63H63V1H1Z" transform="translate(-220 -141)" fill="url(#a)"/><g transform="translate(344.11 265.658)"><path d="M600.954,178.694c-3.309-5.857-6.093-6.727-8.807-6.727-3.984,0-6.753,3.684-8.524,6.953l-7.068,14.514,1.925,3.158a26.366,26.366,0,0,0,35.477,11.132l1.837-.958Z" transform="translate(-489.283 -142.012)" fill="url(#b)"/><path d="M531.006,178.694c3.309-5.857,6.093-6.727,8.808-6.727,3.983,0,6.752,3.684,8.522,6.953l7.068,14.514-1.925,3.158A26.367,26.367,0,0,1,518,207.723l-1.837-.958Z" transform="translate(-516.166 -142.012)" fill="url(#c)"/><path d="M606.79,159.144c-5.153-10.4-20.622-10.631-25.866-.157l-7.619,14.592-7.621-14.592c-5.242-10.473-20.711-10.238-25.866.157l-9.912,19.179c4.706-5.341,11.3-2.194,14.174,3.242l10.691,19.679,5.469,10.457a14.494,14.494,0,0,0,6.227,6.336,15.129,15.129,0,0,0,13.674,0,14.5,14.5,0,0,0,6.226-6.336l5.469-10.457,10.691-19.679c2.872-5.435,9.469-8.583,14.174-3.242Z" transform="translate(-510.048 -151.239)" fill="url(#d)"/></g><g transform="translate(498.119 270.969)"><path d="M229.641,76.157a3.446,3.446,0,0,0-3.436,3.436v6.28c-3.016-6.642-9.429-10.612-17.445-10.612a21.425,21.425,0,0,0-15.288,5.974c-4.352,4.314-6.661,10.612-6.661,18.247,0,17.827,11.681,24.259,21.8,24.374h.267c8,0,14.353-3.932,17.331-10.536v6.07a3.436,3.436,0,1,0,6.871,0V79.612a3.446,3.446,0,0,0-3.436-3.436ZM210.1,117.671c-10.116,0-16.415-6.967-16.415-18.19s6.375-18.075,16.243-18.075c9.123,0,15.365,5.974,16.281,15.575v5.039c-.916,9.658-7.081,15.651-16.109,15.651Z" transform="translate(-139.551 -66.862)" fill="#fff"/><path d="M284.811,70.87a3.446,3.446,0,0,0-3.436,3.436V89.88c-3.016-6.642-9.429-10.612-17.445-10.612a21.425,21.425,0,0,0-15.288,5.974c-4.352,4.314-6.661,10.612-6.661,18.247,0,17.827,11.681,24.259,21.8,24.374h.267c8,0,14.353-3.932,17.331-10.536v6.07a3.436,3.436,0,1,0,6.871,0V74.344a3.446,3.446,0,0,0-3.436-3.436Zm-19.545,50.809c-10.116,0-16.415-6.967-16.415-18.19s6.375-18.075,16.243-18.075c9.123,0,15.365,5.974,16.281,15.575v5.039C280.459,115.686,274.294,121.679,265.266,121.679Z" transform="translate(-89.42 -70.851)" fill="#fff"/><path d="M310.925,85.232a21.458,21.458,0,0,0-15.288-5.974c-8.016,0-14.43,3.97-17.445,10.612V74.3a3.436,3.436,0,1,0-6.871,0v49.053a3.436,3.436,0,1,0,6.871,0v-6.07c2.978,6.6,9.333,10.555,17.331,10.555h.267c10.116-.115,21.8-6.547,21.8-24.374,0-7.616-2.31-13.933-6.661-18.247ZM294.3,121.669c-9.028,0-15.212-5.993-16.109-15.651v-5.039c.916-9.6,7.158-15.575,16.281-15.575,9.868,0,16.243,7.1,16.243,18.075S304.436,121.669,294.3,121.669Z" transform="translate(-62.759 -70.86)" fill="#fff"/><path d="M184.362,95.918c-7.234-1.317-13.494-2.443-13.494-7.692,0-4.295,4.524-6.967,11.8-6.967,4.867,0,9.715,1.966,11.8,4.791l.057.076a3.454,3.454,0,0,0,6.394-1.832,3.4,3.4,0,0,0-.363-1.527h.038l-.153-.248a.335.335,0,0,0-.076-.1,2.793,2.793,0,0,1-.172-.248c-2.882-3.875-10.612-6.967-17.579-6.986h-.076c-6.3,0-11.8,1.89-15.117,5.192a11.189,11.189,0,0,0-3.378,8.055c0,9.925,9.83,11.738,18.5,13.342,7.31,1.355,13.609,2.519,13.609,7.864,0,4.943-4.943,8.016-12.884,8.016-6.318,0-11.528-2.271-14.678-6.394l-.057-.057a3.466,3.466,0,0,0-6.47,1.737,3.381,3.381,0,0,0,.305,1.393h-.019l.134.248a1.061,1.061,0,0,0,.114.153,1.593,1.593,0,0,0,.153.229c3.417,5.287,11.738,8.952,20.5,8.952,11.872,0,19.85-5.783,19.85-14.372,0-10.211-9.963-12.006-18.743-13.609Z" transform="translate(-160.991 -66.925)" fill="#fff"/><path d="M239.257,75.35c-10.269-.057-15.079,6.432-16.605,9.066V79.587a3.436,3.436,0,1,0-6.871,0v39.777a3.436,3.436,0,0,0,6.871,0V95.849c.344-5,2.539-14.181,14.239-14.181,16.052,0,15.4,16.529,15.4,19.22h0v18.476a3.436,3.436,0,0,0,6.871,0V100.888c0-13.609-3.436-25.443-19.907-25.538Z" transform="translate(-113.227 -66.78)" fill="#fff"/><path d="M353.087,100.056l17.445-18.614a3.426,3.426,0,0,0-5.02-4.663L348.391,95.051,331.27,76.779a3.426,3.426,0,0,0-5.02,4.663L343.7,100.056,326.251,118.67a3.4,3.4,0,0,0,.172,4.834,3.476,3.476,0,0,0,2.348.914,3.391,3.391,0,0,0,2.5-1.085l17.121-18.271,17.121,18.271a3.391,3.391,0,0,0,2.5,1.085,3.476,3.476,0,0,0,2.348-.914,3.419,3.419,0,0,0,.172-4.834Z" transform="translate(-13.686 -67.406)" fill="#fff"/><path d="M321.513,75.27A23.142,23.142,0,0,0,298.38,98.4v2.329a23.133,23.133,0,1,0,46.266,0V98.4A23.142,23.142,0,0,0,321.513,75.27Zm16.262,26.187a16.262,16.262,0,1,1-32.524,0v-3.8a16.262,16.262,0,1,1,32.524,0Z" transform="translate(-38.17 -66.853)" fill="#fff"/></g></g></svg>