<svg xmlns="http://www.w3.org/2000/svg" xmlns:xlink="http://www.w3.org/1999/xlink" width="288" height="288" viewBox="0 0 288 288"><defs><linearGradient id="a" x2="1" y2="1" gradientUnits="objectBoundingBox"><stop offset="0" stop-color="#f27066"/><stop offset="0.241" stop-color="#dde886"/><stop offset="0.498" stop-color="#1b9fd0"/><stop offset="0.749" stop-color="#892fcb"/><stop offset="1" stop-color="#db3131"/></linearGradient><linearGradient id="b" x1="0.5" y1="-1.054" x2="0.5" y2="1.002" gradientUnits="objectBoundingBox"><stop offset="0.323" stop-color="#c8861c"/><stop offset="1" stop-color="#f6db9b"/></linearGradient><linearGradient id="c" x1="21.397" y1="-1.054" x2="21.397" y2="1.002" xlink:href="#b"/><linearGradient id="d" x1="0.5" y1="-0.45" x2="0.5" y2="1.087" gradientUnits="objectBoundingBox"><stop offset="0" stop-color="#fcdd98"/><stop offset="0.232" stop-color="#fada94"/><stop offset="0.407" stop-color="#f6d48b"/><stop offset="0.564" stop-color="#efc87b"/><stop offset="0.709" stop-color="#e6b864"/><stop offset="0.847" stop-color="#d9a346"/><stop offset="0.978" stop-color="#ca8a22"/><stop offset="1" stop-color="#c8861c"/></linearGradient><clipPath id="f"><rect width="288" height="288"/></clipPath></defs><g id="e" clip-path="url(#f)"><path d="M0,288V0H288V288Zm5-5.017H283V247.5h-5V278H192V247.5h-5V278H101V247.5H96V278H10V212H51v-5H10V81H51V76H10V10H96V41.5h5V10h86V41.5h5V10h86V40.5h5V5.017H5ZM194,276h82V214H194Zm-91,0h82V214H103Zm-91,0H94V214H12Zm271-33.5V45.5h-5V76H192V46.5h-5V76H148.5v5H278V207H237.5v5H278v30.5ZM148.5,212H187v30.5h5V212h40.5v-5h-84ZM56,212H96v30.5h5V212h38.5v-5H101V81h38.5V76H101V46.5H96V76H56v5H96V207H56Zm88.5,0h3v-5h-3Zm-4,0h3v-5h-3Zm135.492-7v-3.86h-4.058V205Zm-4.566,0v-3.86h-4.058V205Zm-4.566,0v-3.86H262.8V205Zm-4.566,0v-3.86h-4.057V205Zm-4.565,0v-3.86h-4.058V205Zm-4.566,0v-3.86h-4.058V205Zm-4.566,0v-3.86h-4.058V205Zm-4.566,0v-3.86h-4.058V205Zm-4.566,0v-3.86h-4.058V205Zm-4.566,0v-3.86h-4.058V205Zm-4.566,0v-3.86h-4.057V205Zm-4.566,0v-3.86h-4.057V205Zm-4.565,0v-3.86h-4.058V205Zm-4.566,0v-3.86h-4.058V205Zm-4.566,0v-3.86h-4.058V205Zm-4.566,0v-3.86H203.45V205Zm-4.566,0v-3.86h-4.058V205Zm-4.566,0v-3.86h-4.058V205Zm-4.566,0v-3.86h-4.058V205Zm-4.566,0v-3.86h-4.057V205Zm-4.565,0v-3.86h-4.058V205Zm-4.566,0v-3.86h-4.058V205Zm-4.566,0v-3.86h-4.058V205Zm-4.566,0v-3.86h-4.058V205Zm-4.566,0v-3.86H162.36V205Zm-4.566,0v-3.86h-4.058V205Zm-4.566,0v-3.86h-4.058V205Zm-4.566,0v-3.86h-4.057V205Zm-4.565,0v-3.86H144.1V205Zm-4.566,0v-3.86h-4.058V205Zm-4.566,0v-3.86h-4.058V205Zm-4.566,0v-3.86H130.4V205Zm-4.566,0v-3.86h-4.058V205Zm-4.566,0v-3.86H121.27V205Zm-4.566,0v-3.86H116.7V205Zm-4.566,0v-3.86h-4.057V205Zm-4.565,0v-3.86h-4.058V205Zm-4.566,0v-3.86h-4.058V205ZM12,205H94V193H12Zm259.934-4.38h4.058V196.6h-4.058Zm-4.566,0h4.058V196.6h-4.058Zm-4.566,0h4.058V196.6H262.8Zm-4.565,0H262.3V196.6h-4.057Zm-4.566,0h4.058V196.6h-4.058Zm-4.566,0h4.058V196.6h-4.058Zm-4.566,0H248.6V196.6h-4.058Zm-4.566,0h4.058V196.6h-4.058Zm-4.566,0h4.058V196.6h-4.058Zm-4.566,0H234.9V196.6h-4.058Zm-4.565,0h4.057V196.6h-4.057Zm-4.566,0h4.057V196.6h-4.057Zm-4.566,0h4.058V196.6h-4.058Zm-4.566,0h4.058V196.6h-4.058Zm-4.566,0h4.058V196.6h-4.058Zm-4.566,0h4.058V196.6H203.45Zm-4.566,0h4.058V196.6h-4.058Zm-4.566,0h4.058V196.6h-4.058Zm-4.566,0h4.058V196.6h-4.058Zm-4.565,0h4.057V196.6h-4.057Zm-4.566,0h4.058V196.6h-4.058Zm-4.566,0h4.058V196.6h-4.058Zm-4.566,0h4.058V196.6h-4.058Zm-4.566,0h4.058V196.6h-4.058Zm-4.566,0h4.058V196.6H162.36Zm-4.566,0h4.058V196.6h-4.058Zm-4.566,0h4.058V196.6h-4.058Zm-4.565,0h4.057V196.6h-4.057Zm-4.566,0h4.058V196.6H144.1Zm-4.566,0h4.058V196.6h-4.058Zm-4.566,0h4.058V196.6h-4.058Zm-4.566,0h4.058V196.6H130.4Zm-4.566,0h4.058V196.6h-4.058Zm-4.566,0h4.058V196.6H121.27Zm-4.565,0h4.057V196.6H116.7Zm-4.566,0H116.2V196.6h-4.057Zm-4.566,0h4.058V196.6h-4.058Zm-4.566,0h4.058V196.6h-4.058ZM271.934,196.1h4.058v-4h-4.058Zm-4.566,0h4.058v-4h-4.058Zm-4.566,0h4.058v-4H262.8Zm-4.565,0H262.3v-4h-4.057Zm-4.566,0h4.058v-4h-4.058Zm-4.566,0h4.058v-4h-4.058Zm-4.566,0H248.6v-4h-4.058Zm-4.566,0h4.058v-4h-4.058Zm-4.566,0h4.058v-4h-4.058Zm-4.566,0H234.9v-4h-4.058Zm-4.565,0h4.057v-4h-4.057Zm-4.566,0h4.057v-4h-4.057Zm-4.566,0h4.058v-4h-4.058Zm-4.566,0h4.058v-4h-4.058Zm-4.566,0h4.058v-4h-4.058Zm-4.566,0h4.058v-4H203.45Zm-4.566,0h4.058v-4h-4.058Zm-4.566,0h4.058v-4h-4.058Zm-4.566,0h4.058v-4h-4.058Zm-4.565,0h4.057v-4h-4.057Zm-4.566,0h4.058v-4h-4.058Zm-4.566,0h4.058v-4h-4.058Zm-4.566,0h4.058v-4h-4.058Zm-4.566,0h4.058v-4h-4.058Zm-4.566,0h4.058v-4H162.36Zm-4.566,0h4.058v-4h-4.058Zm-4.566,0h4.058v-4h-4.058Zm-4.565,0h4.057v-4h-4.057Zm-4.566,0h4.058v-4H144.1Zm-4.566,0h4.058v-4h-4.058Zm-4.566,0h4.058v-4h-4.058Zm-4.566,0h4.058v-4H130.4Zm-4.566,0h4.058v-4h-4.058Zm-4.566,0h4.058v-4H121.27Zm-4.565,0h4.057v-4H116.7Zm-4.566,0H116.2v-4h-4.057Zm-4.566,0h4.058v-4h-4.058Zm-4.566,0h4.058v-4h-4.058ZM12,192H94V180H12Zm259.934-.44h4.058v-4h-4.058Zm-4.566,0h4.058v-4h-4.058Zm-4.566,0h4.058v-4H262.8Zm-4.565,0H262.3v-4h-4.057Zm-4.566,0h4.058v-4h-4.058Zm-4.566,0h4.058v-4h-4.058Zm-4.566,0H248.6v-4h-4.058Zm-4.566,0h4.058v-4h-4.058Zm-4.566,0h4.058v-4h-4.058Zm-4.566,0H234.9v-4h-4.058Zm-4.565,0h4.057v-4h-4.057Zm-4.566,0h4.057v-4h-4.057Zm-4.566,0h4.058v-4h-4.058Zm-4.566,0h4.058v-4h-4.058Zm-4.566,0h4.058v-4h-4.058Zm-4.566,0h4.058v-4H203.45Zm-4.566,0h4.058v-4h-4.058Zm-4.566,0h4.058v-4h-4.058Zm-4.566,0h4.058v-4h-4.058Zm-4.565,0h4.057v-4h-4.057Zm-4.566,0h4.058v-4h-4.058Zm-4.566,0h4.058v-4h-4.058Zm-4.566,0h4.058v-4h-4.058Zm-4.566,0h4.058v-4h-4.058Zm-4.566,0h4.058v-4H162.36Zm-4.566,0h4.058v-4h-4.058Zm-4.566,0h4.058v-4h-4.058Zm-4.565,0h4.057v-4h-4.057Zm-4.566,0h4.058v-4H144.1Zm-4.566,0h4.058v-4h-4.058Zm-4.566,0h4.058v-4h-4.058Zm-4.566,0h4.058v-4H130.4Zm-4.566,0h4.058v-4h-4.058Zm-4.566,0h4.058v-4H121.27Zm-4.565,0h4.057v-4H116.7Zm-4.566,0H116.2v-4h-4.057Zm-4.566,0h4.058v-4h-4.058Zm-4.566,0h4.058v-4h-4.058Zm168.926-4.5h4.058v-4.016h-4.058Zm-4.566,0h4.058v-4.016h-4.058Zm-4.566,0h4.058v-4.016H262.8Zm-4.565,0H262.3v-4.016h-4.057Zm-4.566,0h4.058v-4.016h-4.058Zm-4.566,0h4.058v-4.016h-4.058Zm-4.566,0H248.6v-4.016h-4.058Zm-4.566,0h4.058v-4.016h-4.058Zm-4.566,0h4.058v-4.016h-4.058Zm-4.566,0H234.9v-4.016h-4.058Zm-4.565,0h4.057v-4.016h-4.057Zm-4.566,0h4.057v-4.016h-4.057Zm-4.566,0h4.058v-4.016h-4.058Zm-4.566,0h4.058v-4.016h-4.058Zm-4.566,0h4.058v-4.016h-4.058Zm-4.566,0h4.058v-4.016H203.45Zm-4.566,0h4.058v-4.016h-4.058Zm-4.566,0h4.058v-4.016h-4.058Zm-4.566,0h4.058v-4.016h-4.058Zm-4.565,0h4.057v-4.016h-4.057Zm-4.566,0h4.058v-4.016h-4.058Zm-4.566,0h4.058v-4.016h-4.058Zm-4.566,0h4.058v-4.016h-4.058Zm-4.566,0h4.058v-4.016h-4.058Zm-4.566,0h4.058v-4.016H162.36Zm-4.566,0h4.058v-4.016h-4.058Zm-4.566,0h4.058v-4.016h-4.058Zm-4.565,0h4.057v-4.016h-4.057Zm-4.566,0h4.058v-4.016H144.1Zm-4.566,0h4.058v-4.016h-4.058Zm-4.566,0h4.058v-4.016h-4.058Zm-4.566,0h4.058v-4.016H130.4Zm-4.566,0h4.058v-4.016h-4.058Zm-4.566,0h4.058v-4.016H121.27Zm-4.565,0h4.057v-4.016H116.7Zm-4.566,0H116.2v-4.016h-4.057Zm-4.566,0h4.058v-4.016h-4.058Zm-4.566,0h4.058v-4.016h-4.058Zm168.926-4.535h4.058V178.5h-4.058Zm-4.566,0h4.058V178.5h-4.058Zm-4.566,0h4.058V178.5H262.8Zm-4.565,0H262.3V178.5h-4.057Zm-4.566,0h4.058V178.5h-4.058Zm-4.566,0h4.058V178.5h-4.058Zm-4.566,0H248.6V178.5h-4.058Zm-4.566,0h4.058V178.5h-4.058Zm-4.566,0h4.058V178.5h-4.058Zm-4.566,0H234.9V178.5h-4.058Zm-4.565,0h4.057V178.5h-4.057Zm-4.566,0h4.057V178.5h-4.057Zm-4.566,0h4.058V178.5h-4.058Zm-4.566,0h4.058V178.5h-4.058Zm-4.566,0h4.058V178.5h-4.058Zm-4.566,0h4.058V178.5H203.45Zm-4.566,0h4.058V178.5h-4.058Zm-4.566,0h4.058V178.5h-4.058Zm-4.566,0h4.058V178.5h-4.058Zm-4.565,0h4.057V178.5h-4.057Zm-4.566,0h4.058V178.5h-4.058Zm-4.566,0h4.058V178.5h-4.058Zm-4.566,0h4.058V178.5h-4.058Zm-4.566,0h4.058V178.5h-4.058Zm-4.566,0h4.058V178.5H162.36Zm-4.566,0h4.058V178.5h-4.058Zm-4.566,0h4.058V178.5h-4.058Zm-4.565,0h4.057V178.5h-4.057Zm-4.566,0h4.058V178.5H144.1Zm-4.566,0h4.058V178.5h-4.058Zm-4.566,0h4.058V178.5h-4.058Zm-4.566,0h4.058V178.5H130.4Zm-4.566,0h4.058V178.5h-4.058Zm-4.566,0h4.058V178.5H121.27Zm-4.565,0h4.057V178.5H116.7Zm-4.566,0H116.2V178.5h-4.057Zm-4.566,0h4.058V178.5h-4.058Zm-4.566,0h4.058V178.5h-4.058ZM12,179H94V167H12Zm259.934-1h4.058v-3.956h-4.058Zm-4.566,0h4.058v-3.956h-4.058Zm-4.566,0h4.058v-3.956H262.8Zm-4.565,0H262.3v-3.956h-4.057Zm-4.566,0h4.058v-3.956h-4.058Zm-4.566,0h4.058v-3.956h-4.058Zm-4.566,0H248.6v-3.956h-4.058Zm-4.566,0h4.058v-3.956h-4.058Zm-4.566,0h4.058v-3.956h-4.058Zm-4.566,0H234.9v-3.956h-4.058Zm-4.565,0h4.057v-3.956h-4.057Zm-4.566,0h4.057v-3.956h-4.057Zm-4.566,0h4.058v-3.956h-4.058Zm-4.566,0h4.058v-3.956h-4.058Zm-4.566,0h4.058v-3.956h-4.058Zm-4.566,0h4.058v-3.956H203.45Zm-4.566,0h4.058v-3.956h-4.058Zm-4.566,0h4.058v-3.956h-4.058Zm-4.566,0h4.058v-3.956h-4.058Zm-4.565,0h4.057v-3.956h-4.057Zm-4.566,0h4.058v-3.956h-4.058Zm-4.566,0h4.058v-3.956h-4.058Zm-4.566,0h4.058v-3.956h-4.058Zm-4.566,0h4.058v-3.956h-4.058Zm-4.566,0h4.058v-3.956H162.36Zm-4.566,0h4.058v-3.956h-4.058Zm-4.566,0h4.058v-3.956h-4.058Zm-4.565,0h4.057v-3.956h-4.057Zm-4.566,0h4.058v-3.956H144.1Zm-4.566,0h4.058v-3.956h-4.058Zm-4.566,0h4.058v-3.956h-4.058Zm-4.566,0h4.058v-3.956H130.4Zm-4.566,0h4.058v-3.956h-4.058Zm-4.566,0h4.058v-3.956H121.27Zm-4.565,0h4.057v-3.956H116.7Zm-4.566,0H116.2v-3.956h-4.057Zm-4.566,0h4.058v-3.956h-4.058Zm-4.566,0h4.058v-3.956h-4.058Zm168.926-4.536h4.058V169.5h-4.058Zm-4.566,0h4.058V169.5h-4.058Zm-4.566,0h4.058V169.5H262.8Zm-4.565,0H262.3V169.5h-4.057Zm-4.566,0h4.058V169.5h-4.058Zm-4.566,0h4.058V169.5h-4.058Zm-4.566,0H248.6V169.5h-4.058Zm-4.566,0h4.058V169.5h-4.058Zm-4.566,0h4.058V169.5h-4.058Zm-4.566,0H234.9V169.5h-4.058Zm-4.565,0h4.057V169.5h-4.057Zm-4.566,0h4.057V169.5h-4.057Zm-4.566,0h4.058V169.5h-4.058Zm-4.566,0h4.058V169.5h-4.058Zm-4.566,0h4.058V169.5h-4.058Zm-4.566,0h4.058V169.5H203.45Zm-4.566,0h4.058V169.5h-4.058Zm-4.566,0h4.058V169.5h-4.058Zm-4.566,0h4.058V169.5h-4.058Zm-4.565,0h4.057V169.5h-4.057Zm-4.566,0h4.058V169.5h-4.058Zm-4.566,0h4.058V169.5h-4.058Zm-4.566,0h4.058V169.5h-4.058Zm-4.566,0h4.058V169.5h-4.058Zm-4.566,0h4.058V169.5H162.36Zm-4.566,0h4.058V169.5h-4.058Zm-4.566,0h4.058V169.5h-4.058Zm-4.565,0h4.057V169.5h-4.057Zm-4.566,0h4.058V169.5H144.1Zm-4.566,0h4.058V169.5h-4.058Zm-4.566,0h4.058V169.5h-4.058Zm-4.566,0h4.058V169.5H130.4Zm-4.566,0h4.058V169.5h-4.058Zm-4.566,0h4.058V169.5H121.27Zm-4.565,0h4.057V169.5H116.7Zm-4.566,0H116.2V169.5h-4.057Zm-4.566,0h4.058V169.5h-4.058Zm-4.566,0h4.058V169.5h-4.058ZM271.934,169h4.058V164.98h-4.058Zm-4.566,0h4.058V164.98h-4.058Zm-4.566,0h4.058V164.98H262.8Zm-4.565,0H262.3V164.98h-4.057Zm-4.566,0h4.058V164.98h-4.058Zm-4.566,0h4.058V164.98h-4.058Zm-4.566,0H248.6V164.98h-4.058Zm-4.566,0h4.058V164.98h-4.058Zm-4.566,0h4.058V164.98h-4.058Zm-4.566,0H234.9V164.98h-4.058Zm-4.565,0h4.057V164.98h-4.057Zm-4.566,0h4.057V164.98h-4.057Zm-4.566,0h4.058V164.98h-4.058Zm-4.566,0h4.058V164.98h-4.058Zm-4.566,0h4.058V164.98h-4.058Zm-4.566,0h4.058V164.98H203.45Zm-4.566,0h4.058V164.98h-4.058Zm-4.566,0h4.058V164.98h-4.058Zm-4.566,0h4.058V164.98h-4.058Zm-4.565,0h4.057V164.98h-4.057Zm-4.566,0h4.058V164.98h-4.058Zm-4.566,0h4.058V164.98h-4.058Zm-4.566,0h4.058V164.98h-4.058Zm-4.566,0h4.058V164.98h-4.058Zm-4.566,0h4.058V164.98H162.36Zm-4.566,0h4.058V164.98h-4.058Zm-4.566,0h4.058V164.98h-4.058Zm-4.565,0h4.057V164.98h-4.057Zm-4.566,0h4.058V164.98H144.1Zm-4.566,0h4.058V164.98h-4.058Zm-4.566,0h4.058V164.98h-4.058Zm-4.566,0h4.058V164.98H130.4Zm-4.566,0h4.058V164.98h-4.058Zm-4.566,0h4.058V164.98H121.27Zm-4.565,0h4.057V164.98H116.7Zm-4.566,0H116.2V164.98h-4.057Zm-4.566,0h4.058V164.98h-4.058Zm-4.566,0h4.058V164.98h-4.058ZM12,166H94V154H12Zm259.934-1.54h4.058v-4.016h-4.058Zm-4.566,0h4.058v-4.016h-4.058Zm-4.566,0h4.058v-4.016H262.8Zm-4.565,0H262.3v-4.016h-4.057Zm-4.566,0h4.058v-4.016h-4.058Zm-4.566,0h4.058v-4.016h-4.058Zm-4.566,0H248.6v-4.016h-4.058Zm-4.566,0h4.058v-4.016h-4.058Zm-4.566,0h4.058v-4.016h-4.058Zm-4.566,0H234.9v-4.016h-4.058Zm-4.565,0h4.057v-4.016h-4.057Zm-4.566,0h4.057v-4.016h-4.057Zm-4.566,0h4.058v-4.016h-4.058Zm-4.566,0h4.058v-4.016h-4.058Zm-4.566,0h4.058v-4.016h-4.058Zm-4.566,0h4.058v-4.016H203.45Zm-4.566,0h4.058v-4.016h-4.058Zm-4.566,0h4.058v-4.016h-4.058Zm-4.566,0h4.058v-4.016h-4.058Zm-4.565,0h4.057v-4.016h-4.057Zm-4.566,0h4.058v-4.016h-4.058Zm-4.566,0h4.058v-4.016h-4.058Zm-4.566,0h4.058v-4.016h-4.058Zm-4.566,0h4.058v-4.016h-4.058Zm-4.566,0h4.058v-4.016H162.36Zm-4.566,0h4.058v-4.016h-4.058Zm-4.566,0h4.058v-4.016h-4.058Zm-4.565,0h4.057v-4.016h-4.057Zm-4.566,0h4.058v-4.016H144.1Zm-4.566,0h4.058v-4.016h-4.058Zm-4.566,0h4.058v-4.016h-4.058Zm-4.566,0h4.058v-4.016H130.4Zm-4.566,0h4.058v-4.016h-4.058Zm-4.566,0h4.058v-4.016H121.27Zm-4.565,0h4.057v-4.016H116.7Zm-4.566,0H116.2v-4.016h-4.057Zm-4.566,0h4.058v-4.016h-4.058Zm-4.566,0h4.058v-4.016h-4.058Zm168.926-4.524h4.058V155.9h-4.058Zm-4.566,0h4.058V155.9h-4.058Zm-4.566,0h4.058V155.9H262.8Zm-4.565,0H262.3V155.9h-4.057Zm-4.566,0h4.058V155.9h-4.058Zm-4.566,0h4.058V155.9h-4.058Zm-4.566,0H248.6V155.9h-4.058Zm-4.566,0h4.058V155.9h-4.058Zm-4.566,0h4.058V155.9h-4.058Zm-4.566,0H234.9V155.9h-4.058Zm-4.565,0h4.057V155.9h-4.057Zm-4.566,0h4.057V155.9h-4.057Zm-4.566,0h4.058V155.9h-4.058Zm-4.566,0h4.058V155.9h-4.058Zm-4.566,0h4.058V155.9h-4.058Zm-4.566,0h4.058V155.9H203.45Zm-4.566,0h4.058V155.9h-4.058Zm-4.566,0h4.058V155.9h-4.058Zm-4.566,0h4.058V155.9h-4.058Zm-4.565,0h4.057V155.9h-4.057Zm-4.566,0h4.058V155.9h-4.058Zm-4.566,0h4.058V155.9h-4.058Zm-4.566,0h4.058V155.9h-4.058Zm-4.566,0h4.058V155.9h-4.058Zm-4.566,0h4.058V155.9H162.36Zm-4.566,0h4.058V155.9h-4.058Zm-4.566,0h4.058V155.9h-4.058Zm-4.565,0h4.057V155.9h-4.057Zm-4.566,0h4.058V155.9H144.1Zm-4.566,0h4.058V155.9h-4.058Zm-4.566,0h4.058V155.9h-4.058Zm-4.566,0h4.058V155.9H130.4Zm-4.566,0h4.058V155.9h-4.058Zm-4.566,0h4.058V155.9H121.27Zm-4.565,0h4.057V155.9H116.7Zm-4.566,0H116.2V155.9h-4.057Zm-4.566,0h4.058V155.9h-4.058Zm-4.566,0h4.058V155.9h-4.058Zm168.926-4.58h4.058v-4.031h-4.058Zm-4.566,0h4.058v-4.031h-4.058Zm-4.566,0h4.058v-4.031H262.8Zm-4.565,0H262.3v-4.031h-4.057Zm-4.566,0h4.058v-4.031h-4.058Zm-4.566,0h4.058v-4.031h-4.058Zm-4.566,0H248.6v-4.031h-4.058Zm-4.566,0h4.058v-4.031h-4.058Zm-4.566,0h4.058v-4.031h-4.058Zm-4.566,0H234.9v-4.031h-4.058Zm-4.565,0h4.057v-4.031h-4.057Zm-4.566,0h4.057v-4.031h-4.057Zm-4.566,0h4.058v-4.031h-4.058Zm-4.566,0h4.058v-4.031h-4.058Zm-4.566,0h4.058v-4.031h-4.058Zm-4.566,0h4.058v-4.031H203.45Zm-4.566,0h4.058v-4.031h-4.058Zm-4.566,0h4.058v-4.031h-4.058Zm-4.566,0h4.058v-4.031h-4.058Zm-4.565,0h4.057v-4.031h-4.057Zm-4.566,0h4.058v-4.031h-4.058Zm-4.566,0h4.058v-4.031h-4.058Zm-4.566,0h4.058v-4.031h-4.058Zm-4.566,0h4.058v-4.031h-4.058Zm-4.566,0h4.058v-4.031H162.36Zm-4.566,0h4.058v-4.031h-4.058Zm-4.566,0h4.058v-4.031h-4.058Zm-4.565,0h4.057v-4.031h-4.057Zm-4.566,0h4.058v-4.031H144.1Zm-4.566,0h4.058v-4.031h-4.058Zm-4.566,0h4.058v-4.031h-4.058Zm-4.566,0h4.058v-4.031H130.4Zm-4.566,0h4.058v-4.031h-4.058Zm-4.566,0h4.058v-4.031H121.27Zm-4.565,0h4.057v-4.031H116.7Zm-4.566,0H116.2v-4.031h-4.057Zm-4.566,0h4.058v-4.031h-4.058Zm-4.566,0h4.058v-4.031h-4.058ZM12,153H94V83H12Zm259.934-2.184h4.058V146.8h-4.058Zm-4.566,0h4.058V146.8h-4.058Zm-4.566,0h4.058V146.8H262.8Zm-4.565,0H262.3V146.8h-4.057Zm-4.566,0h4.058V146.8h-4.058Zm-4.566,0h4.058V146.8h-4.058Zm-4.566,0H248.6V146.8h-4.058Zm-4.566,0h4.058V146.8h-4.058Zm-4.566,0h4.058V146.8h-4.058Zm-4.566,0H234.9V146.8h-4.058Zm-4.565,0h4.057V146.8h-4.057Zm-4.566,0h4.057V146.8h-4.057Zm-4.566,0h4.058V146.8h-4.058Zm-4.566,0h4.058V146.8h-4.058Zm-4.566,0h4.058V146.8h-4.058Zm-4.566,0h4.058V146.8H203.45Zm-4.566,0h4.058V146.8h-4.058Zm-4.566,0h4.058V146.8h-4.058Zm-4.566,0h4.058V146.8h-4.058Zm-4.565,0h4.057V146.8h-4.057Zm-4.566,0h4.058V146.8h-4.058Zm-4.566,0h4.058V146.8h-4.058Zm-4.566,0h4.058V146.8h-4.058Zm-4.566,0h4.058V146.8h-4.058Zm-4.566,0h4.058V146.8H162.36Zm-4.566,0h4.058V146.8h-4.058Zm-4.566,0h4.058V146.8h-4.058Zm-4.565,0h4.057V146.8h-4.057Zm-4.566,0h4.058V146.8H144.1Zm-4.566,0h4.058V146.8h-4.058Zm-4.566,0h4.058V146.8h-4.058Zm-4.566,0h4.058V146.8H130.4Zm-4.566,0h4.058V146.8h-4.058Zm-4.566,0h4.058V146.8H121.27Zm-4.565,0h4.057V146.8H116.7Zm-4.566,0H116.2V146.8h-4.057Zm-4.566,0h4.058V146.8h-4.058Zm-4.566,0h4.058V146.8h-4.058Zm168.926-4.536h4.058v-4.016h-4.058Zm-4.566,0h4.058v-4.016h-4.058Zm-4.566,0h4.058v-4.016H262.8Zm-4.565,0H262.3v-4.016h-4.057Zm-4.566,0h4.058v-4.016h-4.058Zm-4.566,0h4.058v-4.016h-4.058Zm-4.566,0H248.6v-4.016h-4.058Zm-4.566,0h4.058v-4.016h-4.058Zm-4.566,0h4.058v-4.016h-4.058Zm-4.566,0H234.9v-4.016h-4.058Zm-4.565,0h4.057v-4.016h-4.057Zm-4.566,0h4.057v-4.016h-4.057Zm-4.566,0h4.058v-4.016h-4.058Zm-4.566,0h4.058v-4.016h-4.058Zm-4.566,0h4.058v-4.016h-4.058Zm-4.566,0h4.058v-4.016H203.45Zm-4.566,0h4.058v-4.016h-4.058Zm-4.566,0h4.058v-4.016h-4.058Zm-4.566,0h4.058v-4.016h-4.058Zm-4.565,0h4.057v-4.016h-4.057Zm-4.566,0h4.058v-4.016h-4.058Zm-4.566,0h4.058v-4.016h-4.058Zm-4.566,0h4.058v-4.016h-4.058Zm-4.566,0h4.058v-4.016h-4.058Zm-4.566,0h4.058v-4.016H162.36Zm-4.566,0h4.058v-4.016h-4.058Zm-4.566,0h4.058v-4.016h-4.058Zm-4.565,0h4.057v-4.016h-4.057Zm-4.566,0h4.058v-4.016H144.1Zm-4.566,0h4.058v-4.016h-4.058Zm-4.566,0h4.058v-4.016h-4.058Zm-4.566,0h4.058v-4.016H130.4Zm-4.566,0h4.058v-4.016h-4.058Zm-4.566,0h4.058v-4.016H121.27Zm-4.565,0h4.057v-4.016H116.7Zm-4.566,0H116.2v-4.016h-4.057Zm-4.566,0h4.058v-4.016h-4.058Zm-4.566,0h4.058v-4.016h-4.058Zm168.926-4.524h4.058V137.8h-4.058Zm-4.566,0h4.058V137.8h-4.058Zm-4.566,0h4.058V137.8H262.8Zm-4.565,0H262.3V137.8h-4.057Zm-4.566,0h4.058V137.8h-4.058Zm-4.566,0h4.058V137.8h-4.058Zm-4.566,0H248.6V137.8h-4.058Zm-4.566,0h4.058V137.8h-4.058Zm-4.566,0h4.058V137.8h-4.058Zm-4.566,0H234.9V137.8h-4.058Zm-4.565,0h4.057V137.8h-4.057Zm-4.566,0h4.057V137.8h-4.057Zm-4.566,0h4.058V137.8h-4.058Zm-4.566,0h4.058V137.8h-4.058Zm-4.566,0h4.058V137.8h-4.058Zm-4.566,0h4.058V137.8H203.45Zm-4.566,0h4.058V137.8h-4.058Zm-4.566,0h4.058V137.8h-4.058Zm-4.566,0h4.058V137.8h-4.058Zm-4.565,0h4.057V137.8h-4.057Zm-4.566,0h4.058V137.8h-4.058Zm-4.566,0h4.058V137.8h-4.058Zm-4.566,0h4.058V137.8h-4.058Zm-4.566,0h4.058V137.8h-4.058Zm-4.566,0h4.058V137.8H162.36Zm-4.566,0h4.058V137.8h-4.058Zm-4.566,0h4.058V137.8h-4.058Zm-4.565,0h4.057V137.8h-4.057Zm-4.566,0h4.058V137.8H144.1Zm-4.566,0h4.058V137.8h-4.058Zm-4.566,0h4.058V137.8h-4.058Zm-4.566,0h4.058V137.8H130.4Zm-4.566,0h4.058V137.8h-4.058Zm-4.566,0h4.058V137.8H121.27Zm-4.565,0h4.057V137.8H116.7Zm-4.566,0H116.2V137.8h-4.057Zm-4.566,0h4.058V137.8h-4.058Zm-4.566,0h4.058V137.8h-4.058Zm168.926-4.536h4.058v-3.956h-4.058Zm-4.566,0h4.058v-3.956h-4.058Zm-4.566,0h4.058v-3.956H262.8Zm-4.565,0H262.3v-3.956h-4.057Zm-4.566,0h4.058v-3.956h-4.058Zm-4.566,0h4.058v-3.956h-4.058Zm-4.566,0H248.6v-3.956h-4.058Zm-4.566,0h4.058v-3.956h-4.058Zm-4.566,0h4.058v-3.956h-4.058Zm-4.566,0H234.9v-3.956h-4.058Zm-4.565,0h4.057v-3.956h-4.057Zm-4.566,0h4.057v-3.956h-4.057Zm-4.566,0h4.058v-3.956h-4.058Zm-4.566,0h4.058v-3.956h-4.058Zm-4.566,0h4.058v-3.956h-4.058Zm-4.566,0h4.058v-3.956H203.45Zm-4.566,0h4.058v-3.956h-4.058Zm-4.566,0h4.058v-3.956h-4.058Zm-4.566,0h4.058v-3.956h-4.058Zm-4.565,0h4.057v-3.956h-4.057Zm-4.566,0h4.058v-3.956h-4.058Zm-4.566,0h4.058v-3.956h-4.058Zm-4.566,0h4.058v-3.956h-4.058Zm-4.566,0h4.058v-3.956h-4.058Zm-4.566,0h4.058v-3.956H162.36Zm-4.566,0h4.058v-3.956h-4.058Zm-4.566,0h4.058v-3.956h-4.058Zm-4.565,0h4.057v-3.956h-4.057Zm-4.566,0h4.058v-3.956H144.1Zm-4.566,0h4.058v-3.956h-4.058Zm-4.566,0h4.058v-3.956h-4.058Zm-4.566,0h4.058v-3.956H130.4Zm-4.566,0h4.058v-3.956h-4.058Zm-4.566,0h4.058v-3.956H121.27Zm-4.565,0h4.057v-3.956H116.7Zm-4.566,0H116.2v-3.956h-4.057Zm-4.566,0h4.058v-3.956h-4.058Zm-4.566,0h4.058v-3.956h-4.058Zm168.926-4.464h4.058V128.74h-4.058Zm-4.566,0h4.058V128.74h-4.058Zm-4.566,0h4.058V128.74H262.8Zm-4.565,0H262.3V128.74h-4.057Zm-4.566,0h4.058V128.74h-4.058Zm-4.566,0h4.058V128.74h-4.058Zm-4.566,0H248.6V128.74h-4.058Zm-4.566,0h4.058V128.74h-4.058Zm-4.566,0h4.058V128.74h-4.058Zm-4.566,0H234.9V128.74h-4.058Zm-4.565,0h4.057V128.74h-4.057Zm-4.566,0h4.057V128.74h-4.057Zm-4.566,0h4.058V128.74h-4.058Zm-4.566,0h4.058V128.74h-4.058Zm-4.566,0h4.058V128.74h-4.058Zm-4.566,0h4.058V128.74H203.45Zm-4.566,0h4.058V128.74h-4.058Zm-4.566,0h4.058V128.74h-4.058Zm-4.566,0h4.058V128.74h-4.058Zm-4.565,0h4.057V128.74h-4.057Zm-4.566,0h4.058V128.74h-4.058Zm-4.566,0h4.058V128.74h-4.058Zm-4.566,0h4.058V128.74h-4.058Zm-4.566,0h4.058V128.74h-4.058Zm-4.566,0h4.058V128.74H162.36Zm-4.566,0h4.058V128.74h-4.058Zm-4.566,0h4.058V128.74h-4.058Zm-4.565,0h4.057V128.74h-4.057Zm-4.566,0h4.058V128.74H144.1Zm-4.566,0h4.058V128.74h-4.058Zm-4.566,0h4.058V128.74h-4.058Zm-4.566,0h4.058V128.74H130.4Zm-4.566,0h4.058V128.74h-4.058Zm-4.566,0h4.058V128.74H121.27Zm-4.565,0h4.057V128.74H116.7Zm-4.566,0H116.2V128.74h-4.057Zm-4.566,0h4.058V128.74h-4.058Zm-4.566,0h4.058V128.74h-4.058Zm168.926-4.536h4.058V124.2h-4.058Zm-4.566,0h4.058V124.2h-4.058Zm-4.566,0h4.058V124.2H262.8Zm-4.565,0H262.3V124.2h-4.057Zm-4.566,0h4.058V124.2h-4.058Zm-4.566,0h4.058V124.2h-4.058Zm-4.566,0H248.6V124.2h-4.058Zm-4.566,0h4.058V124.2h-4.058Zm-4.566,0h4.058V124.2h-4.058Zm-4.566,0H234.9V124.2h-4.058Zm-4.565,0h4.057V124.2h-4.057Zm-4.566,0h4.057V124.2h-4.057Zm-4.566,0h4.058V124.2h-4.058Zm-4.566,0h4.058V124.2h-4.058Zm-4.566,0h4.058V124.2h-4.058Zm-4.566,0h4.058V124.2H203.45Zm-4.566,0h4.058V124.2h-4.058Zm-4.566,0h4.058V124.2h-4.058Zm-4.566,0h4.058V124.2h-4.058Zm-4.565,0h4.057V124.2h-4.057Zm-4.566,0h4.058V124.2h-4.058Zm-4.566,0h4.058V124.2h-4.058Zm-4.566,0h4.058V124.2h-4.058Zm-4.566,0h4.058V124.2h-4.058Zm-4.566,0h4.058V124.2H162.36Zm-4.566,0h4.058V124.2h-4.058Zm-4.566,0h4.058V124.2h-4.058Zm-4.565,0h4.057V124.2h-4.057Zm-4.566,0h4.058V124.2H144.1Zm-4.566,0h4.058V124.2h-4.058Zm-4.566,0h4.058V124.2h-4.058Zm-4.566,0h4.058V124.2H130.4Zm-4.566,0h4.058V124.2h-4.058Zm-4.566,0h4.058V124.2H121.27Zm-4.565,0h4.057V124.2H116.7Zm-4.566,0H116.2V124.2h-4.057Zm-4.566,0h4.058V124.2h-4.058Zm-4.566,0h4.058V124.2h-4.058ZM271.934,123.7h4.058v-4h-4.058Zm-4.566,0h4.058v-4h-4.058Zm-4.566,0h4.058v-4H262.8Zm-4.565,0H262.3v-4h-4.057Zm-4.566,0h4.058v-4h-4.058Zm-4.566,0h4.058v-4h-4.058Zm-4.566,0H248.6v-4h-4.058Zm-4.566,0h4.058v-4h-4.058Zm-4.566,0h4.058v-4h-4.058Zm-4.566,0H234.9v-4h-4.058Zm-4.565,0h4.057v-4h-4.057Zm-4.566,0h4.057v-4h-4.057Zm-4.566,0h4.058v-4h-4.058Zm-4.566,0h4.058v-4h-4.058Zm-4.566,0h4.058v-4h-4.058Zm-4.566,0h4.058v-4H203.45Zm-4.566,0h4.058v-4h-4.058Zm-4.566,0h4.058v-4h-4.058Zm-4.566,0h4.058v-4h-4.058Zm-4.565,0h4.057v-4h-4.057Zm-4.566,0h4.058v-4h-4.058Zm-4.566,0h4.058v-4h-4.058Zm-4.566,0h4.058v-4h-4.058Zm-4.566,0h4.058v-4h-4.058Zm-4.566,0h4.058v-4H162.36Zm-4.566,0h4.058v-4h-4.058Zm-4.566,0h4.058v-4h-4.058Zm-4.565,0h4.057v-4h-4.057Zm-4.566,0h4.058v-4H144.1Zm-4.566,0h4.058v-4h-4.058Zm-4.566,0h4.058v-4h-4.058Zm-4.566,0h4.058v-4H130.4Zm-4.566,0h4.058v-4h-4.058Zm-4.566,0h4.058v-4H121.27Zm-4.565,0h4.057v-4H116.7Zm-4.566,0H116.2v-4h-4.057Zm-4.566,0h4.058v-4h-4.058Zm-4.566,0h4.058v-4h-4.058Zm168.926-4.535h4.058v-4h-4.058Zm-4.566,0h4.058v-4h-4.058Zm-4.566,0h4.058v-4H262.8Zm-4.565,0H262.3v-4h-4.057Zm-4.566,0h4.058v-4h-4.058Zm-4.566,0h4.058v-4h-4.058Zm-4.566,0H248.6v-4h-4.058Zm-4.566,0h4.058v-4h-4.058Zm-4.566,0h4.058v-4h-4.058Zm-4.566,0H234.9v-4h-4.058Zm-4.565,0h4.057v-4h-4.057Zm-4.566,0h4.057v-4h-4.057Zm-4.566,0h4.058v-4h-4.058Zm-4.566,0h4.058v-4h-4.058Zm-4.566,0h4.058v-4h-4.058Zm-4.566,0h4.058v-4H203.45Zm-4.566,0h4.058v-4h-4.058Zm-4.566,0h4.058v-4h-4.058Zm-4.566,0h4.058v-4h-4.058Zm-4.565,0h4.057v-4h-4.057Zm-4.566,0h4.058v-4h-4.058Zm-4.566,0h4.058v-4h-4.058Zm-4.566,0h4.058v-4h-4.058Zm-4.566,0h4.058v-4h-4.058Zm-4.566,0h4.058v-4H162.36Zm-4.566,0h4.058v-4h-4.058Zm-4.566,0h4.058v-4h-4.058Zm-4.565,0h4.057v-4h-4.057Zm-4.566,0h4.058v-4H144.1Zm-4.566,0h4.058v-4h-4.058Zm-4.566,0h4.058v-4h-4.058Zm-4.566,0h4.058v-4H130.4Zm-4.566,0h4.058v-4h-4.058Zm-4.566,0h4.058v-4H121.27Zm-4.565,0h4.057v-4H116.7Zm-4.566,0H116.2v-4h-4.057Zm-4.566,0h4.058v-4h-4.058Zm-4.566,0h4.058v-4h-4.058Zm168.926-4.5h4.058V110.64h-4.058Zm-4.566,0h4.058V110.64h-4.058Zm-4.566,0h4.058V110.64H262.8Zm-4.565,0H262.3V110.64h-4.057Zm-4.566,0h4.058V110.64h-4.058Zm-4.566,0h4.058V110.64h-4.058Zm-4.566,0H248.6V110.64h-4.058Zm-4.566,0h4.058V110.64h-4.058Zm-4.566,0h4.058V110.64h-4.058Zm-4.566,0H234.9V110.64h-4.058Zm-4.565,0h4.057V110.64h-4.057Zm-4.566,0h4.057V110.64h-4.057Zm-4.566,0h4.058V110.64h-4.058Zm-4.566,0h4.058V110.64h-4.058Zm-4.566,0h4.058V110.64h-4.058Zm-4.566,0h4.058V110.64H203.45Zm-4.566,0h4.058V110.64h-4.058Zm-4.566,0h4.058V110.64h-4.058Zm-4.566,0h4.058V110.64h-4.058Zm-4.565,0h4.057V110.64h-4.057Zm-4.566,0h4.058V110.64h-4.058Zm-4.566,0h4.058V110.64h-4.058Zm-4.566,0h4.058V110.64h-4.058Zm-4.566,0h4.058V110.64h-4.058Zm-4.566,0h4.058V110.64H162.36Zm-4.566,0h4.058V110.64h-4.058Zm-4.566,0h4.058V110.64h-4.058Zm-4.565,0h4.057V110.64h-4.057Zm-4.566,0h4.058V110.64H144.1Zm-4.566,0h4.058V110.64h-4.058Zm-4.566,0h4.058V110.64h-4.058Zm-4.566,0h4.058V110.64H130.4Zm-4.566,0h4.058V110.64h-4.058Zm-4.566,0h4.058V110.64H121.27Zm-4.565,0h4.057V110.64H116.7Zm-4.566,0H116.2V110.64h-4.057Zm-4.566,0h4.058V110.64h-4.058Zm-4.566,0h4.058V110.64h-4.058Zm168.926-4.536h4.058V106.1h-4.058Zm-4.566,0h4.058V106.1h-4.058Zm-4.566,0h4.058V106.1H262.8Zm-4.565,0H262.3V106.1h-4.057Zm-4.566,0h4.058V106.1h-4.058Zm-4.566,0h4.058V106.1h-4.058Zm-4.566,0H248.6V106.1h-4.058Zm-4.566,0h4.058V106.1h-4.058Zm-4.566,0h4.058V106.1h-4.058Zm-4.566,0H234.9V106.1h-4.058Zm-4.565,0h4.057V106.1h-4.057Zm-4.566,0h4.057V106.1h-4.057Zm-4.566,0h4.058V106.1h-4.058Zm-4.566,0h4.058V106.1h-4.058Zm-4.566,0h4.058V106.1h-4.058Zm-4.566,0h4.058V106.1H203.45Zm-4.566,0h4.058V106.1h-4.058Zm-4.566,0h4.058V106.1h-4.058Zm-4.566,0h4.058V106.1h-4.058Zm-4.565,0h4.057V106.1h-4.057Zm-4.566,0h4.058V106.1h-4.058Zm-4.566,0h4.058V106.1h-4.058Zm-4.566,0h4.058V106.1h-4.058Zm-4.566,0h4.058V106.1h-4.058Zm-4.566,0h4.058V106.1H162.36Zm-4.566,0h4.058V106.1h-4.058Zm-4.566,0h4.058V106.1h-4.058Zm-4.565,0h4.057V106.1h-4.057Zm-4.566,0h4.058V106.1H144.1Zm-4.566,0h4.058V106.1h-4.058Zm-4.566,0h4.058V106.1h-4.058Zm-4.566,0h4.058V106.1H130.4Zm-4.566,0h4.058V106.1h-4.058Zm-4.566,0h4.058V106.1H121.27Zm-4.565,0h4.057V106.1H116.7Zm-4.566,0H116.2V106.1h-4.057Zm-4.566,0h4.058V106.1h-4.058Zm-4.566,0h4.058V106.1h-4.058ZM271.934,105.6h4.058V101.64h-4.058Zm-4.566,0h4.058V101.64h-4.058Zm-4.566,0h4.058V101.64H262.8Zm-4.565,0H262.3V101.64h-4.057Zm-4.566,0h4.058V101.64h-4.058Zm-4.566,0h4.058V101.64h-4.058Zm-4.566,0H248.6V101.64h-4.058Zm-4.566,0h4.058V101.64h-4.058Zm-4.566,0h4.058V101.64h-4.058Zm-4.566,0H234.9V101.64h-4.058Zm-4.565,0h4.057V101.64h-4.057Zm-4.566,0h4.057V101.64h-4.057Zm-4.566,0h4.058V101.64h-4.058Zm-4.566,0h4.058V101.64h-4.058Zm-4.566,0h4.058V101.64h-4.058Zm-4.566,0h4.058V101.64H203.45Zm-4.566,0h4.058V101.64h-4.058Zm-4.566,0h4.058V101.64h-4.058Zm-4.566,0h4.058V101.64h-4.058Zm-4.565,0h4.057V101.64h-4.057Zm-4.566,0h4.058V101.64h-4.058Zm-4.566,0h4.058V101.64h-4.058Zm-4.566,0h4.058V101.64h-4.058Zm-4.566,0h4.058V101.64h-4.058Zm-4.566,0h4.058V101.64H162.36Zm-4.566,0h4.058V101.64h-4.058Zm-4.566,0h4.058V101.64h-4.058Zm-4.565,0h4.057V101.64h-4.057Zm-4.566,0h4.058V101.64H144.1Zm-4.566,0h4.058V101.64h-4.058Zm-4.566,0h4.058V101.64h-4.058Zm-4.566,0h4.058V101.64H130.4Zm-4.566,0h4.058V101.64h-4.058Zm-4.566,0h4.058V101.64H121.27Zm-4.565,0h4.057V101.64H116.7Zm-4.566,0H116.2V101.64h-4.057Zm-4.566,0h4.058V101.64h-4.058Zm-4.566,0h4.058V101.64h-4.058Zm168.926-4.535h4.058V97.1h-4.058Zm-4.566,0h4.058V97.1h-4.058Zm-4.566,0h4.058V97.1H262.8Zm-4.565,0H262.3V97.1h-4.057Zm-4.566,0h4.058V97.1h-4.058Zm-4.566,0h4.058V97.1h-4.058Zm-4.566,0H248.6V97.1h-4.058Zm-4.566,0h4.058V97.1h-4.058Zm-4.566,0h4.058V97.1h-4.058Zm-4.566,0H234.9V97.1h-4.058Zm-4.565,0h4.057V97.1h-4.057Zm-4.566,0h4.057V97.1h-4.057Zm-4.566,0h4.058V97.1h-4.058Zm-4.566,0h4.058V97.1h-4.058Zm-4.566,0h4.058V97.1h-4.058Zm-4.566,0h4.058V97.1H203.45Zm-4.566,0h4.058V97.1h-4.058Zm-4.566,0h4.058V97.1h-4.058Zm-4.566,0h4.058V97.1h-4.058Zm-4.565,0h4.057V97.1h-4.057Zm-4.566,0h4.058V97.1h-4.058Zm-4.566,0h4.058V97.1h-4.058Zm-4.566,0h4.058V97.1h-4.058Zm-4.566,0h4.058V97.1h-4.058Zm-4.566,0h4.058V97.1H162.36Zm-4.566,0h4.058V97.1h-4.058Zm-4.566,0h4.058V97.1h-4.058Zm-4.565,0h4.057V97.1h-4.057Zm-4.566,0h4.058V97.1H144.1Zm-4.566,0h4.058V97.1h-4.058Zm-4.566,0h4.058V97.1h-4.058Zm-4.566,0h4.058V97.1H130.4Zm-4.566,0h4.058V97.1h-4.058Zm-4.566,0h4.058V97.1H121.27Zm-4.565,0h4.057V97.1H116.7Zm-4.566,0H116.2V97.1h-4.057Zm-4.566,0h4.058V97.1h-4.058Zm-4.566,0h4.058V97.1h-4.058ZM258.237,92v4.6h13.19V88.04h-13.19Zm13.7,4.6h4.058V92.579h-4.058Zm-22.828,0h4.058V92.579h-4.058Zm-4.566,0H248.6V92.579h-4.058Zm-4.566,0h4.058V92.579h-4.058Zm-4.566,0h4.058V92.579h-4.058Zm-4.566,0H234.9V92.579h-4.058Zm-4.566,0h4.058V92.579h-4.058Zm-4.566,0h4.059V92.579h-4.059Zm-4.565,0h4.058V92.579h-4.058Zm-4.566,0h4.058V92.579h-4.058Zm-4.566,0h4.058V92.579h-4.058Zm-4.566,0h4.058V92.579H203.45Zm-4.566,0h4.058V92.579h-4.058Zm-4.566,0h4.058V92.579h-4.058Zm-4.566,0h4.058V92.579h-4.058Zm-4.566,0h4.059V92.579h-4.059Zm-4.565,0h4.058V92.579h-4.058Zm-4.566,0h4.058V92.579h-4.058Zm-4.566,0h4.058V92.579h-4.058Zm-4.566,0h4.058V92.579h-4.058Zm-4.566,0h4.058V92.579H162.36Zm-4.566,0h4.058V92.579h-4.058Zm-4.566,0h4.058V92.579h-4.058Zm-4.566,0h4.059V92.579h-4.059Zm-4.565,0h4.058V92.579H144.1Zm-4.566,0h4.058V92.579h-4.058Zm-4.566,0h4.058V92.579h-4.058Zm-4.566,0h4.058V92.579H130.4Zm-4.566,0h4.058V92.579h-4.058Zm-4.566,0h4.058V92.579H121.27Zm-4.566,0h4.058V92.579H116.7Zm-4.566,0H116.2V92.579h-4.059Zm-4.565,0h4.058V92.579h-4.058Zm-4.566,0h4.058V92.579h-4.058Zm150.665-.06h4.058v-4h-4.058Zm18.262-4.476h4.058V88.043h-4.058Zm-22.828,0h4.058V88.043h-4.058Zm-4.566,0H248.6V88.043h-4.058Zm-4.566,0h4.058V88.043h-4.058Zm-4.566,0h4.058V88.043h-4.058Zm-4.566,0H234.9V88.043h-4.058Zm-4.566,0h4.058V88.043h-4.058Zm-4.566,0h4.059V88.043h-4.059Zm-4.565,0h4.058V88.043h-4.058Zm-4.566,0h4.058V88.043h-4.058Zm-4.566,0h4.058V88.043h-4.058Zm-4.566,0h4.058V88.043H203.45Zm-4.566,0h4.058V88.043h-4.058Zm-4.566,0h4.058V88.043h-4.058Zm-4.566,0h4.058V88.043h-4.058Zm-4.566,0h4.059V88.043h-4.059Zm-4.565,0h4.058V88.043h-4.058Zm-4.566,0h4.058V88.043h-4.058Zm-4.566,0h4.058V88.043h-4.058Zm-4.566,0h4.058V88.043h-4.058Zm-4.566,0h4.058V88.043H162.36Zm-4.566,0h4.058V88.043h-4.058Zm-4.566,0h4.058V88.043h-4.058Zm-4.566,0h4.059V88.043h-4.059Zm-4.565,0h4.058V88.043H144.1Zm-4.566,0h4.058V88.043h-4.058Zm-4.566,0h4.058V88.043h-4.058Zm-4.566,0h4.058V88.043H130.4Zm-4.566,0h4.058V88.043h-4.058Zm-4.566,0h4.058V88.043H121.27Zm-4.566,0h4.058V88.043H116.7Zm-4.566,0H116.2V88.043h-4.059Zm-4.565,0h4.058V88.043h-4.058Zm-4.566,0h4.058V88.043h-4.058ZM253.672,92h4.058V88.04h-4.058Zm18.262-4.464h4.058V83.5h-4.058Zm-4.566,0h4.058V83.5h-4.058Zm-4.566,0h4.058V83.5H262.8Zm-4.566-.036v.036H262.3V83.5h-4.059Zm-9.13.036h4.058V83.5h-4.058Zm-4.566,0H248.6V83.5h-4.058Zm-4.566,0h4.058V83.5h-4.058Zm-4.566,0h4.058V83.5h-4.058Zm-4.566,0H234.9V83.5h-4.058Zm-4.566,0h4.058V83.5h-4.058Zm-4.566,0h4.059V83.5h-4.059Zm-4.565,0h4.058V83.5h-4.058Zm-4.566,0h4.058V83.5h-4.058Zm-4.566,0h4.058V83.5h-4.058Zm-4.566,0h4.058V83.5H203.45Zm-4.566,0h4.058V83.5h-4.058Zm-4.566,0h4.058V83.5h-4.058Zm-4.566,0h4.058V83.5h-4.058Zm-4.566,0h4.059V83.5h-4.059Zm-4.565,0h4.058V83.5h-4.058Zm-4.566,0h4.058V83.5h-4.058Zm-4.566,0h4.058V83.5h-4.058Zm-4.566,0h4.058V83.5h-4.058Zm-4.566,0h4.058V83.5H162.36Zm-4.566,0h4.058V83.5h-4.058Zm-4.566,0h4.058V83.5h-4.058Zm-4.566,0h4.059V83.5h-4.059Zm-4.565,0h4.058V83.5H144.1Zm-4.566,0h4.058V83.5h-4.058Zm-4.566,0h4.058V83.5h-4.058Zm-4.566,0h4.058V83.5H130.4Zm-4.566,0h4.058V83.5h-4.058Zm-4.566,0h4.058V83.5H121.27Zm-4.566,0h4.058V83.5H116.7Zm-4.566,0H116.2V83.5h-4.059Zm-4.565,0h4.058V83.5h-4.058Zm-4.566,0h4.058V83.5h-4.058ZM253.672,87.5h4.058v-4h-4.058ZM107.573,83h0ZM144.5,81h3V76h-3Zm-4,0h3V76h-3ZM194,74h82V12H194Zm-91,0h82V12H103ZM12,74H94V12H12ZM62.922,201.5l-.361-1.076H60.92l-.361,1.076h-.844l1.537-4.364h.976l1.537,4.364Zm-.575-1.712-.59-1.757h-.034l-.589,1.757Zm-4.6,1.712v-4.364h.791V201.5Zm-4.946,0v-4.364H54.31a2.261,2.261,0,0,1,1.118.261,1.761,1.761,0,0,1,.719.749,2.845,2.845,0,0,1,0,2.339,1.761,1.761,0,0,1-.726.752,2.309,2.309,0,0,1-1.139.263Zm.791-.684h.652A1.562,1.562,0,0,0,55,200.65a1.05,1.05,0,0,0,.458-.5,2.353,2.353,0,0,0,0-1.667,1.055,1.055,0,0,0-.453-.5,1.529,1.529,0,0,0-.743-.165h-.673Zm-5.037.684v-4.364h2.839v.663H49.346v1.184h1.9v.663h-1.9v1.19h2.065v.663Zm-2.218,0v-3H46.3l-1.207,2.985h-.566L43.317,198.5h-.039V201.5h-.761v-4.364h.968l1.3,3.163h.051l1.3-3.163H47.1V201.5ZM36.3,188.409a1.313,1.313,0,0,1-.585-.461,1.348,1.348,0,0,1-.227-.736h.778a.665.665,0,0,0,.14.379.738.738,0,0,0,.323.226,1.259,1.259,0,0,0,.446.075,1.216,1.216,0,0,0,.454-.078.717.717,0,0,0,.306-.218.511.511,0,0,0,.112-.326.413.413,0,0,0-.1-.283.746.746,0,0,0-.274-.187,2.757,2.757,0,0,0-.411-.135l-.5-.13a1.994,1.994,0,0,1-.851-.42.963.963,0,0,1-.311-.751,1.124,1.124,0,0,1,.209-.676,1.379,1.379,0,0,1,.571-.45,1.994,1.994,0,0,1,.821-.161,1.942,1.942,0,0,1,.815.16,1.339,1.339,0,0,1,.551.446,1.153,1.153,0,0,1,.207.653h-.761a.583.583,0,0,0-.25-.435.973.973,0,0,0-.573-.155,1.085,1.085,0,0,0-.423.074.627.627,0,0,0-.271.2.486.486,0,0,0-.1.292.422.422,0,0,0,.062.236.551.551,0,0,0,.172.169,1.214,1.214,0,0,0,.24.117,2.386,2.386,0,0,0,.267.079l.41.1a2.856,2.856,0,0,1,.476.155,1.669,1.669,0,0,1,.41.247,1.11,1.11,0,0,1,.288.36,1.093,1.093,0,0,1,.107.495,1.19,1.19,0,0,1-.2.675,1.3,1.3,0,0,1-.566.454,2.2,2.2,0,0,1-.893.163A2.259,2.259,0,0,1,36.3,188.409Zm26.628-.116a1.878,1.878,0,0,1-.715-.769,2.9,2.9,0,0,1,0-2.413,1.865,1.865,0,0,1,.715-.768,2.107,2.107,0,0,1,2.051,0,1.867,1.867,0,0,1,.716.768,2.9,2.9,0,0,1,0,2.415,1.872,1.872,0,0,1-.716.768,2.1,2.1,0,0,1-2.051,0Zm.4-3.331a1.171,1.171,0,0,0-.428.518,2.363,2.363,0,0,0,0,1.678,1.17,1.17,0,0,0,.428.518,1.207,1.207,0,0,0,1.256,0,1.159,1.159,0,0,0,.428-.518,2.35,2.35,0,0,0,0-1.678,1.159,1.159,0,0,0-.428-.518,1.212,1.212,0,0,0-1.256,0Zm-9.836,3.331a1.857,1.857,0,0,1-.711-.769,2.919,2.919,0,0,1,0-2.413,1.866,1.866,0,0,1,.714-.768,1.968,1.968,0,0,1,1.021-.266,2.169,2.169,0,0,1,.678.1,1.76,1.76,0,0,1,.559.3,1.632,1.632,0,0,1,.4.481,1.823,1.823,0,0,1,.209.649h-.8a1,1,0,0,0-.124-.348.941.941,0,0,0-.229-.258.976.976,0,0,0-.311-.161,1.213,1.213,0,0,0-.372-.055,1.14,1.14,0,0,0-.632.177,1.179,1.179,0,0,0-.43.521,2.326,2.326,0,0,0,0,1.676,1.165,1.165,0,0,0,.43.516,1.144,1.144,0,0,0,.627.175,1.286,1.286,0,0,0,.368-.052,1.012,1.012,0,0,0,.31-.156.922.922,0,0,0,.231-.251.961.961,0,0,0,.131-.34l.8,0a1.718,1.718,0,0,1-.58,1.066,1.773,1.773,0,0,1-.558.323,2.048,2.048,0,0,1-.71.117A1.973,1.973,0,0,1,53.491,188.293Zm16.272.207-.857-1.6H68.1v1.6h-.79v-4.363h1.638a1.847,1.847,0,0,1,.843.175,1.2,1.2,0,0,1,.518.49,1.477,1.477,0,0,1,.175.732,1.424,1.424,0,0,1-.178.726,1.177,1.177,0,0,1-.522.475q-.041.02-.084.037l.945,1.728Zm-.932-2.253a1.2,1.2,0,0,0,.481-.083.571.571,0,0,0,.278-.241.781.781,0,0,0,.09-.391.813.813,0,0,0-.091-.4.584.584,0,0,0-.279-.252,1.151,1.151,0,0,0-.484-.087H68.1v1.451ZM58.848,188.5v-3.7H57.5v-.663h3.48v.663H59.632v3.7Zm-10.466,0v-4.363h2.839v.663H49.173v1.184h1.9v.663h-1.9v1.19h2.065v.662Zm-4,0v-4.363h.791v3.7H47.1v.662Zm-4.246,0v-4.363h2.838v.663H40.932v1.184h1.9v.663h-1.9v1.19H43v.662ZM56.63,175.367a1.5,1.5,0,0,1-.618-.555,1.531,1.531,0,0,1-.221-.824v-2.851h.791v2.785a.967.967,0,0,0,.121.485.855.855,0,0,0,.34.334,1.182,1.182,0,0,0,1.04,0,.847.847,0,0,0,.339-.334.967.967,0,0,0,.12-.485v-2.785h.791v2.851a1.524,1.524,0,0,1-.221.824,1.5,1.5,0,0,1-.619.555,2.271,2.271,0,0,1-1.863,0Zm4.162.133v-4.363H63.63v.662H61.583v1.185h1.9v.662h-1.9v1.19h2.064v.663Zm-9,0v-4.363h.791v3.7h1.922v.663Zm-2.021,0-.361-1.076h-1.64l-.361,1.076H46.57l1.537-4.363h.976L50.62,175.5Zm-.574-1.712-.589-1.757h-.034l-.589,1.757ZM43.675,175.5l-1.537-4.363h.868l1.135,3.434h.044l1.136-3.434h.868L44.65,175.5Zm1.482-13.207a1.89,1.89,0,0,1-.715-.769,2.91,2.91,0,0,1,0-2.413,1.876,1.876,0,0,1,.715-.768,2.109,2.109,0,0,1,2.052,0,1.872,1.872,0,0,1,.716.768,2.9,2.9,0,0,1,0,2.415,1.878,1.878,0,0,1-.716.768,2.106,2.106,0,0,1-2.052,0Zm.4-3.331a1.169,1.169,0,0,0-.428.518,2.35,2.35,0,0,0,0,1.678,1.165,1.165,0,0,0,.428.518,1.207,1.207,0,0,0,1.256,0,1.165,1.165,0,0,0,.427-.518,2.35,2.35,0,0,0,0-1.678,1.169,1.169,0,0,0-.427-.518,1.212,1.212,0,0,0-1.256,0ZM68.6,162.5v-1.628l-1.587-2.736H67.9l1.067,1.931h.045l1.066-1.931h.892l-1.588,2.736V162.5Zm-4.691,0v-3.7H62.558v-.663h3.481v.663H64.691v3.7Zm-3.208,0-.858-1.6h-.8v1.6h-.791v-4.364h1.639a1.848,1.848,0,0,1,.843.175,1.2,1.2,0,0,1,.518.49,1.477,1.477,0,0,1,.175.732,1.428,1.428,0,0,1-.178.727,1.178,1.178,0,0,1-.523.474q-.041.02-.084.037l.945,1.729Zm-.932-2.254a1.2,1.2,0,0,0,.481-.083.571.571,0,0,0,.278-.241.779.779,0,0,0,.09-.391.814.814,0,0,0-.091-.4.584.584,0,0,0-.279-.252,1.151,1.151,0,0,0-.484-.087h-.725v1.451ZM54,162.5v-4.364h2.838v.663H54.79v1.184h1.9v.663h-1.9v1.19h2.065v.663Zm-4.461,0v-4.364h1.638a1.741,1.741,0,0,1,.845.187,1.26,1.26,0,0,1,.518.514,1.66,1.66,0,0,1,0,1.49,1.259,1.259,0,0,1-.522.513,1.784,1.784,0,0,1-.851.185H50.33V162.5Zm1.521-2.124a1,1,0,0,0,.482-.1.654.654,0,0,0,.277-.282.979.979,0,0,0,0-.82.632.632,0,0,0-.279-.276,1.03,1.03,0,0,0-.485-.1H50.33v1.58ZM42.238,162.5l-.858-1.6h-.8v1.6h-.791v-4.364h1.638a1.852,1.852,0,0,1,.844.175,1.206,1.206,0,0,1,.518.49,1.477,1.477,0,0,1,.176.732,1.428,1.428,0,0,1-.178.727,1.183,1.183,0,0,1-.523.474q-.041.02-.084.037l.945,1.729Zm-.931-2.254a1.2,1.2,0,0,0,.481-.083.571.571,0,0,0,.278-.241.788.788,0,0,0,.09-.391.814.814,0,0,0-.091-.4.588.588,0,0,0-.279-.252,1.154,1.154,0,0,0-.484-.087h-.725v1.451ZM35.325,162.5v-4.364h1.638a1.735,1.735,0,0,1,.844.187,1.26,1.26,0,0,1,.517.514,1.66,1.66,0,0,1,0,1.49,1.253,1.253,0,0,1-.522.513,1.782,1.782,0,0,1-.85.185h-.835V162.5Zm1.52-2.124a1,1,0,0,0,.481-.1.649.649,0,0,0,.277-.282.979.979,0,0,0,0-.82.635.635,0,0,0-.278-.276,1.037,1.037,0,0,0-.486-.1h-.725v1.58ZM267.466,95V91.182h-.03l-1.113.666V90.675l1.253-.766h1.273V95Zm-5.18,0-1.68-5.091h1.561L263.21,93.5h.04l1.044-3.589h1.561L264.174,95Z" opacity="0.8" fill="url(#a)"/><text transform="translate(235 41)" fill="#fff" font-size="8" font-family="Inter V" font-weight="700"><tspan letter-spacing="0.1em"><tspan x="-21.224" y="0">OBSERVE</tspan></tspan><tspan font-weight="400"><tspan x="-16.051" y="10">changes</tspan></tspan></text><text transform="translate(144 41)" fill="#fff" font-size="8" font-family="Inter V" font-weight="700"><tspan letter-spacing="0.1em"><tspan x="-16.428" y="0">MATCH</tspan></tspan><tspan font-weight="400"><tspan x="-11.142" y="10">styles</tspan></tspan></text><text transform="translate(53 41)" fill="#fff" font-size="8" font-family="Inter V" font-weight="700"><tspan letter-spacing="0.1em"><tspan x="-17.84" y="0">CREATE</tspan></tspan><tspan font-weight="400"><tspan x="-11.142" y="10">styles</tspan></tspan></text><text transform="translate(53 115.124)" fill="#fff" font-size="8" font-family="Inter V" font-weight="700"><tspan letter-spacing="0.1em"><tspan x="-14.54" y="0">PARSE</tspan></tspan><tspan font-weight="400"><tspan x="-12.528" y="10">syntax</tspan></tspan></text><text transform="translate(53 243)" fill="#fff" font-size="8" font-family="Inter V" font-weight="700"><tspan letter-spacing="0.1em"><tspan x="-24.065" y="0">GENERATE</tspan></tspan><tspan font-weight="400"><tspan x="-9.182" y="10">rules</tspan></tspan></text><text transform="translate(144 243)" fill="#fff" font-size="8" font-family="Inter V" font-weight="700"><tspan letter-spacing="0.1em"><tspan x="-12.245" y="0">SORT</tspan></tspan><tspan font-weight="400"><tspan x="-9.182" y="10">rules</tspan></tspan></text><text transform="translate(235 243)" fill="#fff" font-size="8" font-family="Inter V" font-weight="700"><tspan letter-spacing="0.1em"><tspan x="-16.43" y="0">INSERT</tspan></tspan><tspan font-weight="400"><tspan x="-9.182" y="10">rules</tspan></tspan></text><g transform="translate(-73.092 -124.845)"><text transform="translate(262.592 298.845)" fill="#fff" font-size="13" font-family="Inter-Bold, Inter" font-weight="700"><tspan x="-36.479" y="0">Virtual CSS</tspan></text><g transform="translate(233.092 239.533)"><path d="M587.932,454.192c-1.543-2.731-2.841-3.137-4.107-3.137-1.858,0-3.149,1.717-3.975,3.242l-3.3,6.767.9,1.473A12.3,12.3,0,0,0,594,467.728l.857-.447Z" transform="translate(-535.859 -437.086)" fill="url(#b)"/><path d="M523.086,454.192c1.543-2.731,2.841-3.137,4.107-3.137,1.857,0,3.148,1.717,3.974,3.242l3.3,6.767-.9,1.473a12.3,12.3,0,0,1-16.543,5.192l-.857-.447Z" transform="translate(-516.166 -437.086)" fill="url(#c)"/><path d="M565.758,434.013a6.808,6.808,0,0,0-12.061-.074l-3.553,6.8-3.553-6.8a6.808,6.808,0,0,0-12.061.074l-4.622,8.943c2.194-2.491,5.271-1.024,6.61,1.512l4.985,9.176,2.55,4.877a6.754,6.754,0,0,0,2.9,2.954,7.049,7.049,0,0,0,6.376,0,6.756,6.756,0,0,0,2.9-2.954l2.55-4.877,4.985-9.176c1.339-2.535,4.415-4,6.61-1.512Z" transform="translate(-520.647 -430.327)" fill="url(#d)"/></g></g></g></svg>